# Blender 5.2.2 LTS
# www.blender.org
mtllib Cubo_StarWars.mtl
o Cube
v 1.000000 1.000000 -1.000000
v 1.000000 -1.000000 -1.000000
v 1.000000 1.000000 1.000000
v 1.000000 -1.000000 1.000000
v -1.000000 1.000000 -1.000000
v -1.000000 -1.000000 -1.000000
v -1.000000 1.000000 1.000000
v -1.000000 -1.000000 1.000000
vn -0.0000 1.0000 -0.0000
vn -0.0000 -0.0000 1.0000
vn -1.0000 -0.0000 -0.0000
vn -0.0000 -1.0000 -0.0000
vn 1.0000 -0.0000 -0.0000
vn -0.0000 -0.0000 -1.0000
vt 0.999998 0.500000
vt 0.666668 0.500000
vt 0.666668 -0.000000
vt 0.999998 -0.000000
vt 0.333334 0.500000
vt 0.333334 1.000000
vt 0.000001 1.000000
vt 0.000001 0.500000
vt 0.333334 0.000000
vt 0.333334 0.500000
vt 0.000000 0.500000
vt 0.000000 0.000000
vt 0.333333 0.000000
vt 0.666667 0.000000
vt 0.666667 0.500000
vt 0.333333 0.500000
vt 0.666667 1.000000
vt 0.333333 1.000000
vt 1.000000 0.500000
vt 1.000000 1.000000
vt 0.666666 1.000000
vt 0.666666 0.500000
s 0
usemtl Material
f 1/1/1 5/2/1 7/3/1 3/4/1
f 4/5/2 3/6/2 7/7/2 8/8/2
f 8/9/3 7/10/3 5/11/3 6/12/3
f 6/13/4 2/14/4 4/15/4 8/16/4
f 2/16/5 1/15/5 3/17/5 4/18/5
f 6/19/6 5/20/6 1/21/6 2/22/6
