# Blender 5.2.2 LTS
# www.blender.org
mtllib P06-320324187-avion.mtl
o Cubo
v -0.017215 0.617279 -4.971123
v -0.017215 0.523637 -4.971123
v -0.001180 0.568545 -4.969568
v -0.001180 0.572371 -4.969568
v 0.017096 0.523637 -4.971123
v 0.017096 0.617279 -4.971123
v 0.001064 0.572371 -4.969568
v 0.001064 0.568545 -4.969568
v -0.690847 0.500000 2.033018
v -0.445531 0.329665 3.040875
v -0.445531 -0.487311 3.040875
v -0.690847 -0.500000 2.033018
v 0.690831 -0.500000 2.033018
v 0.445531 -0.487311 3.040875
v 0.445531 0.329665 3.040875
v 0.690831 0.500000 2.033018
v 0.690828 0.898435 1.392700
v 0.690831 0.898435 1.536522
v 0.690831 0.972884 1.443750
v 0.690828 0.972884 1.307785
v 0.690828 0.573377 1.763454
v 0.690831 0.573377 1.941581
v 0.690831 0.898435 1.536522
v 0.690828 0.898435 1.392700
v 0.690828 0.500000 1.847147
v 0.690831 0.500000 2.033018
v 0.690831 0.573377 1.941581
v 0.690828 0.573377 1.763454
v 0.690828 -0.500000 1.847147
v 0.690831 -0.500000 2.033018
v 0.690831 0.500000 2.033018
v 0.690828 0.500000 1.847147
v -0.690847 0.500000 1.847147
v -0.690847 0.500000 2.033018
v -0.690847 -0.500000 2.033018
v -0.690847 -0.500000 1.847147
v -0.690847 0.573377 1.763454
v -0.690847 0.573377 1.941581
v -0.690847 0.500000 2.033018
v -0.690847 0.500000 1.847147
v -0.690847 0.898435 1.392700
v -0.690847 0.898435 1.536522
v -0.690847 0.573377 1.941581
v -0.690847 0.573377 1.763454
v -0.690847 0.972884 1.307785
v -0.690847 0.972884 1.443750
v -0.690847 0.898435 1.536522
v -0.690847 0.898435 1.392700
v -0.690847 0.898435 -0.236919
v -0.690847 0.898435 -0.345085
v -0.690847 0.972884 -0.335066
v -0.690847 0.972884 -0.232809
v 0.690795 0.972884 -0.232809
v 0.690793 0.972884 -0.335066
v 0.690793 0.898435 -0.345085
v 0.690795 0.898435 -0.236919
v 0.690795 0.898435 -0.236919
v 0.690793 0.898435 -0.345085
v 0.690793 0.573377 -0.388830
v 0.690795 0.573377 -0.254864
v 0.690795 0.573377 -0.254864
v 0.690793 0.573377 -0.388830
v 0.690793 0.500000 -0.398705
v 0.690795 0.500000 -0.258915
v 0.690795 0.500000 -0.258915
v 0.690793 0.500000 -0.398705
v 0.690793 -0.500000 -0.398705
v 0.690795 -0.500000 -0.258915
v -0.690847 -0.500000 -0.258915
v -0.690847 -0.500000 -0.398705
v -0.690847 0.500000 -0.398705
v -0.690847 0.500000 -0.258914
v -0.690847 0.500000 -0.258914
v -0.690847 0.500000 -0.398705
v -0.690847 0.573377 -0.388830
v -0.690847 0.573377 -0.254864
v -0.690847 0.573377 -0.254864
v -0.690847 0.573377 -0.388830
v -0.690847 0.898435 -0.345085
v -0.690847 0.898435 -0.236919
v -0.690847 0.972884 0.591492
v -0.690847 0.972884 1.307785
v -0.690847 0.898435 1.392700
v -0.690847 0.898435 0.635016
v 0.690813 0.898435 0.635016
v 0.690828 0.898435 1.392700
v 0.690828 0.972884 1.307785
v 0.690813 0.972884 0.591492
v 0.690813 0.500000 0.867943
v 0.690828 0.500000 1.847147
v 0.690828 0.573377 1.763454
v 0.690813 0.573377 0.825046
v 0.690813 -0.500000 0.867943
v 0.690828 -0.500000 1.847147
v 0.690828 0.500000 1.847147
v 0.690813 0.500000 0.867943
v -0.690847 0.500000 0.867943
v -0.690847 0.500000 1.847147
v -0.690847 -0.500000 1.847147
v -0.690847 -0.500000 0.867943
v -0.690847 0.573377 0.825046
v -0.690847 0.573377 1.763454
v -0.690847 0.500000 1.847147
v -0.690847 0.500000 0.867943
v -0.690847 0.972884 0.515566
v -0.690847 0.972884 0.591492
v -0.690847 0.898435 0.635016
v -0.690847 0.898435 0.554702
v -0.690847 0.898435 0.554702
v -0.690847 0.898435 -0.236919
v -0.690847 0.972884 -0.232809
v -0.690847 0.972884 0.515566
v -0.690847 0.898435 0.554702
v -0.690847 0.898435 0.635016
v -0.690847 0.573377 0.825046
v -0.690847 0.573377 0.725577
v -0.690847 0.573377 0.725577
v -0.690847 0.573377 0.825046
v -0.690847 0.500000 0.867943
v -0.690847 0.500000 0.764149
v -0.690847 0.500000 0.764149
v -0.690847 0.500000 -0.258914
v -0.690847 0.573377 -0.254864
v -0.690847 0.573377 0.725577
v -0.690847 0.500000 0.764149
v -0.690847 0.500000 0.867943
v -0.690847 -0.500000 0.867943
v -0.690847 -0.500000 0.764149
v -0.690847 -0.500000 0.764149
v -0.690847 -0.500000 -0.258915
v -0.690847 0.500000 -0.258914
v -0.690847 0.500000 0.764149
v 0.690811 -0.500000 0.764149
v 0.690813 -0.500000 0.867943
v 0.690813 0.500000 0.867943
v 0.690811 0.500000 0.764149
v 0.690811 0.500000 0.764149
v 0.690795 0.500000 -0.258915
v 0.690795 -0.500000 -0.258915
v 0.690811 -0.500000 0.764149
v 0.690811 0.500000 0.764149
v 0.690813 0.500000 0.867943
v 0.690813 0.573377 0.825046
v 0.690811 0.573377 0.725576
v 0.690811 0.573377 0.725576
v 0.690795 0.573377 -0.254864
v 0.690795 0.500000 -0.258915
v 0.690811 0.500000 0.764149
v 0.690811 0.573377 0.725576
v 0.690813 0.573377 0.825046
v 0.690813 0.898435 0.635016
v 0.690811 0.898435 0.554702
v 0.690811 0.898435 0.554702
v 0.690813 0.898435 0.635016
v 0.690813 0.972884 0.591492
v 0.690811 0.972884 0.515566
v 0.690811 0.972884 0.515566
v 0.690795 0.972884 -0.232809
v 0.690795 0.898435 -0.236919
v 0.690811 0.898435 0.554702
v -0.690847 0.573377 0.725577
v -0.690847 0.573377 -0.254864
v -0.443981 0.573377 -0.254864
v -0.443981 0.573377 0.725577
v -0.690847 0.573377 -0.254864
v -0.690847 0.898435 -0.236919
v -0.443981 0.898435 -0.236919
v -0.443981 0.573377 -0.254864
v -0.690847 0.898435 -0.236919
v -0.690847 0.898435 0.554702
v -0.443981 0.898435 0.554702
v -0.443981 0.898435 -0.236919
v -0.690847 0.898435 0.554702
v -0.690847 0.573377 0.725577
v -0.443981 0.573377 0.725577
v -0.443981 0.898435 0.554702
v -0.443981 0.573377 0.725577
v -0.443981 0.573377 -0.254864
v -0.443981 0.898435 -0.236919
v -0.443981 0.898435 0.554702
v -0.690847 0.898435 0.635016
v -0.690847 0.898435 1.392700
v -0.443981 0.898435 1.392700
v -0.443981 0.898435 0.635016
v -0.690847 0.898435 1.392700
v -0.690847 0.573377 1.763454
v -0.443981 0.573377 1.763454
v -0.443981 0.898435 1.392700
v -0.690847 0.573377 1.763454
v -0.690847 0.573377 0.825046
v -0.443981 0.573377 0.825046
v -0.443981 0.573377 1.763454
v -0.690847 0.573377 0.825046
v -0.690847 0.898435 0.635016
v -0.443981 0.898435 0.635016
v -0.443981 0.573377 0.825046
v -0.443981 0.898435 0.635016
v -0.443981 0.898435 1.392700
v -0.443981 0.573377 1.763454
v -0.443981 0.573377 0.825046
v 0.690813 0.573377 0.825046
v 0.690828 0.573377 1.763454
v 0.295254 0.573382 1.763394
v 0.295238 0.573382 0.824987
v 0.690828 0.573377 1.763454
v 0.690828 0.898435 1.392700
v 0.295254 0.898440 1.392640
v 0.295254 0.573382 1.763394
v 0.690828 0.898435 1.392700
v 0.690813 0.898435 0.635016
v 0.295238 0.898440 0.634957
v 0.295254 0.898440 1.392640
v 0.690813 0.898435 0.635016
v 0.690813 0.573377 0.825046
v 0.295238 0.573382 0.824987
v 0.295238 0.898440 0.634957
v 0.295238 0.573382 0.824987
v 0.295254 0.573382 1.763394
v 0.295254 0.898440 1.392640
v 0.295238 0.898440 0.634957
v 0.690811 0.898435 0.554702
v 0.690795 0.898435 -0.236919
v 0.295220 0.898440 -0.236979
v 0.295236 0.898440 0.554643
v 0.690795 0.898435 -0.236919
v 0.690795 0.573377 -0.254864
v 0.295220 0.573383 -0.254923
v 0.295220 0.898440 -0.236979
v 0.690795 0.573377 -0.254864
v 0.690811 0.573377 0.725576
v 0.295236 0.573383 0.725517
v 0.295220 0.573383 -0.254923
v 0.690811 0.573377 0.725576
v 0.690811 0.898435 0.554702
v 0.295236 0.898440 0.554643
v 0.295236 0.573383 0.725517
v 0.295236 0.898440 0.554643
v 0.295220 0.898440 -0.236979
v 0.295220 0.573383 -0.254923
v 0.295236 0.573383 0.725517
v -0.603937 0.898435 1.536522
v -0.690847 0.898435 1.536522
v -0.690847 0.972884 1.443750
v -0.603937 0.972884 1.443750
v -0.603937 0.573377 1.941581
v -0.690847 0.573377 1.941581
v -0.690847 0.898435 1.536522
v -0.603937 0.898435 1.536522
v -0.603937 0.500000 2.033018
v -0.690847 0.500000 2.033018
v -0.690847 0.573377 1.941581
v -0.603937 0.573377 1.941581
v -0.389482 0.329665 3.040875
v -0.445531 0.329665 3.040875
v -0.690847 0.500000 2.033018
v -0.603937 0.500000 2.033018
v -0.389482 -0.487311 3.040875
v -0.445531 -0.487311 3.040875
v -0.445531 0.329665 3.040875
v -0.389482 0.329665 3.040875
v -0.603937 -0.500000 2.033018
v -0.690847 -0.500000 2.033018
v -0.445531 -0.487311 3.040875
v -0.389482 -0.487311 3.040875
v -0.603937 -0.500000 1.847147
v -0.690847 -0.500000 1.847147
v -0.690847 -0.500000 2.033018
v -0.603937 -0.500000 2.033018
v -0.603938 -0.500000 0.867943
v -0.690847 -0.500000 0.867943
v -0.690847 -0.500000 1.847147
v -0.603937 -0.500000 1.847147
v -0.603939 -0.500000 0.764149
v -0.690847 -0.500000 0.764149
v -0.690847 -0.500000 0.867943
v -0.603938 -0.500000 0.867943
v -0.603939 -0.500000 -0.258915
v -0.690847 -0.500000 -0.258915
v -0.690847 -0.500000 0.764149
v -0.603939 -0.500000 0.764149
v -0.603940 -0.500000 -0.398705
v -0.690847 -0.500000 -0.398705
v -0.690847 -0.500000 -0.258915
v -0.603939 -0.500000 -0.258915
v -0.001039 0.568545 -4.969568
v -0.001180 0.568545 -4.969568
v -0.017215 0.523637 -4.971123
v -0.015057 0.523637 -4.971123
v -0.001039 0.572371 -4.969568
v -0.001180 0.572371 -4.969568
v -0.001180 0.568545 -4.969568
v -0.001039 0.568545 -4.969568
v -0.015057 0.617279 -4.971123
v -0.017215 0.617279 -4.971123
v -0.001180 0.572371 -4.969568
v -0.001039 0.572371 -4.969568
v -0.603940 0.573377 -0.388830
v -0.690847 0.573377 -0.388830
v -0.690847 0.500000 -0.398705
v -0.603940 0.500000 -0.398705
v -0.603940 0.898435 -0.345085
v -0.690847 0.898435 -0.345085
v -0.690847 0.573377 -0.388830
v -0.603940 0.573377 -0.388830
v -0.603940 0.972884 -0.335066
v -0.690847 0.972884 -0.335066
v -0.690847 0.898435 -0.345085
v -0.603940 0.898435 -0.345085
v -0.603939 0.972884 -0.232809
v -0.690847 0.972884 -0.232809
v -0.690847 0.972884 -0.335066
v -0.603940 0.972884 -0.335066
v -0.603939 0.972884 0.515566
v -0.690847 0.972884 0.515566
v -0.690847 0.972884 -0.232809
v -0.603939 0.972884 -0.232809
v -0.603938 0.972884 0.591492
v -0.690847 0.972884 0.591492
v -0.690847 0.972884 0.515566
v -0.603939 0.972884 0.515566
v -0.603937 0.972884 1.307785
v -0.690847 0.972884 1.307785
v -0.690847 0.972884 0.591492
v -0.603938 0.972884 0.591492
v -0.603937 0.972884 1.443750
v -0.690847 0.972884 1.443750
v -0.690847 0.972884 1.307785
v -0.603937 0.972884 1.307785
v 0.550652 0.972884 1.307785
v 0.690828 0.972884 1.307785
v 0.690831 0.972884 1.443750
v 0.550655 0.972884 1.443750
v 0.550638 0.972884 0.591492
v 0.690813 0.972884 0.591492
v 0.690828 0.972884 1.307785
v 0.550652 0.972884 1.307785
v 0.550637 0.972884 0.515566
v 0.690811 0.972884 0.515566
v 0.690813 0.972884 0.591492
v 0.550638 0.972884 0.591492
v 0.550622 0.972884 -0.232809
v 0.690795 0.972884 -0.232809
v 0.690811 0.972884 0.515566
v 0.550637 0.972884 0.515566
v 0.550620 0.972884 -0.335066
v 0.690793 0.972884 -0.335066
v 0.690795 0.972884 -0.232809
v 0.550622 0.972884 -0.232809
v 0.550620 0.898435 -0.345085
v 0.690793 0.898435 -0.345085
v 0.690793 0.972884 -0.335066
v 0.550620 0.972884 -0.335066
v 0.550620 0.573377 -0.388830
v 0.690793 0.573377 -0.388830
v 0.690793 0.898435 -0.345085
v 0.550620 0.898435 -0.345085
v 0.550620 0.500000 -0.398705
v 0.690793 0.500000 -0.398705
v 0.690793 0.573377 -0.388830
v 0.550620 0.573377 -0.388830
v 0.000837 0.572371 -4.969568
v 0.001064 0.572371 -4.969568
v 0.017096 0.617279 -4.971123
v 0.013615 0.617279 -4.971123
v 0.000837 0.568545 -4.969568
v 0.001064 0.568545 -4.969568
v 0.001064 0.572371 -4.969568
v 0.000837 0.572371 -4.969568
v 0.013615 0.523637 -4.971123
v 0.017096 0.523637 -4.971123
v 0.001064 0.568545 -4.969568
v 0.000837 0.568545 -4.969568
v 0.550622 -0.500000 -0.258915
v 0.690795 -0.500000 -0.258915
v 0.690793 -0.500000 -0.398705
v 0.550620 -0.500000 -0.398705
v 0.550637 -0.500000 0.764149
v 0.690811 -0.500000 0.764149
v 0.690795 -0.500000 -0.258915
v 0.550622 -0.500000 -0.258915
v 0.550638 -0.500000 0.867943
v 0.690813 -0.500000 0.867943
v 0.690811 -0.500000 0.764149
v 0.550637 -0.500000 0.764149
v 0.550652 -0.500000 1.847147
v 0.690828 -0.500000 1.847147
v 0.690813 -0.500000 0.867943
v 0.550638 -0.500000 0.867943
v 0.550655 -0.500000 2.033018
v 0.690831 -0.500000 2.033018
v 0.690828 -0.500000 1.847147
v 0.550652 -0.500000 1.847147
v 0.355130 -0.487311 3.040875
v 0.445531 -0.487311 3.040875
v 0.690831 -0.500000 2.033018
v 0.550655 -0.500000 2.033018
v 0.355130 0.329665 3.040875
v 0.445531 0.329665 3.040875
v 0.445531 -0.487311 3.040875
v 0.355130 -0.487311 3.040875
v 0.550655 0.500000 2.033018
v 0.690831 0.500000 2.033018
v 0.445531 0.329665 3.040875
v 0.355130 0.329665 3.040875
v 0.550655 0.573377 1.941581
v 0.690831 0.573377 1.941581
v 0.690831 0.500000 2.033018
v 0.550655 0.500000 2.033018
v 0.550655 0.898435 1.536522
v 0.690831 0.898435 1.536522
v 0.690831 0.573377 1.941581
v 0.550655 0.573377 1.941581
v 0.550655 0.972884 1.443750
v 0.690831 0.972884 1.443750
v 0.690831 0.898435 1.536522
v 0.550655 0.898435 1.536522
v -0.603937 0.573377 1.941581
v -0.603937 0.898435 1.536522
v -0.603937 0.847097 1.494818
v -0.603937 0.522039 1.899877
v 0.550655 0.898435 1.536522
v 0.550655 0.573377 1.941581
v 0.550655 0.522039 1.899877
v 0.550655 0.847097 1.494818
v -0.603940 0.898435 -0.345085
v -0.603940 0.573377 -0.388830
v -0.603940 0.539469 -0.286582
v -0.603940 0.864526 -0.242838
v 0.550620 0.573377 -0.388830
v 0.550620 0.898435 -0.345085
v 0.550620 0.864526 -0.242838
v 0.550620 0.539469 -0.286582
v -0.603942 0.500000 -2.802873
v -0.603940 0.500000 -0.398705
v -0.690847 0.500000 -0.398705
v -0.690847 0.500000 -2.802873
v -0.690847 0.500000 -2.802873
v -0.690847 0.500000 -0.398705
v -0.690847 -0.500000 -0.398705
v -0.690847 -0.500000 -2.802873
v -0.690847 -0.500000 -2.802873
v -0.690847 -0.500000 -0.398705
v -0.603940 -0.500000 -0.398705
v -0.603942 -0.500000 -2.802873
v 0.550586 -0.500000 -2.802873
v 0.550620 -0.500000 -0.398705
v 0.690793 -0.500000 -0.398705
v 0.690754 -0.500000 -2.802873
v 0.690754 -0.500000 -2.802873
v 0.690793 -0.500000 -0.398705
v 0.690793 0.500000 -0.398705
v 0.690754 0.500000 -2.802873
v 0.690754 0.500000 -2.802873
v 0.690793 0.500000 -0.398705
v 0.550620 0.500000 -0.398705
v 0.550586 0.500000 -2.802873
v -0.603943 0.500000 -3.841225
v -0.603942 0.500000 -2.802873
v -0.690847 0.500000 -2.802873
v -0.690847 0.500000 -3.841225
v -0.690847 0.500000 -3.841225
v -0.017215 0.617279 -4.971123
v -0.015057 0.617279 -4.971123
v -0.603943 0.500000 -3.841225
v -0.690847 0.500000 -3.841225
v -0.690847 0.500000 -2.802873
v -0.690847 -0.500000 -2.802873
v -0.690847 -0.500000 -3.841225
v -0.690847 -0.500000 -3.841225
v -0.017215 0.523637 -4.971123
v -0.017215 0.617279 -4.971123
v -0.690847 0.500000 -3.841225
v -0.690847 -0.500000 -3.841225
v -0.690847 -0.500000 -2.802873
v -0.603942 -0.500000 -2.802873
v -0.603943 -0.500000 -3.841225
v -0.603943 -0.500000 -3.841225
v -0.015057 0.523637 -4.971123
v -0.017215 0.523637 -4.971123
v -0.690847 -0.500000 -3.841225
v 0.550572 -0.500000 -3.841225
v 0.550586 -0.500000 -2.802873
v 0.690754 -0.500000 -2.802873
v 0.690738 -0.500000 -3.841225
v 0.690738 -0.500000 -3.841225
v 0.017096 0.523637 -4.971123
v 0.013615 0.523637 -4.971123
v 0.550572 -0.500000 -3.841225
v 0.690738 -0.500000 -3.841225
v 0.690754 -0.500000 -2.802873
v 0.690754 0.500000 -2.802873
v 0.690738 0.500000 -3.841225
v 0.690738 0.500000 -3.841225
v 0.017096 0.617279 -4.971123
v 0.017096 0.523637 -4.971123
v 0.690738 -0.500000 -3.841225
v 0.690738 0.500000 -3.841225
v 0.690754 0.500000 -2.802873
v 0.550586 0.500000 -2.802873
v 0.550572 0.500000 -3.841225
v 0.550572 0.500000 -3.841225
v 0.013615 0.617279 -4.971123
v 0.017096 0.617279 -4.971123
v 0.690738 0.500000 -3.841225
v -0.250919 0.454538 -4.109545
v -0.603943 0.500000 -3.841225
v -0.015057 0.617279 -4.971123
v -0.006290 0.617279 -4.971123
v -0.006290 0.617279 -4.971123
v -0.015057 0.617279 -4.971123
v -0.001039 0.572371 -4.969568
v -0.000466 0.572371 -4.969568
v -0.000466 0.572371 -4.969568
v -0.001039 0.572371 -4.969568
v -0.001039 0.568545 -4.969568
v -0.000466 0.568545 -4.969568
v -0.000466 0.568545 -4.969568
v -0.001039 0.568545 -4.969568
v -0.015057 0.523637 -4.971123
v -0.006290 0.523637 -4.971123
v -0.006290 0.523637 -4.971123
v -0.015057 0.523637 -4.971123
v -0.603943 -0.500000 -3.841225
v -0.250919 -0.500000 -3.841225
v -0.250919 -0.500000 -3.841225
v -0.603943 -0.500000 -3.841225
v -0.603942 -0.500000 -2.802873
v -0.250914 -0.500000 -2.802873
v -0.250914 -0.500000 -2.802873
v -0.603942 -0.500000 -2.802873
v -0.603940 -0.500000 -0.398705
v -0.250902 -0.500000 -0.398705
v -0.250902 -0.500000 -0.398705
v -0.603940 -0.500000 -0.398705
v -0.603939 -0.500000 -0.258915
v -0.250901 -0.500000 -0.258915
v -0.250901 -0.500000 -0.258915
v -0.603939 -0.500000 -0.258915
v -0.603939 -0.500000 0.764149
v -0.250896 -0.500000 0.764149
v -0.250896 -0.500000 0.764149
v -0.603939 -0.500000 0.764149
v -0.603938 -0.500000 0.867943
v -0.250895 -0.500000 0.867943
v -0.250895 -0.500000 0.867943
v -0.603938 -0.500000 0.867943
v -0.603937 -0.500000 1.847147
v -0.250890 -0.500000 1.847147
v -0.250890 -0.500000 1.847147
v -0.603937 -0.500000 1.847147
v -0.603937 -0.500000 2.033018
v -0.250890 -0.500000 2.033018
v -0.250890 -0.500000 2.033018
v -0.603937 -0.500000 2.033018
v -0.389482 -0.487311 3.040875
v -0.161797 -0.487311 3.040875
v -0.161797 -0.487311 3.040875
v -0.389482 -0.487311 3.040875
v -0.389482 0.329665 3.040875
v -0.161797 0.329665 3.040875
v -0.161797 0.329665 3.040875
v -0.389482 0.329665 3.040875
v -0.603937 0.500000 2.033018
v -0.250890 0.500000 2.033018
v -0.250890 0.500000 2.033018
v -0.603937 0.500000 2.033018
v -0.603937 0.573377 1.941581
v -0.250890 0.573377 1.941581
v -0.250890 0.573377 1.941581
v -0.603937 0.573377 1.941581
v -0.603937 0.522039 1.899877
v -0.250890 0.522039 1.899877
v -0.250890 0.522039 1.899877
v -0.603937 0.522039 1.899877
v -0.603937 0.847097 1.494818
v -0.250890 0.847097 1.494818
v -0.250890 0.847097 1.494818
v -0.603937 0.847097 1.494818
v -0.603937 0.898435 1.536522
v -0.250890 0.898435 1.536522
v -0.250890 0.898435 1.536522
v -0.603937 0.898435 1.536522
v -0.603937 0.972884 1.443750
v -0.250890 0.972884 1.443750
v -0.250890 0.972884 1.443750
v -0.603937 0.972884 1.443750
v -0.603937 0.972884 1.307785
v -0.250890 0.972884 1.307785
v -0.250890 0.972884 1.307785
v -0.603937 0.972884 1.307785
v -0.603938 0.972884 0.591492
v -0.250895 0.972884 0.591492
v -0.250895 0.972884 0.591492
v -0.603938 0.972884 0.591492
v -0.603939 0.972884 0.515566
v -0.250896 0.972884 0.515566
v -0.250896 0.972884 0.515566
v -0.603939 0.972884 0.515566
v -0.603939 0.972884 -0.232809
v -0.250901 0.972884 -0.232809
v -0.250901 0.972884 -0.232809
v -0.603939 0.972884 -0.232809
v -0.603940 0.972884 -0.335066
v -0.250902 0.972884 -0.335066
v -0.250902 0.972884 -0.335066
v -0.603940 0.972884 -0.335066
v -0.603940 0.898435 -0.345085
v -0.250902 0.898435 -0.345085
v -0.250902 0.898435 -0.345085
v -0.603940 0.898435 -0.345085
v -0.603940 0.864526 -0.242838
v -0.250902 0.864526 -0.242838
v -0.250902 0.864526 -0.242838
v -0.603940 0.864526 -0.242838
v -0.603940 0.539469 -0.286582
v -0.250902 0.539469 -0.286582
v -0.250902 0.539469 -0.286582
v -0.603940 0.539469 -0.286582
v -0.603940 0.573377 -0.388830
v -0.250902 0.573377 -0.388830
v -0.250902 0.573377 -0.388830
v -0.603940 0.573377 -0.388830
v -0.603940 0.500000 -0.398705
v -0.250902 0.500000 -0.398705
v -0.250902 0.500000 -0.398705
v -0.603940 0.500000 -0.398705
v -0.603942 0.500000 -2.802873
v -0.250914 0.500000 -2.802873
v -0.250914 0.500000 -2.802873
v -0.603942 0.500000 -2.802873
v -0.603943 0.500000 -3.841225
v -0.250919 0.454538 -4.109545
v 0.029634 0.454538 -4.109545
v -0.250919 0.454538 -4.109545
v -0.006290 0.617279 -4.971123
v 0.000678 0.617279 -4.971123
v 0.000678 0.617279 -4.971123
v 0.013615 0.617279 -4.971123
v 0.550572 0.500000 -3.841225
v 0.029634 0.454538 -4.109545
v 0.000678 0.617279 -4.971123
v -0.006290 0.617279 -4.971123
v -0.000466 0.572371 -4.969568
v -0.000010 0.572371 -4.969568
v -0.000010 0.572371 -4.969568
v 0.000837 0.572371 -4.969568
v 0.013615 0.617279 -4.971123
v 0.000678 0.617279 -4.971123
v -0.000010 0.572371 -4.969568
v -0.000466 0.572371 -4.969568
v -0.000466 0.568545 -4.969568
v -0.000010 0.568545 -4.969568
v -0.000010 0.568545 -4.969568
v 0.000837 0.568545 -4.969568
v 0.000837 0.572371 -4.969568
v -0.000010 0.572371 -4.969568
v -0.000010 0.568545 -4.969568
v -0.000466 0.568545 -4.969568
v -0.006290 0.523637 -4.971123
v 0.000678 0.523637 -4.971123
v 0.000678 0.523637 -4.971123
v 0.013615 0.523637 -4.971123
v 0.000837 0.568545 -4.969568
v -0.000010 0.568545 -4.969568
v 0.000678 0.523637 -4.971123
v -0.006290 0.523637 -4.971123
v -0.250919 -0.500000 -3.841225
v 0.029634 -0.500000 -3.841225
v 0.029634 -0.500000 -3.841225
v 0.550572 -0.500000 -3.841225
v 0.013615 0.523637 -4.971123
v 0.000678 0.523637 -4.971123
v 0.029634 -0.500000 -3.841225
v -0.250919 -0.500000 -3.841225
v -0.250914 -0.500000 -2.802873
v 0.029643 -0.500000 -2.802873
v 0.029643 -0.500000 -2.802873
v 0.550586 -0.500000 -2.802873
v 0.550572 -0.500000 -3.841225
v 0.029634 -0.500000 -3.841225
v 0.029643 -0.500000 -2.802873
v -0.250914 -0.500000 -2.802873
v -0.250902 -0.500000 -0.398705
v 0.029662 -0.500000 -0.398705
v 0.029662 -0.500000 -0.398705
v 0.550620 -0.500000 -0.398705
v 0.550586 -0.500000 -2.802873
v 0.029643 -0.500000 -2.802873
v 0.029662 -0.500000 -0.398705
v -0.250902 -0.500000 -0.398705
v -0.250901 -0.500000 -0.258915
v 0.029664 -0.500000 -0.258915
v 0.029664 -0.500000 -0.258915
v 0.550622 -0.500000 -0.258915
v 0.550620 -0.500000 -0.398705
v 0.029662 -0.500000 -0.398705
v 0.029664 -0.500000 -0.258915
v -0.250901 -0.500000 -0.258915
v -0.250896 -0.500000 0.764149
v 0.029672 -0.500000 0.764149
v 0.029672 -0.500000 0.764149
v 0.550637 -0.500000 0.764149
v 0.550622 -0.500000 -0.258915
v 0.029664 -0.500000 -0.258915
v 0.029672 -0.500000 0.764149
v -0.250896 -0.500000 0.764149
v -0.250895 -0.500000 0.867943
v 0.029673 -0.500000 0.867943
v 0.029673 -0.500000 0.867943
v 0.550638 -0.500000 0.867943
v 0.550637 -0.500000 0.764149
v 0.029672 -0.500000 0.764149
v 0.029673 -0.500000 0.867943
v -0.250895 -0.500000 0.867943
v -0.250890 -0.500000 1.847147
v 0.029681 -0.500000 1.847147
v 0.029681 -0.500000 1.847147
v 0.550652 -0.500000 1.847147
v 0.550638 -0.500000 0.867943
v 0.029673 -0.500000 0.867943
v 0.029681 -0.500000 1.847147
v -0.250890 -0.500000 1.847147
v -0.250890 -0.500000 2.033018
v 0.029682 -0.500000 2.033018
v 0.029682 -0.500000 2.033018
v 0.550655 -0.500000 2.033018
v 0.550652 -0.500000 1.847147
v 0.029681 -0.500000 1.847147
v 0.029682 -0.500000 2.033018
v -0.250890 -0.500000 2.033018
v -0.161797 -0.487311 3.040875
v 0.019148 -0.487311 3.040875
v 0.019148 -0.487311 3.040875
v 0.355130 -0.487311 3.040875
v 0.550655 -0.500000 2.033018
v 0.029682 -0.500000 2.033018
v 0.019148 -0.487311 3.040875
v -0.161797 -0.487311 3.040875
v -0.161797 0.329665 3.040875
v 0.019148 0.329665 3.040875
v 0.019148 0.329665 3.040875
v 0.355130 0.329665 3.040875
v 0.355130 -0.487311 3.040875
v 0.019148 -0.487311 3.040875
v 0.019148 0.329665 3.040875
v -0.161797 0.329665 3.040875
v -0.250890 0.500000 2.033018
v 0.029682 0.500000 2.033018
v 0.029682 0.500000 2.033018
v 0.550655 0.500000 2.033018
v 0.355130 0.329665 3.040875
v 0.019148 0.329665 3.040875
v 0.029682 0.500000 2.033018
v -0.250890 0.500000 2.033018
v -0.250890 0.573377 1.941581
v 0.029682 0.573377 1.941581
v 0.029682 0.573377 1.941581
v 0.550655 0.573377 1.941581
v 0.550655 0.500000 2.033018
v 0.029682 0.500000 2.033018
v 0.029682 0.573377 1.941581
v -0.250890 0.573377 1.941581
v -0.250890 0.522039 1.899877
v 0.029682 0.522039 1.899877
v 0.029682 0.522039 1.899877
v 0.550655 0.522039 1.899877
v 0.550655 0.573377 1.941581
v 0.029682 0.573377 1.941581
v 0.029682 0.522039 1.899877
v -0.250890 0.522039 1.899877
v -0.250890 0.847097 1.494818
v 0.029682 0.847097 1.494818
v 0.029682 0.847097 1.494818
v 0.550655 0.847097 1.494818
v 0.550655 0.522039 1.899877
v 0.029682 0.522039 1.899877
v 0.029682 0.847097 1.494818
v -0.250890 0.847097 1.494818
v -0.250890 0.898435 1.536522
v 0.029682 0.898435 1.536522
v 0.029682 0.898435 1.536522
v 0.550655 0.898435 1.536522
v 0.550655 0.847097 1.494818
v 0.029682 0.847097 1.494818
v 0.029682 0.898435 1.536522
v -0.250890 0.898435 1.536522
v -0.250890 0.972884 1.443750
v 0.029682 0.972884 1.443750
v 0.029682 0.972884 1.443750
v 0.550655 0.972884 1.443750
v 0.550655 0.898435 1.536522
v 0.029682 0.898435 1.536522
v 0.029682 0.972884 1.443750
v -0.250890 0.972884 1.443750
v -0.250890 0.972884 1.307785
v 0.029681 0.972884 1.307785
v 0.029681 0.972884 1.307785
v 0.550652 0.972884 1.307785
v 0.550655 0.972884 1.443750
v 0.029682 0.972884 1.443750
v 0.029681 0.972884 1.307785
v -0.250890 0.972884 1.307785
v -0.250895 0.972884 0.591492
v 0.029673 0.972884 0.591492
v 0.029673 0.972884 0.591492
v 0.550638 0.972884 0.591492
v 0.550652 0.972884 1.307785
v 0.029681 0.972884 1.307785
v 0.029673 0.972884 0.591492
v -0.250895 0.972884 0.591492
v -0.250896 0.972884 0.515566
v 0.029672 0.972884 0.515566
v 0.029672 0.972884 0.515566
v 0.550637 0.972884 0.515566
v 0.550638 0.972884 0.591492
v 0.029673 0.972884 0.591492
v 0.029672 0.972884 0.515566
v -0.250896 0.972884 0.515566
v -0.250901 0.972884 -0.232809
v 0.029664 0.972884 -0.232809
v 0.029664 0.972884 -0.232809
v 0.550622 0.972884 -0.232809
v 0.550637 0.972884 0.515566
v 0.029672 0.972884 0.515566
v 0.029664 0.972884 -0.232809
v -0.250901 0.972884 -0.232809
v -0.250902 0.972884 -0.335066
v 0.029662 0.972884 -0.335066
v 0.029662 0.972884 -0.335066
v 0.550620 0.972884 -0.335066
v 0.550622 0.972884 -0.232809
v 0.029664 0.972884 -0.232809
v 0.029662 0.972884 -0.335066
v -0.250902 0.972884 -0.335066
v -0.250902 0.898435 -0.345085
v 0.029662 0.898435 -0.345085
v 0.029662 0.898435 -0.345085
v 0.550620 0.898435 -0.345085
v 0.550620 0.972884 -0.335066
v 0.029662 0.972884 -0.335066
v 0.029662 0.898435 -0.345085
v -0.250902 0.898435 -0.345085
v -0.250902 0.864526 -0.242838
v 0.029662 0.864526 -0.242838
v 0.029662 0.864526 -0.242838
v 0.550620 0.864526 -0.242838
v 0.550620 0.898435 -0.345085
v 0.029662 0.898435 -0.345085
v 0.029662 0.864526 -0.242838
v -0.250902 0.864526 -0.242838
v -0.250902 0.539469 -0.286582
v 0.029662 0.539469 -0.286582
v 0.029662 0.539469 -0.286582
v 0.550620 0.539469 -0.286582
v 0.550620 0.864526 -0.242838
v 0.029662 0.864526 -0.242838
v 0.029662 0.539469 -0.286582
v -0.250902 0.539469 -0.286582
v -0.250902 0.573377 -0.388830
v 0.029662 0.573377 -0.388830
v 0.029662 0.573377 -0.388830
v 0.550620 0.573377 -0.388830
v 0.550620 0.539469 -0.286582
v 0.029662 0.539469 -0.286582
v 0.029662 0.573377 -0.388830
v -0.250902 0.573377 -0.388830
v -0.250902 0.500000 -0.398705
v 0.029662 0.500000 -0.398705
v 0.029662 0.500000 -0.398705
v 0.550620 0.500000 -0.398705
v 0.550620 0.573377 -0.388830
v 0.029662 0.573377 -0.388830
v 0.029662 0.500000 -0.398705
v -0.250902 0.500000 -0.398705
v -0.250914 0.500000 -2.802873
v 0.029643 0.500000 -2.802873
v 0.029643 0.500000 -2.802873
v 0.550586 0.500000 -2.802873
v 0.550620 0.500000 -0.398705
v 0.029662 0.500000 -0.398705
v 0.029634 0.454538 -4.109545
v 0.550572 0.500000 -3.841225
v 0.550586 0.500000 -2.802873
v 0.029643 0.500000 -2.802873
v 0.029643 0.500000 -2.802873
v -0.250914 0.500000 -2.802873
v -0.120166 1.400580 -4.078045
v -0.101110 1.400580 -4.078045
v -0.250914 0.500000 -2.802873
v -0.250919 0.454538 -4.109545
v -0.120166 1.355119 -4.367046
v -0.120166 1.400580 -4.078045
v -0.250919 0.454538 -4.109545
v 0.029634 0.454538 -4.109545
v -0.101111 1.355119 -4.367046
v -0.120166 1.355119 -4.367046
v 0.029634 0.454538 -4.109545
v 0.029643 0.500000 -2.802873
v -0.101110 1.400580 -4.078045
v -0.101111 1.355119 -4.367046
v -0.101110 1.400580 -4.078045
v -0.120166 1.400580 -4.078045
v -0.120166 1.355119 -4.367046
v -0.101111 1.355119 -4.367046
vn 0.0059 0.0015 -1.0000
vn -0.0698 -0.0355 -0.9969
vn 0.0089 -0.0023 -1.0000
vn 0.0060 -0.0015 -1.0000
vn -0.0060 -0.0015 -1.0000
vn 0.0932 -0.0016 -0.9957
vn 0.0699 -0.0355 -0.9969
vn -0.0059 0.0015 -1.0000
vn -0.3176 -0.0000 0.9482
vn -0.6023 -0.0000 0.7982
vn -0.6023 0.0077 0.7982
vn 0.3176 -0.0000 0.9482
vn 0.6023 -0.0000 0.7982
vn 1.0000 -0.0000 -0.0000
vn -1.0000 -0.0000 -0.0000
vn -0.0000 1.0000 -0.0000
vn -0.0000 -0.0074 1.0000
vn -0.0000 -1.0000 -0.0000
vn -0.0000 -0.0697 -0.9976
vn -0.0000 -0.1499 -0.9887
vn -0.0000 0.0775 0.9970
vn 0.0001 -0.1499 -0.9887
vn -0.0001 0.0775 0.9970
vn -0.0001 -0.0074 1.0000
vn 0.0001 -0.0697 -0.9976
vn -0.0000 0.1634 0.9866
vn -0.0000 0.4035 0.9150
vn -0.0002 0.4035 0.9150
vn -0.0000 0.3272 0.9450
vn -0.0000 0.3271 0.9450
vn -0.0000 -0.0000 1.0000
vn -0.0000 -0.9955 0.0943
vn -0.0000 -0.9989 0.0472
vn -0.0699 -0.0355 -0.9969
vn -0.0000 0.0023 -1.0000
vn -0.0000 -0.0704 -0.9975
vn 0.0059 -0.0015 -1.0000
vn -0.0000 -0.0023 -1.0000
vn -0.0000 -0.0046 -1.0000
vn -0.0000 0.0179 -0.9998
vn -0.0000 -0.0808 -0.9967
vn 0.0931 -0.0016 -0.9957
vn -0.0059 -0.0016 -1.0000
vn -0.0059 -0.0015 -1.0000
vn -0.0000 0.6182 0.7860
vn -0.0001 0.4035 0.9150
vn 0.0197 0.9993 -0.0319
vn -0.0134 0.9994 -0.0320
vn 0.0500 0.9298 0.3647
vn -0.0000 0.9456 0.3254
vn 0.0512 0.6835 0.7281
vn -0.0000 0.7882 0.6154
vn 0.0501 0.9298 0.3647
vn -0.2944 -0.0000 -0.9557
vn -0.0699 -0.0356 -0.9969
vn -0.0000 -0.1452 -0.9894
vn 0.0932 -0.0015 -0.9956
vn 0.2944 -0.0000 -0.9557
vn -0.0268 0.9976 -0.0639
vn -0.0369 0.7130 0.7002
vn -0.0368 0.7131 0.7001
vn 0.0513 0.6835 0.7281
vn 0.0501 0.9297 0.3648
vn 0.0506 0.5690 0.8208
vn 0.0507 0.5690 0.8208
vn -0.0000 -0.0705 -0.9975
vn 0.0001 0.4035 0.9150
vn 0.0002 0.1074 -0.9942
vn -0.0000 0.1074 -0.9942
vn -0.0000 0.0282 0.9996
vn -0.0000 -0.1074 0.9942
vn -0.0000 0.0283 0.9996
vn -0.0000 -0.1806 -0.9836
vn -0.0000 -0.3720 -0.9282
vn -0.0000 -0.1807 -0.9835
vn -0.0000 0.3720 0.9282
vn 0.0263 0.9987 -0.0426
vn 0.0786 0.9887 -0.1274
vn -0.0366 0.6024 0.7973
vn -0.0369 0.7131 0.7001
vn -0.0001 -0.0705 -0.9975
vn -0.0004 -0.9989 0.0472
vn -0.0001 0.3272 0.9450
vn -0.0086 0.4035 0.9149
vn -0.0000 0.3721 0.9282
vn -0.0179 0.9989 -0.0426
vn -0.0535 0.9904 -0.1275
vn -0.0000 0.1849 0.9828
vn -0.9930 0.0970 -0.0679
vn -0.0000 -0.0380 -0.9993
vn 0.9930 0.0970 -0.0680
vn 0.9930 0.0970 -0.0679
vn -0.0000 0.6454 -0.7638
vt 0.750000 0.250000
vt 0.515000 0.985000
vt 0.515000 0.515000
vt 0.544564 0.515000
vt 0.544564 0.985000
vt 0.985000 0.515000
vt 0.985000 0.985000
vt 0.937317 0.985000
vt 0.937317 0.515000
vt 0.664659 0.515000
vt 0.664659 0.985000
vt 0.760100 0.515000
vt 0.760100 0.985000
s 1
usemtl Avion_Cara_y_Logos
f 3/1/1 2/1/2 1/1/3
f 3/1/1 1/1/3 4/1/4
f 7/1/5 6/1/6 5/1/7
f 7/1/5 5/1/7 8/1/8
f 11/1/9 10/1/10 9/1/10
f 11/1/9 9/1/10 12/1/11
f 15/1/12 14/1/13 13/1/13
f 15/1/12 13/1/13 16/1/13
f 19/1/14 18/1/14 17/1/14
f 19/1/14 17/1/14 20/1/14
f 23/1/14 22/1/14 21/1/14
f 23/1/14 21/1/14 24/1/14
f 27/1/14 26/1/14 25/1/14
f 27/1/14 25/1/14 28/1/14
f 31/1/14 30/1/14 29/1/14
f 31/1/14 29/1/14 32/1/14
f 35/1/15 34/1/15 33/1/15
f 35/1/15 33/1/15 36/1/15
f 39/1/15 38/1/15 37/1/15
f 39/1/15 37/1/15 40/1/15
f 43/1/15 42/1/15 41/1/15
f 43/1/15 41/1/15 44/1/15
f 47/1/15 46/1/15 45/1/15
f 47/1/15 45/1/15 48/1/15
f 51/1/15 50/1/15 49/1/15
f 51/1/15 49/1/15 52/1/15
f 55/1/14 54/1/14 53/1/14
f 55/1/14 53/1/14 56/1/14
f 59/1/14 58/1/14 57/1/14
f 59/1/14 57/1/14 60/1/14
f 63/1/14 62/1/14 61/1/14
f 63/1/14 61/1/14 64/1/14
f 67/1/14 66/1/14 65/1/14
f 67/1/14 65/1/14 68/1/14
f 71/1/15 70/1/15 69/1/15
f 71/1/15 69/1/15 72/1/15
f 75/1/15 74/1/15 73/1/15
f 75/1/15 73/1/15 76/1/15
f 79/1/15 78/1/15 77/1/15
f 79/1/15 77/1/15 80/1/15
f 83/1/15 82/1/15 81/1/15
f 83/1/15 81/1/15 84/1/15
f 87/1/14 86/1/14 85/1/14
f 87/1/14 85/1/14 88/1/14
f 91/1/14 90/1/14 89/1/14
f 91/1/14 89/1/14 92/1/14
f 95/1/14 94/1/14 93/1/14
f 95/1/14 93/1/14 96/1/14
f 99/1/15 98/1/15 97/1/15
f 99/1/15 97/1/15 100/1/15
f 103/1/15 102/1/15 101/1/15
f 103/1/15 101/1/15 104/1/15
f 107/1/15 106/1/15 105/1/15
f 107/1/15 105/1/15 108/1/15
f 111/1/15 110/1/15 109/1/15
f 111/1/15 109/1/15 112/1/15
f 115/1/15 114/1/15 113/1/15
f 115/1/15 113/1/15 116/1/15
f 119/1/15 118/1/15 117/1/15
f 119/1/15 117/1/15 120/1/15
f 123/1/15 122/1/15 121/1/15
f 123/1/15 121/1/15 124/1/15
f 127/1/15 126/1/15 125/1/15
f 127/1/15 125/1/15 128/1/15
f 131/1/15 130/1/15 129/1/15
f 131/1/15 129/1/15 132/1/15
f 135/1/14 134/1/14 133/1/14
f 135/1/14 133/1/14 136/1/14
f 139/1/14 138/1/14 137/1/14
f 139/1/14 137/1/14 140/1/14
f 143/1/14 142/1/14 141/1/14
f 143/1/14 141/1/14 144/1/14
f 147/1/14 146/1/14 145/1/14
f 147/1/14 145/1/14 148/1/14
f 151/1/14 150/1/14 149/1/14
f 151/1/14 149/1/14 152/1/14
f 155/1/14 154/1/14 153/1/14
f 155/1/14 153/1/14 156/1/14
f 159/1/14 158/1/14 157/1/14
f 159/1/14 157/1/14 160/1/14
f 163/1/16 162/1/16 161/1/16
f 163/1/16 161/1/16 164/1/16
f 167/1/17 166/1/17 165/1/17
f 167/1/17 165/1/17 168/1/17
f 171/1/18 170/1/18 169/1/18
f 171/1/18 169/1/18 172/1/18
f 175/1/19 174/1/19 173/1/19
f 175/1/19 173/1/19 176/1/19
f 179/1/15 178/1/15 177/1/15
f 179/1/15 177/1/15 180/1/15
f 183/1/18 182/1/18 181/1/18
f 183/1/18 181/1/18 184/1/18
f 187/1/20 186/1/20 185/1/20
f 187/1/20 185/1/20 188/1/20
f 191/1/16 190/1/16 189/1/16
f 191/1/16 189/1/16 192/1/16
f 195/1/21 194/1/21 193/1/21
f 195/1/21 193/1/21 196/1/21
f 199/1/15 198/1/15 197/1/15
f 199/1/15 197/1/15 200/1/15
f 203/1/16 202/1/16 201/1/16
f 203/1/16 201/1/16 204/1/16
f 207/1/22 206/1/22 205/1/20
f 207/1/22 205/1/20 208/1/22
f 211/1/18 210/1/18 209/1/18
f 211/1/18 209/1/18 212/1/18
f 215/1/23 214/1/23 213/1/21
f 215/1/23 213/1/21 216/1/23
f 219/1/14 218/1/14 217/1/14
f 219/1/14 217/1/14 220/1/14
f 223/1/18 222/1/18 221/1/18
f 223/1/18 221/1/18 224/1/18
f 227/1/17 226/1/24 225/1/17
f 227/1/17 225/1/17 228/1/17
f 231/1/16 230/1/16 229/1/16
f 231/1/16 229/1/16 232/1/16
f 235/1/19 234/1/25 233/1/19
f 235/1/19 233/1/19 236/1/25
f 239/1/14 238/1/14 237/1/14
f 239/1/14 237/1/14 240/1/14
f 243/1/26 242/1/26 241/1/26
f 243/1/26 241/1/26 244/1/26
f 247/1/26 246/1/26 245/1/26
f 247/1/26 245/1/26 248/1/26
f 251/1/26 250/1/27 249/1/28
f 251/1/26 249/1/28 252/1/26
f 255/1/27 254/1/29 253/1/29
f 255/1/27 253/1/29 256/1/27
f 259/2/30 258/3/9 257/4/31
f 259/2/30 257/4/31 260/5/30
f 263/1/32 262/1/33 261/1/33
f 263/1/32 261/1/33 264/1/32
f 267/1/33 266/1/18 265/1/18
f 267/1/33 265/1/18 268/1/33
f 271/1/18 270/1/18 269/1/18
f 271/1/18 269/1/18 272/1/18
f 275/1/18 274/1/18 273/1/18
f 275/1/18 273/1/18 276/1/18
f 279/1/18 278/1/18 277/1/18
f 279/1/18 277/1/18 280/1/18
f 283/1/18 282/1/18 281/1/18
f 283/1/18 281/1/18 284/1/18
f 287/1/34 286/1/1 285/1/35
f 287/1/34 285/1/35 288/1/36
f 291/1/1 290/1/37 289/1/38
f 291/1/1 289/1/38 292/1/35
f 295/1/37 294/1/3 293/1/39
f 295/1/37 293/1/39 296/1/38
f 299/1/40 298/1/40 297/1/40
f 299/1/40 297/1/40 300/1/40
f 303/1/40 302/1/40 301/1/40
f 303/1/40 301/1/40 304/1/40
f 307/1/40 306/1/40 305/1/40
f 307/1/40 305/1/40 308/1/40
f 311/1/16 310/1/16 309/1/16
f 311/1/16 309/1/16 312/1/16
f 315/1/16 314/1/16 313/1/16
f 315/1/16 313/1/16 316/1/16
f 319/1/16 318/1/16 317/1/16
f 319/1/16 317/1/16 320/1/16
f 323/1/16 322/1/16 321/1/16
f 323/1/16 321/1/16 324/1/16
f 327/1/16 326/1/16 325/1/16
f 327/1/16 325/1/16 328/1/16
f 331/1/16 330/1/16 329/1/16
f 331/1/16 329/1/16 332/1/16
f 335/1/16 334/1/16 333/1/16
f 335/1/16 333/1/16 336/1/16
f 339/1/16 338/1/16 337/1/16
f 339/1/16 337/1/16 340/1/16
f 343/1/16 342/1/16 341/1/16
f 343/1/16 341/1/16 344/1/16
f 347/1/16 346/1/16 345/1/16
f 347/1/16 345/1/16 348/1/16
f 351/1/40 350/1/40 349/1/41
f 351/1/40 349/1/41 352/1/40
f 355/1/40 354/1/40 353/1/40
f 355/1/40 353/1/40 356/1/41
f 359/1/40 358/1/40 357/1/40
f 359/1/40 357/1/40 360/1/40
f 363/1/42 362/1/43 361/1/38
f 363/1/42 361/1/38 364/1/39
f 367/1/44 366/1/8 365/1/35
f 367/1/44 365/1/35 368/1/38
f 371/1/8 370/1/7 369/1/36
f 371/1/8 369/1/36 372/1/35
f 375/1/18 374/1/18 373/1/18
f 375/1/18 373/1/18 376/1/18
f 379/1/18 378/1/18 377/1/18
f 379/1/18 377/1/18 380/1/18
f 383/1/18 382/1/18 381/1/18
f 383/1/18 381/1/18 384/1/18
f 387/1/18 386/1/18 385/1/18
f 387/1/18 385/1/18 388/1/18
f 391/1/18 390/1/33 389/1/33
f 391/1/18 389/1/33 392/1/18
f 395/1/33 394/1/32 393/1/32
f 395/1/33 393/1/32 396/1/33
f 399/6/31 398/7/12 397/8/30
f 399/6/31 397/8/30 400/9/31
f 403/1/45 402/1/27 401/1/46
f 403/1/45 401/1/46 404/1/29
f 407/1/27 406/1/26 405/1/26
f 407/1/27 405/1/26 408/1/27
f 411/1/26 410/1/26 409/1/26
f 411/1/26 409/1/26 412/1/26
f 415/1/26 414/1/26 413/1/26
f 415/1/26 413/1/26 416/1/26
f 419/1/14 418/1/14 417/1/14
f 419/1/14 417/1/14 420/1/14
f 423/1/15 422/1/15 421/1/15
f 423/1/15 421/1/15 424/1/15
f 427/1/14 426/1/14 425/1/14
f 427/1/14 425/1/14 428/1/14
f 431/1/15 430/1/15 429/1/15
f 431/1/15 429/1/15 432/1/15
f 435/1/16 434/1/16 433/1/47
f 435/1/16 433/1/47 436/1/16
f 439/1/15 438/1/15 437/1/15
f 439/1/15 437/1/15 440/1/15
f 443/1/18 442/1/18 441/1/18
f 443/1/18 441/1/18 444/1/18
f 447/1/18 446/1/18 445/1/18
f 447/1/18 445/1/18 448/1/18
f 451/1/14 450/1/14 449/1/14
f 451/1/14 449/1/14 452/1/14
f 455/1/16 454/1/16 453/1/16
f 455/1/16 453/1/16 456/1/48
f 459/1/16 458/1/47 457/1/49
f 459/1/16 457/1/49 460/1/50
f 463/1/51 462/1/52 461/1/50
f 463/1/51 461/1/50 464/1/53
f 467/1/15 466/1/15 465/1/15
f 467/1/15 465/1/15 468/1/15
f 471/1/54 470/1/55 469/1/54
f 471/1/54 469/1/54 472/1/54
f 475/1/18 474/1/18 473/1/18
f 475/1/18 473/1/18 476/1/18
f 479/1/34 478/1/36 477/1/56
f 479/1/34 477/1/56 480/1/56
f 483/1/18 482/1/18 481/1/18
f 483/1/18 481/1/18 484/1/18
f 487/1/36 486/1/7 485/1/56
f 487/1/36 485/1/56 488/1/56
f 491/1/14 490/1/14 489/1/14
f 491/1/14 489/1/14 492/1/14
f 495/1/7 494/1/57 493/1/58
f 495/1/7 493/1/58 496/1/58
f 499/1/48 498/1/16 497/1/50
f 499/1/48 497/1/50 500/1/59
f 503/1/52 502/1/60 501/1/61
f 503/1/52 501/1/61 504/1/50
f 507/1/62 506/1/63 505/1/64
f 507/1/62 505/1/64 508/1/65
f 511/1/38 510/1/39 509/1/39
f 511/1/38 509/1/39 512/1/38
f 515/1/35 514/1/38 513/1/38
f 515/1/35 513/1/38 516/1/35
f 519/1/36 518/1/35 517/1/35
f 519/1/36 517/1/35 520/1/36
f 523/1/56 522/1/66 521/1/66
f 523/1/56 521/1/66 524/1/56
f 527/1/18 526/1/18 525/1/18
f 527/1/18 525/1/18 528/1/18
f 531/1/18 530/1/18 529/1/18
f 531/1/18 529/1/18 532/1/18
f 535/1/18 534/1/18 533/1/18
f 535/1/18 533/1/18 536/1/18
f 539/1/18 538/1/18 537/1/18
f 539/1/18 537/1/18 540/1/18
f 543/1/18 542/1/18 541/1/18
f 543/1/18 541/1/18 544/1/18
f 547/1/18 546/1/18 545/1/18
f 547/1/18 545/1/18 548/1/18
f 551/1/33 550/1/18 549/1/18
f 551/1/33 549/1/18 552/1/33
f 555/1/32 554/1/33 553/1/33
f 555/1/32 553/1/33 556/1/32
f 559/5/30 558/4/31 557/10/31
f 559/5/30 557/10/31 560/11/30
f 563/1/67 562/1/29 561/1/29
f 563/1/67 561/1/29 564/1/27
f 567/1/26 566/1/27 565/1/27
f 567/1/26 565/1/27 568/1/26
f 571/1/68 570/1/69 569/1/69
f 571/1/68 569/1/69 572/1/69
f 575/1/26 574/1/26 573/1/26
f 575/1/26 573/1/26 576/1/70
f 579/1/71 578/1/71 577/1/72
f 579/1/71 577/1/72 580/1/72
f 583/1/26 582/1/26 581/1/70
f 583/1/26 581/1/70 584/1/26
f 587/1/16 586/1/16 585/1/16
f 587/1/16 585/1/16 588/1/16
f 591/1/16 590/1/16 589/1/16
f 591/1/16 589/1/16 592/1/16
f 595/1/16 594/1/16 593/1/16
f 595/1/16 593/1/16 596/1/16
f 599/1/16 598/1/16 597/1/16
f 599/1/16 597/1/16 600/1/16
f 603/1/16 602/1/16 601/1/16
f 603/1/16 601/1/16 604/1/16
f 607/1/40 606/1/40 605/1/40
f 607/1/40 605/1/40 608/1/73
f 611/1/74 610/1/74 609/1/75
f 611/1/74 609/1/75 612/1/75
f 615/1/40 614/1/40 613/1/73
f 615/1/40 613/1/73 616/1/40
f 619/1/76 618/1/76 617/1/76
f 619/1/76 617/1/76 620/1/76
f 623/1/40 622/1/40 621/1/40
f 623/1/40 621/1/40 624/1/40
f 627/1/47 626/1/16 625/1/16
f 627/1/47 625/1/16 628/1/77
f 631/1/53 630/1/47 629/1/77
f 631/1/53 629/1/77 632/1/78
f 635/1/64 634/1/64 633/1/79
f 635/1/64 633/1/79 636/1/79
f 639/1/80 638/1/61 637/1/79
f 639/1/80 637/1/79 640/1/79
f 643/1/38 642/1/39 641/1/39
f 643/1/38 641/1/39 644/1/38
f 647/1/39 646/1/38 645/1/38
f 647/1/39 645/1/38 648/1/39
f 651/1/35 650/1/38 649/1/38
f 651/1/35 649/1/38 652/1/35
f 655/1/38 654/1/35 653/1/35
f 655/1/38 653/1/35 656/1/38
f 659/1/36 658/1/35 657/1/35
f 659/1/36 657/1/35 660/1/36
f 663/1/35 662/1/36 661/1/36
f 663/1/35 661/1/36 664/1/35
f 667/1/56 666/1/66 665/1/66
f 667/1/56 665/1/66 668/1/56
f 671/1/81 670/1/56 669/1/56
f 671/1/81 669/1/56 672/1/66
f 675/1/18 674/1/18 673/1/18
f 675/1/18 673/1/18 676/1/18
f 679/1/18 678/1/18 677/1/18
f 679/1/18 677/1/18 680/1/18
f 683/1/18 682/1/18 681/1/18
f 683/1/18 681/1/18 684/1/18
f 687/1/18 686/1/18 685/1/18
f 687/1/18 685/1/18 688/1/18
f 691/1/18 690/1/18 689/1/18
f 691/1/18 689/1/18 692/1/18
f 695/1/18 694/1/18 693/1/18
f 695/1/18 693/1/18 696/1/18
f 699/1/18 698/1/18 697/1/18
f 699/1/18 697/1/18 700/1/18
f 703/1/18 702/1/18 701/1/18
f 703/1/18 701/1/18 704/1/18
f 707/1/18 706/1/18 705/1/18
f 707/1/18 705/1/18 708/1/18
f 711/1/18 710/1/18 709/1/18
f 711/1/18 709/1/18 712/1/18
f 715/1/18 714/1/18 713/1/18
f 715/1/18 713/1/18 716/1/18
f 719/1/18 718/1/18 717/1/18
f 719/1/18 717/1/18 720/1/18
f 723/1/33 722/1/18 721/1/18
f 723/1/33 721/1/18 724/1/33
f 727/1/18 726/1/33 725/1/33
f 727/1/18 725/1/33 728/1/18
f 731/1/32 730/1/33 729/1/82
f 731/1/32 729/1/82 732/1/32
f 735/1/33 734/1/32 733/1/32
f 735/1/33 733/1/32 736/1/33
f 739/11/30 738/10/31 737/12/31
f 739/11/30 737/12/31 740/13/30
f 743/9/31 742/8/30 741/13/30
f 743/9/31 741/13/30 744/12/31
f 747/1/67 746/1/83 745/1/29
f 747/1/67 745/1/29 748/1/46
f 751/1/83 750/1/46 749/1/84
f 751/1/83 749/1/84 752/1/83
f 755/1/26 754/1/27 753/1/27
f 755/1/26 753/1/27 756/1/26
f 759/1/27 758/1/26 757/1/26
f 759/1/27 757/1/26 760/1/27
f 763/1/69 762/1/69 761/1/69
f 763/1/69 761/1/69 764/1/69
f 767/1/69 766/1/69 765/1/69
f 767/1/69 765/1/69 768/1/69
f 771/1/70 770/1/26 769/1/26
f 771/1/70 769/1/26 772/1/70
f 775/1/26 774/1/70 773/1/70
f 775/1/26 773/1/70 776/1/26
f 779/1/72 778/1/72 777/1/72
f 779/1/72 777/1/72 780/1/72
f 783/1/72 782/1/72 781/1/72
f 783/1/72 781/1/72 784/1/72
f 787/1/26 786/1/70 785/1/70
f 787/1/26 785/1/70 788/1/26
f 791/1/70 790/1/26 789/1/26
f 791/1/70 789/1/26 792/1/70
f 795/1/16 794/1/16 793/1/16
f 795/1/16 793/1/16 796/1/16
f 799/1/16 798/1/16 797/1/16
f 799/1/16 797/1/16 800/1/16
f 803/1/16 802/1/16 801/1/16
f 803/1/16 801/1/16 804/1/16
f 807/1/16 806/1/16 805/1/16
f 807/1/16 805/1/16 808/1/16
f 811/1/16 810/1/16 809/1/16
f 811/1/16 809/1/16 812/1/16
f 815/1/16 814/1/16 813/1/16
f 815/1/16 813/1/16 816/1/16
f 819/1/16 818/1/16 817/1/16
f 819/1/16 817/1/16 820/1/16
f 823/1/16 822/1/16 821/1/16
f 823/1/16 821/1/16 824/1/16
f 827/1/16 826/1/16 825/1/16
f 827/1/16 825/1/16 828/1/16
f 831/1/16 830/1/16 829/1/16
f 831/1/16 829/1/16 832/1/16
f 835/1/73 834/1/40 833/1/40
f 835/1/73 833/1/40 836/1/73
f 839/1/40 838/1/41 837/1/73
f 839/1/40 837/1/73 840/1/40
f 843/1/75 842/1/75 841/1/75
f 843/1/75 841/1/75 844/1/75
f 847/1/41 846/1/75 845/1/75
f 847/1/41 845/1/75 848/1/75
f 851/1/40 850/1/73 849/1/73
f 851/1/40 849/1/73 852/1/40
f 855/1/73 854/1/40 853/1/40
f 855/1/73 853/1/40 856/1/73
f 859/1/85 858/1/85 857/1/76
f 859/1/85 857/1/76 860/1/76
f 863/1/85 862/1/76 861/1/76
f 863/1/85 861/1/76 864/1/76
f 867/1/40 866/1/40 865/1/40
f 867/1/40 865/1/40 868/1/40
f 871/1/40 870/1/40 869/1/40
f 871/1/40 869/1/40 872/1/40
f 875/1/77 874/1/16 873/1/16
f 875/1/77 873/1/16 876/1/86
f 879/1/16 878/1/48 877/1/86
f 879/1/16 877/1/86 880/1/16
f 883/1/48 882/1/59 881/1/87
f 883/1/48 881/1/87 884/1/86
f 887/1/88 886/1/88 885/1/88
f 887/1/88 885/1/88 888/1/88
f 891/1/89 890/1/89 889/1/89
f 891/1/89 889/1/89 892/1/89
f 895/1/90 894/1/90 893/1/90
f 895/1/90 893/1/90 896/1/90
f 899/1/91 898/1/91 897/1/92
f 899/1/91 897/1/92 900/1/91
f 903/1/93 902/1/93 901/1/93
f 903/1/93 901/1/93 904/1/93
o Cubo_1
v 3.503833 0.118425 0.975810
v 3.503833 0.267602 0.975810
v 3.503833 0.267602 0.423809
v 3.503833 0.118425 0.423809
v -3.296322 0.118425 0.496435
v -3.296322 0.267602 0.496435
v -3.296322 0.267602 1.103667
v -3.296322 0.118425 1.103667
v -2.323703 0.267602 1.647942
v -3.296322 0.267602 1.103667
v -3.296322 0.267602 0.496435
v -2.323703 0.267602 0.427379
v -2.323703 0.267602 0.427379
v -3.296322 0.267602 0.496435
v -3.296322 0.118425 0.496435
v -2.323703 0.118425 0.427379
v -2.323703 0.118425 0.427379
v -3.296322 0.118425 0.496435
v -3.296322 0.118425 1.103667
v -2.323703 0.118425 1.647942
v -2.323703 0.118425 1.647942
v -3.296322 0.118425 1.103667
v -3.296322 0.267602 1.103667
v -2.323703 0.267602 1.647942
v 2.439132 0.267602 0.427379
v 3.503833 0.267602 0.423809
v 3.503833 0.267602 0.975810
v 2.439132 0.267602 1.647942
v 2.439132 0.267602 1.647942
v -2.323703 0.267602 1.647942
v -2.323703 0.267602 0.427379
v 2.439132 0.267602 0.427379
v 2.439132 0.267602 1.647942
v 3.503833 0.267602 0.975810
v 3.503833 0.118425 0.975810
v 2.439132 0.118425 1.647942
v 2.439132 0.118425 1.647942
v -2.323703 0.118425 1.647942
v -2.323703 0.267602 1.647942
v 2.439132 0.267602 1.647942
v 2.439132 0.118425 1.647942
v 3.503833 0.118425 0.975810
v 3.503833 0.118425 0.423809
v 2.439132 0.118425 0.427379
v 2.439132 0.118425 0.427379
v -2.323703 0.118425 0.427379
v -2.323703 0.118425 1.647942
v 2.439132 0.118425 1.647942
v 2.439132 0.118425 0.427379
v 3.503833 0.118425 0.423809
v 3.503833 0.267602 0.423809
v 2.439132 0.267602 0.427379
v 2.439132 0.267602 0.427379
v -2.323703 0.267602 0.427379
v -2.323703 0.118425 0.427379
v 2.439132 0.118425 0.427379
vn 1.0000 -0.0000 -0.0000
vn 0.9898 -0.0000 0.1421
vn -1.0000 -0.0000 -0.0000
vn -0.9873 -0.0000 0.1591
vn -0.0000 1.0000 -0.0000
vn -0.3580 -0.0000 -0.9337
vn -0.1820 -0.0000 -0.9833
vn -0.0000 -1.0000 -0.0000
vn -0.9494 -0.0000 0.3141
vn -0.9873 -0.0000 0.1590
vn 0.9899 -0.0000 0.1421
vn 0.9596 -0.0000 0.2814
vn -0.0000 -0.0000 1.0000
vn -0.0181 -0.0000 -0.9998
vn -0.0091 -0.0000 -1.0000
vn -0.0000 -0.0000 -1.0000
vn -0.1821 -0.0000 -0.9833
vt 0.750000 0.250000
vt 0.015000 0.042884
vt 0.015000 0.276028
vt 0.190450 0.485000
vt 0.190450 0.016371
vt 0.485000 0.226938
vt 0.485000 0.015000
vt 0.307108 0.016371
vt 0.307108 0.485000
vt 0.485000 0.485000
vt 0.015000 0.016371
s 1
usemtl Avion_Cara_y_Logos
f 907/14/94 906/14/95 905/14/95
f 907/14/94 905/14/95 908/14/94
f 911/14/96 910/14/96 909/14/96
f 911/14/96 909/14/96 912/14/97
f 915/15/98 914/16/98 913/17/98
f 915/15/98 913/17/98 916/18/98
f 919/14/99 918/14/99 917/14/100
f 919/14/99 917/14/100 920/14/99
f 923/14/101 922/14/101 921/14/101
f 923/14/101 921/14/101 924/14/101
f 927/14/102 926/14/103 925/14/102
f 927/14/102 925/14/102 928/14/102
f 931/19/98 930/20/98 929/21/98
f 931/19/98 929/21/98 932/22/98
f 935/18/98 934/17/98 933/23/98
f 935/24/98 933/22/98 936/21/98
f 939/14/104 938/14/104 937/14/105
f 939/14/104 937/14/105 940/14/105
f 943/14/106 942/14/106 941/14/106
f 943/14/106 941/14/106 944/14/106
f 947/14/101 946/14/101 945/14/101
f 947/14/101 945/14/101 948/14/101
f 951/14/101 950/14/101 949/14/101
f 951/14/101 949/14/101 952/14/101
f 955/14/107 954/14/107 953/14/108
f 955/14/107 953/14/108 956/14/107
f 959/14/109 958/14/110 957/14/109
f 959/14/109 957/14/109 960/14/108
o Cubo_1_1
v 2.155815 0.118425 -3.434441
v 2.155815 0.267602 -3.434441
v 2.155815 0.267602 -3.770101
v 2.155815 0.118425 -3.770101
v 1.070898 0.267602 -3.700610
v 2.155815 0.267602 -3.770101
v 2.155815 0.267602 -3.434441
v 1.070898 0.267603 -2.775514
v 1.070898 0.267603 -2.775514
v 2.155815 0.267602 -3.434441
v 2.155815 0.118425 -3.434441
v 1.070898 0.118425 -2.775514
v 1.070898 0.118425 -2.775514
v 2.155815 0.118425 -3.434441
v 2.155815 0.118425 -3.770101
v 1.070898 0.118425 -3.700610
v 1.070898 0.118425 -3.700610
v 2.155815 0.118425 -3.770101
v 2.155815 0.267602 -3.770101
v 1.070898 0.267602 -3.700610
v -2.279463 0.118425 -3.756155
v -2.279463 0.267602 -3.756155
v -2.279463 0.267602 -3.410096
v -2.279463 0.118425 -3.410096
v -1.058245 0.267602 -3.700610
v 1.070898 0.267602 -3.700610
v 1.070898 0.267603 -2.775514
v -1.058245 0.267603 -2.775514
v -1.058245 0.267603 -2.775514
v -2.279463 0.267602 -3.410096
v -2.279463 0.267602 -3.756155
v -1.058245 0.267602 -3.700610
v -1.058245 0.267603 -2.775514
v 1.070898 0.267603 -2.775514
v 1.070898 0.118425 -2.775514
v -1.058245 0.118425 -2.775514
v -1.058245 0.118425 -2.775514
v -2.279463 0.118425 -3.410096
v -2.279463 0.267602 -3.410096
v -1.058245 0.267603 -2.775514
v -1.058245 0.118425 -2.775514
v 1.070898 0.118425 -2.775514
v 1.070898 0.118425 -3.700610
v -1.058245 0.118425 -3.700610
v -1.058245 0.118425 -3.700610
v -2.279463 0.118425 -3.756155
v -2.279463 0.118425 -3.410096
v -1.058245 0.118425 -2.775514
v -1.058245 0.118425 -3.700610
v 1.070898 0.118425 -3.700610
v 1.070898 0.267602 -3.700610
v -1.058245 0.267602 -3.700610
v -1.058245 0.267602 -3.700610
v -2.279463 0.267602 -3.756155
v -2.279463 0.118425 -3.756155
v -1.058245 0.118425 -3.700610
vn 1.0000 -0.0000 -0.0000
vn 0.9819 -0.0000 0.1892
vn -0.0000 1.0000 -0.0000
vn 0.9284 -0.0000 0.3717
vn -0.0000 -1.0000 -0.0000
vn -0.2547 -0.0000 -0.9670
vn -0.1284 -0.0000 -0.9917
vn -1.0000 -0.0000 -0.0000
vn -0.9762 -0.0000 0.2170
vn -0.0000 -0.0000 1.0000
vn -0.9058 -0.0000 0.4238
vn -0.9762 -0.0000 0.2171
vn -0.0000 -0.0000 -1.0000
vn 0.0923 -0.0000 -0.9957
vn 0.1839 -0.0000 -0.9830
vt 0.750000 0.250000
s 1
usemtl Avion_Cara_y_Logos
f 963/25/111 962/25/112 961/25/112
f 963/25/111 961/25/112 964/25/111
f 967/25/113 966/25/113 965/25/113
f 967/25/113 965/25/113 968/25/113
f 971/25/112 970/25/112 969/25/114
f 971/25/112 969/25/114 972/25/114
f 975/25/115 974/25/115 973/25/115
f 975/25/115 973/25/115 976/25/115
f 979/25/116 978/25/116 977/25/117
f 979/25/116 977/25/117 980/25/116
f 983/25/118 982/25/118 981/25/118
f 983/25/118 981/25/118 984/25/119
f 987/25/113 986/25/113 985/25/113
f 987/25/113 985/25/113 988/25/113
f 991/25/113 990/25/113 989/25/113
f 991/25/113 989/25/113 992/25/113
f 995/25/120 994/25/120 993/25/120
f 995/25/120 993/25/120 996/25/120
f 999/25/121 998/25/122 997/25/121
f 999/25/121 997/25/121 1000/25/121
f 1003/25/115 1002/25/115 1001/25/115
f 1003/25/115 1001/25/115 1004/25/115
f 1007/25/115 1006/25/115 1005/25/115
f 1007/25/115 1005/25/115 1008/25/115
f 1011/25/123 1010/25/117 1009/25/124
f 1011/25/123 1009/25/124 1012/25/123
f 1015/25/125 1014/25/125 1013/25/125
f 1015/25/125 1013/25/125 1016/25/124
o Cubo_2
v 0.651791 0.244025 -0.408452
v 0.651791 0.929598 -0.319821
v -0.651791 0.929598 -0.319821
v -0.651791 0.244025 -0.408452
v -0.651791 0.572765 1.930770
v -0.651791 0.846923 1.503036
v 0.651791 0.846923 1.503035
v 0.651791 0.572765 1.930768
v 0.651791 0.572765 1.930768
v 0.651791 0.846923 1.503035
v 0.651791 0.929598 -0.319821
v 0.651791 0.244025 -0.408452
v -0.651791 0.244025 -0.408452
v -0.651791 0.929598 -0.319821
v -0.651791 0.846923 1.503036
v -0.651791 0.572765 1.930770
v 0.651791 0.929598 -0.319821
v 0.651791 0.846923 1.503035
v -0.651791 0.846923 1.503036
v -0.651791 0.929598 -0.319821
v -0.651791 0.244025 -0.408452
v -0.651791 0.572765 1.930770
v 0.651791 0.572765 1.930768
v 0.651791 0.244025 -0.408452
vn -0.0000 0.0432 -0.9991
vn -0.0000 0.4621 0.8868
vn -0.0002 0.4621 0.8868
vn 1.0000 -0.0000 -0.0000
vn -1.0000 -0.0000 -0.0000
vn -0.0000 0.9909 0.1346
vn -0.0000 -0.9217 0.3878
vt 0.750000 0.250000
vt 0.485000 0.985000
vt 0.015000 0.985000
vt 0.015000 0.515000
vt 0.485000 0.515000
s 1
usemtl Avion_Cara_y_Logos
f 1019/26/126 1018/26/126 1017/26/126
f 1019/26/126 1017/26/126 1020/26/126
f 1023/27/127 1022/28/127 1021/29/127
f 1023/27/127 1021/29/127 1024/30/128
f 1027/26/129 1026/26/129 1025/26/129
f 1027/26/129 1025/26/129 1028/26/129
f 1031/26/130 1030/26/130 1029/26/130
f 1031/26/130 1029/26/130 1032/26/130
f 1035/26/131 1034/26/131 1033/26/131
f 1035/26/131 1033/26/131 1036/26/131
f 1039/26/132 1038/26/132 1037/26/132
f 1039/26/132 1037/26/132 1040/26/132

