# Blender 5.2.2 LTS
# www.blender.org
mtllib P06-320324187.mtl
o Holocron_E06_320324187
v -2.517274 -2.579095 0.002115
v -1.185055 -2.530499 -1.198261
v 0.049649 2.440128 -2.417217
v 0.051152 2.399781 2.545043
v -2.646786 -0.139047 2.493757
v -1.328995 -2.578386 1.297838
v 2.593003 -0.085222 2.505755
v 1.385028 -2.549476 1.308677
v -0.140696 -2.601934 2.558561
v 2.534944 -0.061146 -2.580280
v 1.344182 -2.542571 -1.294387
v 0.081432 -2.513204 -2.426005
v -2.453980 -0.063388 -2.477451
v 2.632201 -2.553892 0.007226
v 2.521206 2.448241 0.063388
v -2.451372 2.421759 0.077538
vn -0.5055 -0.6014 -0.6187
vn -0.5056 -0.6014 -0.6187
vn -0.4910 -0.6002 -0.6313
vn -0.9999 0.0012 0.0165
vn -0.9999 0.0019 0.0170
vn -0.9999 0.0019 0.0169
vn 0.5667 0.5876 -0.5776
vn 0.5666 0.5876 -0.5776
vn 0.5666 0.5877 -0.5775
vn -0.5776 0.5876 -0.5666
vn -0.5776 0.5876 -0.5667
vn -0.5776 0.5877 -0.5666
vn 0.0006 0.0170 0.9999
vn 0.0008 0.0171 0.9999
vn 0.0009 0.0171 0.9999
vn -0.5667 0.5874 0.5777
vn -0.5666 0.5876 0.5777
vn -0.5668 0.5873 0.5777
vn 0.5788 0.5849 0.5682
vn 0.5789 0.5850 0.5681
vn -0.6176 -0.5877 0.5227
vn -0.6176 -0.5876 0.5228
vn -0.6166 -0.5880 0.5235
vn 0.5565 -0.5649 0.6092
vn 0.5564 -0.5650 0.6093
vn 0.5865 -0.5652 0.5801
vn 0.5585 -0.5875 -0.5856
vn 0.5582 -0.5875 -0.5859
vn 0.5377 -0.5876 -0.6046
vn -0.0011 0.0174 -0.9998
vn -0.0011 0.0175 -0.9998
vn -0.0044 -0.9998 0.0200
vn 0.0033 -0.9997 0.0224
vn 0.0063 -0.9999 0.0136
vn 0.9992 0.0358 0.0171
vn 0.9992 0.0359 0.0171
vn -0.0012 0.9999 0.0170
vn -0.0010 0.9999 0.0170
vn -0.0015 0.9999 0.0168
vn -0.0015 0.9999 0.0170
vn 0.9992 0.0364 0.0167
vn 0.0008 0.0170 0.9999
vn -0.9999 0.0018 0.0169
vn -0.5208 -0.6020 -0.6052
vn -0.6185 -0.5876 0.5216
vn 0.5263 -0.5634 0.6368
vn 0.5779 -0.5873 -0.5667
vn 0.0172 -0.9998 0.0128
vn -0.0022 -0.9999 0.0119
vn -0.0082 -0.9999 0.0114
vn -0.0092 -0.9996 0.0283
vn 0.0078 -1.0000 0.0019
vt 0.132013 0.992500
vt 0.123949 0.762039
vt 0.242500 0.757500
vt 0.257500 0.875593
vt 0.492500 0.872034
vt 0.378097 0.992500
vt 0.507500 0.992500
vt 0.632312 0.757500
vt 0.742500 0.991740
vt 0.757500 0.992500
vt 0.872133 0.757500
vt 0.992500 0.990776
vt 0.119955 0.507500
vt 0.128545 0.742500
vt 0.007500 0.623216
vt 0.257500 0.742500
vt 0.361066 0.507500
vt 0.492500 0.740483
vt 0.507500 0.738005
vt 0.630882 0.507500
vt 0.742500 0.742500
vt 0.874791 0.742500
vt 0.875865 0.509747
vt 0.992500 0.507500
vt 0.128269 0.492500
vt 0.129870 0.270532
vt 0.242500 0.270134
vt 0.376030 0.492500
vt 0.379368 0.263928
vt 0.492500 0.266633
vt 0.623384 0.257500
vt 0.624906 0.492500
vt 0.507500 0.373833
vt 0.933729 0.310854
vt 0.935589 0.433572
vt 0.811725 0.433061
vt 0.122925 0.007500
vt 0.120362 0.242500
vt 0.007500 0.123478
vt 0.374301 0.007500
vt 0.374252 0.242500
vt 0.257500 0.124975
vt 0.492500 0.125633
vt 0.742500 0.373712
vt 0.242500 0.124636
vt 0.242500 0.625762
vt 0.374655 0.757500
vt 0.007500 0.767502
vt 0.757500 0.509403
vt 0.007500 0.257500
vt 0.257500 0.257500
vt 0.757500 0.371974
vt 0.818317 0.315380
vt 0.876120 0.257500
vt 0.992500 0.372219
vt 0.865940 0.492500
s 1
usemtl StarWars_Texturizado
f 13/1/1 2/2/2 1/3/3
f 13/4/4 5/5/5 16/6/6
f 15/7/7 10/8/8 3/9/9
f 3/10/10 13/11/11 16/12/12
f 9/13/13 4/14/14 5/15/15
f 16/16/16 5/17/17 4/18/18
f 4/19/19 7/20/20 15/21/19
f 5/22/21 6/23/22 9/24/23
f 7/25/24 8/26/25 14/27/26
f 10/28/27 11/29/28 12/30/29
f 12/31/30 3/32/30 10/33/31
f 11/34/32 8/35/33 6/36/34
f 14/37/35 15/38/35 7/39/36
f 3/40/37 4/41/38 15/42/39
f 3/40/37 16/43/40 4/41/38
f 12/31/30 13/44/30 3/32/30
f 14/37/35 10/45/41 15/38/35
f 9/13/13 7/46/42 4/14/14
f 13/4/4 1/47/43 5/5/5
f 13/1/1 12/48/44 2/2/2
f 5/22/21 1/49/45 6/23/22
f 7/25/24 9/50/46 8/26/25
f 10/28/27 14/51/47 11/29/28
f 6/36/34 1/52/48 2/53/49
f 2/53/49 12/54/50 11/34/32
f 11/34/32 14/55/51 8/35/33
f 8/35/33 9/56/52 6/36/34
f 6/36/34 2/53/49 11/34/32

