# Blender 5.2.2 LTS
# www.blender.org
mtllib Brazo.mtl
o Brazo_Completo
v 2.152226 11.862940 -1.045829
v 2.321678 12.056523 -1.037668
v 2.275902 12.098002 -1.071121
v 2.106451 11.904419 -1.079281
v 2.184691 11.831421 -0.972262
v 2.354143 12.025003 -0.964101
v 2.184652 11.828444 -0.900849
v 2.354104 12.022027 -0.892688
v 2.152222 11.853621 -0.824686
v 2.106174 11.892351 -0.787254
v 2.321674 12.047204 -0.816526
v 2.275626 12.085934 -0.779093
v 2.260601 12.101748 -0.842251
v 2.287914 12.078775 -0.864454
v 2.305266 12.065305 -0.905204
v 2.403514 12.265014 -0.835368
v 2.430828 12.242042 -0.857572
v 2.448180 12.228570 -0.898322
v 2.448203 12.230335 -0.940660
v 2.415016 12.257002 -0.880602
v 2.424960 12.249282 -0.903956
v 2.424976 12.250496 -0.933090
v 2.305289 12.067069 -0.947542
v 2.287919 12.083934 -0.986904
v 2.430832 12.247199 -0.980022
v 2.396299 12.277124 -0.969330
v 2.403667 12.271815 -0.999874
v 2.415021 12.260160 -0.955648
v 2.260754 12.108549 -1.006756
v 2.211007 12.154699 -1.068526
v 2.226031 12.138885 -1.005368
v 2.368945 12.302151 -0.998485
v 2.341632 12.325123 -0.976282
v 2.198718 12.161858 -0.983165
v 2.376400 12.294511 -0.968534
v 2.353114 12.227790 -0.971410
v 2.333214 12.245174 -0.970614
v 2.357591 12.310330 -0.953244
v 2.324280 12.338593 -0.935532
v 2.347647 12.318051 -0.929890
v 2.314405 12.260995 -0.955324
v 2.304461 12.268715 -0.931970
v 2.314400 12.257835 -0.880278
v 2.304445 12.267501 -0.902836
v 2.347631 12.316835 -0.900757
v 2.357586 12.307171 -0.878198
v 2.324257 12.336829 -0.893194
v 2.181343 12.173563 -0.900076
v 2.341628 12.319964 -0.853832
v 2.198714 12.156699 -0.860715
v 2.368793 12.295349 -0.833980
v 2.225879 12.132083 -0.840863
v 2.376307 12.290207 -0.864517
v 2.396207 12.272821 -0.865312
v 2.333121 12.240871 -0.866596
v 2.353021 12.223486 -0.867392
v 2.381774 12.199945 -0.906036
v 2.371830 12.207666 -0.882682
v 2.381790 12.201160 -0.935170
v 2.371835 12.210825 -0.957728
v 2.210730 12.142631 -0.776498
v 2.164955 12.184110 -0.809950
v 1.995504 11.990526 -0.818111
v 1.963038 12.022046 -0.891678
v 2.132490 12.215630 -0.883518
v 1.963077 12.025023 -0.963091
v 2.132529 12.218605 -0.954931
v 1.995507 11.999846 -1.039254
v 2.164959 12.193428 -1.031093
v 2.181367 12.175328 -0.942414
v 2.041555 11.961116 -1.076686
v 2.041278 11.949047 -0.784659
v 4.397742 8.903167 -0.627043
v 4.599311 8.703329 -0.627043
v 4.397742 8.903167 -0.768163
v 4.256322 8.902558 -0.627043
v 1.336974 5.957929 -0.768160
v 4.256322 8.902558 -0.768163
v 1.336974 5.957929 -0.627041
v 1.539152 5.616672 -0.627041
v 1.307989 5.887094 -0.627041
v 1.337583 5.816509 -0.627041
v 1.307989 5.887094 -0.768160
v 1.337583 5.816509 -0.768160
v 1.539152 5.616672 -0.768160
v 1.609988 5.587687 -0.768160
v 4.599920 8.561909 -0.768163
v 4.599920 8.561909 -0.627043
v 4.599311 8.703329 -0.768163
v 1.680572 5.617281 -0.768160
v 1.680572 5.617281 -0.627041
v 1.609988 5.587687 -0.627041
v 4.256322 8.902558 -1.572963
v 1.336974 5.957929 -1.572960
v 4.256322 8.902558 -1.431843
v 4.397742 8.903167 -1.572963
v 4.599311 8.703329 -1.431843
v 4.397742 8.903167 -1.431843
v 4.599311 8.703329 -1.572963
v 4.599920 8.561909 -1.572963
v 1.680572 5.617281 -1.572960
v 4.599920 8.561909 -1.431843
v 1.337584 5.816509 -1.572960
v 1.609989 5.587687 -1.572960
v 1.539152 5.616672 -1.572960
v 1.680572 5.617281 -1.431840
v 1.609988 5.587687 -1.431840
v 1.539152 5.616672 -1.431840
v 1.337583 5.816509 -1.431840
v 1.307989 5.887094 -1.431840
v 1.307990 5.887094 -1.572960
v 1.336974 5.957929 -1.431840
v 4.363567 8.411457 -1.640003
v 4.363567 8.411457 -1.572963
v 4.415739 8.538963 -1.572963
v 4.236517 8.358188 -1.640003
v 4.415739 8.538963 -1.640003
v 4.362470 8.666013 -1.640003
v 4.109011 8.410360 -1.640003
v 4.109011 8.410360 -1.572963
v 4.055742 8.537411 -1.640003
v 4.055742 8.537411 -1.572963
v 4.107914 8.664915 -1.640003
v 4.107914 8.664915 -1.572963
v 4.234964 8.718184 -1.640003
v 4.234964 8.718184 -1.572963
v 4.362470 8.666013 -1.572963
v 4.236517 8.358188 -1.572963
v 4.363567 8.411457 -0.560003
v 4.363567 8.411457 -0.627043
v 4.236517 8.358188 -0.627043
v 4.236517 8.358188 -0.560003
v 4.415739 8.538963 -0.560003
v 4.234964 8.718184 -0.560003
v 4.362470 8.666013 -0.560003
v 4.415739 8.538963 -0.627043
v 4.362470 8.666013 -0.627043
v 4.234964 8.718184 -0.627043
v 4.107914 8.664915 -0.627043
v 4.107914 8.664915 -0.560003
v 4.055742 8.537411 -0.627043
v 4.109011 8.410360 -0.627043
v 4.109011 8.410360 -0.560003
v 4.055742 8.537411 -0.560003
v 4.034361 8.858424 -1.421836
v 3.847211 8.769842 -0.780958
v 3.847211 8.769842 -1.421836
v 3.958084 8.651795 -1.421836
v 4.022696 8.749402 -1.421836
v 4.119741 8.814853 -1.421836
v 4.234447 8.838183 -1.421836
v 4.240728 8.841563 -1.421836
v 4.240728 8.841563 -0.780957
v 4.034361 8.858424 -0.780957
v 4.234447 8.838183 -0.780957
v 4.119741 8.814853 -0.780957
v 4.022696 8.749402 -0.780957
v 3.958084 8.651795 -0.780957
v 3.729425 8.599552 -0.780958
v 3.935743 8.536893 -0.780957
v 3.959074 8.422188 -0.780957
v 3.715542 8.386894 -0.780957
v 3.712565 8.393185 -0.780957
v 3.712565 8.393185 -1.421836
v 3.801147 8.206036 -1.421836
v 3.801147 8.206036 -0.780957
v 3.717317 8.383143 -0.780957
v 3.729425 8.599552 -1.421836
v 4.024525 8.325142 -1.421836
v 3.959074 8.422188 -1.421836
v 3.935743 8.536893 -1.421836
v 4.122131 8.260530 -1.421836
v 3.971436 8.088249 -1.421836
v 4.237033 8.238190 -1.421836
v 4.177803 8.071389 -1.421836
v 4.351740 8.261521 -1.421836
v 4.448785 8.326971 -1.421836
v 4.364953 8.159971 -1.421836
v 4.482739 8.330259 -1.421836
v 4.364953 8.159971 -0.780957
v 4.482739 8.330259 -0.780957
v 4.177803 8.071389 -0.780957
v 4.237033 8.238190 -0.780957
v 4.351740 8.261521 -0.780958
v 4.448785 8.326971 -0.780958
v 4.122131 8.260530 -0.780957
v 3.971436 8.088249 -0.780957
v 4.024525 8.325142 -0.780957
v 1.925978 11.061472 -1.164597
v 1.900389 11.031518 -1.059604
v 1.942509 11.076082 -1.093848
v 1.703599 11.277327 -1.157212
v 1.646726 11.218957 -1.163710
v 1.869105 11.003102 -1.171095
v 1.993065 11.130325 -1.156933
v 2.038346 11.174441 -1.082899
v 2.060151 11.199176 -1.149269
v 1.990953 11.126270 -1.102027
v 1.770686 11.346179 -1.149548
v 1.837772 11.415030 -1.141884
v 1.596017 11.155560 -0.837663
v 1.919940 11.488007 -0.800656
v 1.818395 10.939705 -0.845048
v 1.851082 10.968504 -0.702525
v 1.819750 11.380432 -0.673314
v 1.752663 11.311580 -0.680978
v 1.685577 11.242728 -0.688643
v 1.628703 11.184359 -0.695140
v 1.603410 11.169752 -1.029870
v 1.586369 11.148960 -0.935291
v 1.808748 10.933105 -0.942676
v 1.825789 10.953897 -1.037255
v 1.871007 10.999363 -1.004510
v 1.858835 10.984512 -0.936954
v 1.865726 10.989225 -0.867219
v 1.890632 11.012786 -0.805923
v 1.907955 11.026874 -0.696028
v 1.929760 11.051608 -0.762398
v 1.975042 11.095725 -0.688363
v 1.977154 11.099780 -0.743269
v 2.025598 11.149968 -0.751449
v 2.067717 11.194532 -0.785692
v 2.042128 11.164577 -0.680699
v 2.099002 11.222947 -0.674202
v 2.142318 11.272151 -0.808041
v 1.876623 11.438802 -0.666816
v 2.097100 11.226687 -0.840786
v 2.109272 11.241538 -0.908343
v 2.159360 11.292943 -0.902620
v 2.149711 11.286344 -1.000249
v 1.936981 11.508798 -0.895235
v 1.927333 11.502198 -0.992864
v 2.117024 11.257545 -1.142771
v 1.894646 11.473400 -1.135386
v 2.077475 11.213264 -1.039373
v 2.102380 11.236824 -0.978077
v 1.656404 11.226957 -1.091405
v 1.393839 11.481818 -1.082686
v 1.879014 11.455425 -1.065973
v 1.659164 11.232255 -1.163157
v 1.458156 11.713573 -1.135349
v 1.619209 11.715585 -1.129005
v 1.396599 11.487117 -1.154437
v 1.362008 11.567070 -1.149864
v 1.881774 11.460724 -1.137725
v 1.394127 11.647858 -1.142664
v 1.359248 11.561771 -1.078113
v 1.391367 11.642560 -1.070912
v 1.455396 11.708274 -1.063597
v 1.535411 11.742571 -1.057987
v 1.538170 11.747869 -1.129738
v 1.616450 11.710287 -1.057254
v 1.641072 11.197523 -0.692784
v 1.643832 11.202822 -0.764536
v 1.378507 11.452385 -0.684065
v 1.863682 11.425992 -0.667352
v 1.603877 11.686152 -0.730384
v 1.866442 11.431290 -0.739104
v 1.601117 11.680853 -0.658633
v 1.520079 11.713138 -0.659366
v 1.440064 11.678841 -0.664976
v 1.522838 11.718435 -0.731118
v 1.376035 11.613127 -0.672291
v 1.378795 11.618424 -0.744043
v 1.442824 11.684138 -0.736728
v 1.343916 11.532339 -0.679492
v 1.346676 11.537637 -0.751243
v 1.381267 11.457683 -0.755817
v 4.989960 8.561625 -1.269328
v 2.764130 10.722153 -1.195410
v 4.984551 8.551241 -1.128695
v 2.427543 10.376709 -1.233863
v 4.937258 8.571400 -1.270634
v 4.822901 8.547194 -1.276819
v 4.726655 8.481128 -1.285400
v 4.663171 8.383260 -1.295068
v 4.642116 8.268490 -1.304352
v 4.653374 8.216181 -1.307782
v 2.422134 10.366324 -1.093230
v 4.647965 8.205796 -1.167148
v 2.758721 10.711769 -1.054776
v 4.636707 8.258106 -1.163719
v 4.657762 8.372875 -1.154434
v 4.721246 8.470743 -1.144766
v 4.817492 8.536810 -1.136186
v 4.931849 8.561015 -1.130000
v 4.637858 8.186394 -0.904377
v 2.406618 10.336536 -0.689825
v 4.632449 8.176010 -0.763744
v 4.626600 8.238703 -0.900948
v 2.412027 10.346922 -0.830459
v 4.807385 8.517406 -0.873415
v 2.748613 10.692367 -0.792005
v 2.743204 10.681982 -0.651372
v 4.974444 8.531838 -0.865924
v 4.921742 8.541613 -0.867229
v 4.711139 8.451341 -0.881995
v 4.647655 8.353474 -0.891664
v 4.969035 8.521454 -0.725291
v 4.916333 8.531228 -0.726596
v 4.801976 8.507023 -0.732782
v 4.705730 8.440956 -0.741362
v 4.642246 8.343089 -0.751030
v 4.621191 8.228319 -0.760314
v 5.151594 8.488415 -1.295651
v 5.128596 8.444266 -0.697719
v 5.218063 8.392172 -1.300200
v 5.030354 8.507900 -0.696799
v 5.053352 8.552050 -1.294731
v 4.823938 8.549183 -1.303766
v 4.938295 8.573389 -1.297580
v 4.915296 8.529239 -0.699649
v 4.832441 7.996401 -1.344256
v 4.664208 8.385250 -1.322015
v 5.221585 8.163202 -1.316972
v 5.242641 8.277972 -1.307688
v 5.219642 8.233822 -0.709756
v 5.198587 8.119052 -0.719041
v 5.158102 8.065334 -1.326640
v 5.061855 7.999269 -1.335220
v 5.135104 8.021184 -0.728709
v 5.038857 7.955118 -0.737289
v 4.947499 7.975063 -1.341406
v 4.924500 7.930912 -0.743475
v 4.809443 7.952250 -0.746325
v 4.620154 8.226330 -0.733368
v 4.711201 8.015886 -0.745405
v 4.734199 8.060037 -1.343336
v 4.667730 8.156280 -1.338786
v 4.644732 8.112129 -0.740855
v 4.643153 8.270479 -1.331299
v 4.641209 8.341099 -0.724083
v 4.704693 8.438967 -0.714415
v 4.727691 8.483117 -1.312346
v 4.800939 8.505033 -0.705835
v 5.195065 8.348022 -0.702269
v 1.825963 11.286418 -1.096548
v 1.873357 11.334589 -1.077419
v 2.200420 10.922947 -1.108984
v 1.777519 11.236230 -1.088368
v 1.735400 11.191666 -1.054125
v 2.109857 10.828195 -1.066560
v 2.151976 10.872759 -1.100804
v 2.136428 10.864670 -1.152061
v 2.081673 10.806737 -1.107545
v 2.043476 10.764935 -1.035923
v 2.218400 10.674021 -1.112085
v 2.180203 10.632219 -1.040463
v 2.027652 10.745627 -0.948099
v 2.164379 10.612913 -0.952640
v 2.173338 10.619040 -0.861985
v 2.036611 10.751757 -0.857444
v 2.068988 10.782386 -0.777760
v 2.205716 10.649670 -0.782300
v 2.119855 10.832853 -0.721176
v 2.256582 10.700138 -0.725717
v 2.181467 10.895477 -0.696309
v 2.318194 10.762761 -0.700849
v 2.244444 10.960722 -0.706943
v 2.381171 10.828006 -0.711483
v 2.299200 11.018655 -0.751459
v 2.435927 10.885940 -0.756000
v 2.337397 11.060456 -0.823081
v 2.474124 10.927741 -0.827622
v 2.489947 10.947048 -0.915445
v 2.353221 11.079763 -0.910905
v 2.344262 11.073635 -1.001560
v 2.480988 10.940920 -1.006100
v 2.448611 10.910291 -1.085785
v 2.311884 11.043006 -1.081244
v 2.261017 10.992537 -1.137828
v 2.397745 10.859822 -1.142368
v 2.199406 10.929914 -1.162695
v 2.336133 10.797199 -1.167236
v 2.273155 10.731955 -1.156602
v 2.247814 10.971119 -1.089855
v 1.912485 11.373411 -1.033894
v 2.286943 11.009940 -1.046329
v 2.311848 11.033501 -0.985033
v 1.944282 11.401686 -0.902863
v 2.318740 11.038216 -0.915299
v 1.937390 11.396973 -0.972598
v 2.306567 11.023364 -0.847742
v 1.902728 11.354680 -0.780213
v 2.277185 10.991209 -0.792649
v 1.932110 11.386835 -0.835307
v 2.235066 10.946645 -0.758405
v 2.186621 10.896457 -0.750225
v 1.860609 11.310116 -0.745969
v 1.812164 11.259928 -0.737790
v 1.764771 11.211756 -0.756919
v 1.725643 11.172934 -0.800444
v 2.100099 10.809464 -0.812880
v 2.139228 10.848285 -0.769354
v 2.075194 10.785902 -0.874176
v 1.700738 11.149372 -0.861740
v 1.693846 11.144659 -0.931474
v 2.068302 10.781188 -0.943910
v 1.706018 11.159510 -0.999031
v 2.080474 10.796040 -1.011467
v 2.701509 10.658237 -1.229671
v 2.371214 10.303840 -0.816987
v 2.753980 10.693047 -0.667093
v 2.443262 10.908907 -1.221095
v 2.492811 10.444047 -1.253514
v 2.773610 10.730731 -1.177459
v 2.417342 10.365088 -1.218161
v 2.800108 10.754293 -1.068267
v 2.541861 11.004963 -1.059691
v 2.788608 10.732218 -0.769302
v 2.530362 10.982888 -0.760726
v 2.420264 10.864756 -0.623164
v 2.495733 10.943716 -0.658517
v 2.515363 10.981401 -1.168883
v 2.124467 10.576585 -1.107376
v 2.234565 10.694717 -1.244938
v 2.159095 10.615757 -1.209585
v 2.112968 10.554509 -0.808411
v 2.139465 10.578072 -0.699219
v 2.382713 10.325915 -1.115953
v 2.397711 10.327402 -0.707795
v 2.211567 10.650566 -0.647007
v 2.469813 10.399897 -0.655583
v 2.678510 10.614086 -0.631740
v 1.414714 11.492965 -1.013356
v 1.412565 11.493845 -1.074051
v 1.616387 11.316760 -1.021144
v 1.690902 11.808485 -1.000056
v 1.690509 11.811430 -1.061745
v 1.892843 11.634638 -1.069319
v 1.892576 11.632279 -1.007844
v 1.614888 11.317072 -1.081864
v 1.414922 11.484078 -0.806908
v 1.892784 11.623394 -0.801395
v 1.691111 11.799600 -0.793607
v 1.690843 11.797233 -0.731891
v 1.412897 11.479740 -0.746354
v 1.616596 11.307874 -0.814696
v 1.615219 11.302968 -0.754167
v 1.893176 11.620461 -0.739944
v 1.696584 11.792142 -0.730352
v 1.696190 11.808906 -1.119826
v 1.886819 11.625931 -0.737699
v 1.922520 12.050262 -0.719705
v 1.922126 12.067016 -1.108945
v 2.206693 11.801976 -0.730679
v 2.206299 11.818729 -1.119919
v 2.055437 11.629515 -0.745538
v 2.055051 11.645916 -1.126622
v 1.886426 11.642694 -1.127172
v 2.180047 12.173710 -0.827435
v 2.219191 12.138246 -0.798973
v 2.289629 12.298897 -0.822157
v 2.186055 12.169044 -0.841511
v 2.334781 12.258767 -0.807772
v 2.295637 12.294231 -0.836233
v 2.225199 12.133580 -0.813049
v 2.328773 12.263433 -0.793695
v 2.487978 12.364483 -1.022723
v 2.439481 12.309080 -1.025059
v 2.445489 12.304415 -1.039135
v 2.527121 12.329019 -0.994261
v 2.478625 12.273616 -0.996597
v 2.493986 12.359818 -1.036799
v 2.533129 12.324353 -1.008338
v 2.484633 12.268950 -1.010673
v 2.473641 12.235927 -0.829640
v 2.429758 12.273371 -0.806656
v 2.466719 12.242526 -0.842468
v 2.436679 12.266771 -0.793829
v 2.315644 12.055429 -0.837249
v 2.278682 12.086274 -0.801438
v 2.308723 12.062029 -0.850077
v 2.271761 12.092874 -0.814265
v 1.925338 11.683858 -1.125262
v 1.995891 11.688578 -1.125130
v 1.995811 11.691975 -1.204057
v 1.804037 11.789841 -1.120578
v 1.925258 11.687256 -1.204189
v 1.803958 11.793238 -1.199505
v 1.925178 11.690653 -1.283116
v 1.995731 11.695372 -1.282984
v 1.855327 11.899200 -1.274069
v 2.099092 11.857243 -1.276122
v 2.101817 11.816565 -1.277875
v 1.803878 11.796635 -1.278432
v 1.801153 11.837312 -1.276678
v 1.801233 11.833915 -1.197751
v 1.801313 11.830518 -1.118824
v 1.855407 11.895803 -1.195142
v 1.903192 11.919430 -1.194174
v 1.855487 11.892406 -1.116215
v 1.903113 11.922827 -1.273101
v 1.986639 11.928413 -1.272945
v 1.986719 11.925016 -1.194018
v 2.037148 11.911364 -1.273730
v 2.037228 11.907967 -1.194803
v 2.099172 11.853845 -1.197195
v 2.101896 11.813168 -1.198948
v 2.099252 11.850448 -1.118268
v 2.101976 11.809771 -1.120021
v 2.037308 11.904570 -1.115876
v 1.986798 11.921621 -1.115091
v 1.903272 11.916033 -1.115247
v 1.617206 11.446614 -1.215708
v 1.595211 11.439120 -1.216008
v 1.639047 11.422389 -1.216772
v 1.641220 11.474048 -1.214551
v 1.617005 11.455215 -1.415523
v 1.641018 11.482648 -1.414366
v 1.616255 11.555202 -1.411218
v 1.529958 11.504557 -1.413311
v 1.645521 11.505425 -1.413390
v 1.559223 11.454781 -1.415483
v 1.595009 11.447721 -1.415823
v 1.541932 11.461464 -1.214992
v 1.541730 11.470064 -1.414807
v 1.559425 11.446179 -1.215668
v 1.549345 11.415170 -1.216993
v 1.592734 11.406610 -1.217405
v 1.512513 11.447351 -1.215570
v 1.512581 11.444457 -1.148344
v 1.592802 11.403717 -1.150179
v 1.549413 11.412276 -1.149767
v 1.639115 11.419496 -1.149547
v 1.668230 11.452757 -1.148144
v 1.677711 11.500717 -1.146090
v 1.668162 11.455650 -1.215370
v 1.677643 11.503611 -1.213316
v 1.645723 11.496825 -1.213576
v 1.633950 11.531319 -1.212079
v 1.616458 11.546602 -1.211404
v 1.663370 11.545432 -1.211501
v 1.626537 11.577613 -1.210079
v 1.633748 11.539919 -1.411894
v 1.583149 11.586172 -1.209667
v 1.583217 11.583279 -1.142441
v 1.580672 11.553660 -1.211063
v 1.626605 11.574719 -1.142853
v 1.663438 11.542539 -1.144275
v 1.558676 11.546168 -1.211364
v 1.558474 11.554768 -1.411179
v 1.580470 11.562262 -1.410878
v 1.534663 11.518734 -1.212520
v 1.534461 11.527334 -1.412335
v 1.530160 11.495956 -1.213496
v 1.507720 11.537131 -1.211701
v 1.536836 11.570393 -1.210299
v 1.507788 11.534238 -1.144475
v 1.536903 11.567499 -1.143073
v 1.498240 11.489171 -1.213756
v 1.498308 11.486278 -1.146530
v 1.635641 11.403605 -0.810620
v 1.635432 11.412519 -1.017721
v 1.596752 11.399341 -1.018249
v 1.669355 11.442120 -0.808996
v 1.596961 11.390427 -0.811148
v 1.546721 11.400338 -0.810670
v 1.515959 11.427216 -0.809482
v 1.546512 11.409252 -1.017772
v 1.515750 11.436129 -1.016584
v 1.499222 11.484554 -1.014483
v 1.499432 11.475640 -0.807381
v 1.507350 11.515696 -0.805665
v 1.507140 11.524610 -1.012767
v 1.540854 11.563124 -1.011143
v 1.541063 11.554210 -0.804042
v 1.579743 11.567389 -0.803514
v 1.579533 11.576303 -1.010615
v 1.629774 11.566391 -1.011092
v 1.660536 11.539515 -1.012280
v 1.629984 11.557478 -0.803991
v 1.660745 11.530601 -0.805179
v 1.677273 11.482175 -0.807280
v 1.677063 11.491089 -1.014381
v 1.669145 11.451034 -1.016097
v 2.544837 12.303569 -0.945291
v 2.504393 12.340471 -0.980879
v 2.523082 12.324689 -0.994586
v 2.527109 12.318418 -0.929406
v 2.544805 12.301169 -0.887712
v 2.528136 12.284489 -0.946095
v 2.506382 12.305610 -0.995391
v 2.528104 12.282089 -0.888517
v 2.506374 12.298960 -0.837482
v 2.469215 12.330214 -0.807276
v 2.485916 12.349293 -0.806471
v 2.523075 12.318040 -0.836678
v 2.527074 12.315828 -0.867272
v 2.486890 12.349627 -0.834606
v 2.504403 12.334896 -0.848842
v 2.527094 12.317281 -0.902131
v 2.470247 12.330614 -0.835407
v 2.487761 12.315884 -0.849644
v 2.510451 12.298268 -0.902932
v 2.510466 12.299405 -0.930207
v 2.487751 12.321459 -0.981680
v 2.470416 12.337167 -0.994348
v 2.487058 12.356179 -0.993547
v 2.441653 12.395848 -0.991731
v 2.486112 12.358191 -1.021605
v 2.442627 12.396181 -1.019866
v 2.388767 12.408356 -0.990463
v 2.425926 12.377102 -1.020670
v 2.469411 12.339111 -1.022409
v 2.405468 12.427435 -0.989659
v 2.367036 12.425225 -0.939429
v 2.424139 12.410578 -0.977495
v 2.383737 12.444305 -0.938625
v 2.367005 12.422826 -0.881850
v 2.401449 12.428194 -0.924206
v 2.401434 12.427057 -0.896931
v 2.383706 12.441905 -0.881046
v 2.405460 12.420785 -0.831750
v 2.424149 12.405004 -0.845458
v 2.407507 12.385991 -0.846259
v 2.424842 12.370283 -0.833591
v 2.384791 12.408045 -0.897733
v 2.441484 12.389296 -0.832790
v 2.442431 12.387283 -0.804732
v 2.425730 12.368204 -0.805537
v 2.388759 12.401706 -0.832555
v 2.384806 12.409182 -0.925007
v 2.407497 12.391566 -0.978296
v 2.425010 12.376836 -0.992533
v 2.344675 12.135694 -1.012056
v 2.475768 12.285456 -1.005742
v 2.479133 12.282843 -1.013625
v 2.322754 12.155553 -1.027994
v 2.348039 12.133080 -1.019938
v 2.326119 12.152941 -1.035877
v 2.457212 12.302703 -1.029563
v 2.453848 12.305315 -1.021681
v 2.301773 12.288883 -0.828568
v 2.421654 12.425837 -0.822795
v 2.417810 12.428823 -0.813786
v 2.446706 12.403140 -0.804580
v 2.297927 12.291869 -0.819560
v 2.326825 12.266186 -0.810353
v 2.322980 12.269172 -0.801344
v 2.442861 12.406126 -0.795571
vn 0.7272 -0.6246 -0.2847
vn 0.5327 -0.4357 -0.7256
vn 0.1942 -0.1290 -0.9724
vn 0.7273 -0.6463 0.2310
vn 0.5344 -0.4966 0.6840
vn 0.1977 -0.2134 0.9568
vn 0.6583 0.7521 0.0317
vn 0.7272 -0.6463 0.2310
vn 0.6609 0.7499 0.0307
vn 0.6609 0.7498 0.0325
vn 0.6602 0.7503 0.0342
vn 0.6602 0.7503 0.0341
vn 0.6602 0.7506 0.0291
vn 0.6602 0.7505 0.0291
vn 0.6590 0.7516 0.0283
vn 0.6590 0.7516 0.0284
vn -0.1977 0.2134 -0.9568
vn -0.5344 0.4966 -0.6840
vn 0.6576 0.7528 0.0284
vn 0.6564 0.7538 0.0293
vn 0.6577 0.7528 0.0283
vn 0.6564 0.7539 0.0293
vn -0.1942 0.1290 0.9724
vn 0.5343 -0.4966 0.6840
vn 0.6557 0.7544 0.0309
vn 0.6557 0.7544 0.0308
vn 0.6558 0.7543 0.0327
vn 0.6564 0.7536 0.0342
vn -0.7272 0.6246 0.2847
vn -0.7273 0.6463 -0.2310
vn -0.5327 0.4357 0.7256
vn 0.6565 0.7536 0.0343
vn 0.6576 0.7525 0.0351
vn 0.6577 0.7525 0.0351
vn 0.6590 0.7513 0.0351
vn -0.7272 0.6463 -0.2310
vn 0.6583 0.7521 0.0309
vn -0.5343 0.4966 -0.6840
vn -0.0000 -0.0000 1.0000
vn 0.7041 0.7101 -0.0000
vn 0.7041 0.7102 -0.0000
vn 0.7040 0.7102 -0.0000
vn -0.0043 1.0000 -0.0000
vn -0.8339 0.5520 -0.0000
vn -0.7101 0.7041 -0.0000
vn -0.9255 0.3787 -0.0000
vn -0.9222 -0.3867 -0.0000
vn -0.8291 -0.5592 -0.0000
vn -0.8291 -0.5591 -0.0000
vn -0.5520 -0.8339 -0.0000
vn -0.0000 -0.0000 -1.0000
vn 0.7101 -0.7041 -0.0000
vn 0.5592 -0.8291 -0.0000
vn 1.0000 0.0043 -0.0000
vn 0.3867 -0.9222 -0.0000
vn -0.3787 -0.9255 -0.0000
vn 0.9255 -0.3787 -0.0000
vn -0.3867 0.9222 -0.0000
vn 0.3787 0.9255 -0.0000
vn 0.9222 0.3867 -0.0000
vn -0.4278 0.9039 -0.0000
vn -0.1793 0.9838 -0.0000
vn 0.0814 0.9967 -0.0000
vn -0.9967 0.0814 -0.0000
vn -0.9416 0.3366 -0.0000
vn -0.9039 -0.4278 -0.0000
vn -0.7623 -0.6472 -0.0000
vn 0.8224 -0.5689 -0.0000
vn 0.6472 -0.7623 -0.0000
vn 0.1793 -0.9838 -0.0000
vn -0.0964 0.9953 -0.0000
vn -0.0814 -0.9967 -0.0000
vn -0.5689 -0.8224 -0.0000
vn -0.8224 0.5689 -0.0000
vn 0.4738 -0.8806 -0.0000
vn 0.7174 -0.6963 -0.0238
vn 0.7173 -0.6963 -0.0238
vn 0.0383 0.0736 -0.9966
vn -0.7173 0.6963 0.0238
vn -0.7174 0.6963 0.0238
vn -0.6898 -0.7146 0.1165
vn -0.6613 -0.6912 0.2913
vn -0.6748 -0.6859 -0.2724
vn -0.6332 -0.6373 -0.4392
vn -0.0383 -0.0736 0.9966
vn 0.6332 0.6373 0.4392
vn 0.6748 0.6859 0.2724
vn 0.6898 0.7146 -0.1165
vn 0.6613 0.6912 -0.2913
vn -0.6957 -0.7140 -0.0795
vn 0.6957 0.7140 0.0795
vn -0.9172 -0.3932 -0.0643
vn -0.9290 0.3701 -0.0084
vn -0.9172 -0.3931 -0.0643
vn 0.3682 0.9261 0.0825
vn -0.3965 0.9165 0.0524
vn 0.3682 0.9261 0.0826
vn -0.7937 0.0323 -0.6075
vn 0.0096 0.8567 -0.5157
vn 0.6648 0.6944 -0.2755
vn 0.6379 0.6427 0.4243
vn -0.6379 -0.6427 -0.4243
vn -0.8379 -0.0527 0.5432
vn -0.6648 -0.6943 0.2755
vn -0.0346 0.7717 0.6350
vn 0.6648 0.6943 -0.2755
vn 0.2492 0.6421 0.7250
vn 0.4936 0.4838 0.7227
vn 0.5446 0.5817 -0.6041
vn 0.7100 0.3424 -0.6154
vn 0.3003 0.7400 -0.6018
vn 0.7187 -0.2272 -0.6571
vn -0.6677 0.3251 -0.6697
vn -0.2704 0.7329 -0.6243
vn 0.0141 0.7931 -0.6089
vn -0.0370 0.6952 0.7179
vn -0.2492 -0.6421 -0.7250
vn 0.7711 0.0583 -0.6341
vn 0.7201 -0.0397 0.6928
vn 0.6677 -0.3251 0.6697
vn 0.5608 -0.4706 -0.6812
vn 0.3214 -0.6349 -0.7025
vn 0.5098 -0.5686 0.6456
vn 0.2704 -0.7329 0.6243
vn 0.0370 -0.6951 -0.7179
vn -0.0141 -0.7931 0.6089
vn -0.3003 -0.7400 0.6018
vn -0.5446 -0.5818 0.6041
vn -0.7711 -0.0583 0.6341
vn -0.4936 -0.4838 -0.7227
vn -0.6589 -0.2444 -0.7114
vn -0.7099 -0.3424 0.6154
vn -0.7200 0.0397 -0.6928
vn -0.7187 0.2272 0.6572
vn -0.5608 0.4706 0.6812
vn -0.5098 0.5686 -0.6456
vn -0.3214 0.6349 0.7025
vn 0.6589 0.2444 0.7114
vn 0.3016 0.3412 -0.8903
vn -0.5376 0.5908 -0.6017
vn -0.2308 -0.2052 -0.9511
vn -0.8507 0.2631 -0.4550
vn -0.4648 -0.4528 -0.7609
vn -0.7051 0.4172 -0.5734
vn -0.6628 0.3333 -0.6705
vn -0.8318 0.1545 -0.5331
vn -0.9497 0.0255 -0.3120
vn -0.6280 -0.6315 -0.4548
vn -0.9986 -0.0341 -0.0409
vn -0.6574 -0.6878 0.3079
vn -0.9709 -0.0152 0.2389
vn -0.8710 0.0793 0.4849
vn -0.5190 -0.5569 0.6485
vn -0.7140 0.2351 0.6595
vn -0.3016 -0.3412 0.8903
vn -0.5238 0.4284 0.7363
vn -0.3294 0.6298 0.7034
vn 0.2308 0.2052 0.9511
vn -0.1604 0.8086 0.5660
vn 0.4648 0.4528 0.7609
vn -0.0425 0.9377 0.3450
vn 0.6280 0.6315 0.4548
vn 0.0064 0.9972 0.0739
vn -0.0213 0.9783 -0.2059
vn 0.6574 0.6878 -0.3079
vn 0.5190 0.5569 -0.6485
vn -0.1212 0.8838 -0.4519
vn -0.2782 0.7280 -0.6266
vn -0.4684 0.5347 -0.7033
vn -0.3737 0.7573 -0.5355
vn -0.2384 0.8916 -0.3850
vn -0.1522 0.9731 -0.1731
vn -0.1284 0.9894 0.0681
vn -0.1705 0.9380 0.3017
vn -0.2721 0.8268 0.4923
vn -0.4178 0.6727 0.6107
vn -0.5853 0.4991 0.6390
vn -0.8845 0.1983 0.4223
vn -0.7492 0.3326 0.5728
vn -0.9706 0.1168 0.2103
vn -0.9945 0.1005 -0.0308
vn -0.9524 0.1519 -0.2645
vn -0.0372 -0.9968 0.0711
vn 0.0913 -0.7904 -0.6057
vn 0.6069 -0.3058 -0.7336
vn 0.8130 -0.0873 0.5757
vn 0.9923 0.0697 -0.1028
vn 0.8551 -0.0065 -0.5185
vn -0.3482 0.6213 -0.7019
vn 0.4044 -0.5136 -0.7567
vn 0.0372 0.9968 -0.0710
vn 0.9811 0.0483 0.1874
vn 0.0260 0.9754 0.2191
vn -0.0913 0.7904 0.6057
vn -0.4043 0.5136 0.7568
vn -0.0491 0.8712 -0.4885
vn -0.5508 0.4135 -0.7251
vn -0.9811 -0.0483 -0.1874
vn -0.8130 0.0873 -0.5757
vn -0.9923 -0.0697 0.1028
vn -0.8551 0.0065 0.5185
vn -0.0260 -0.9754 -0.2191
vn -0.6069 0.3058 0.7336
vn 0.0492 -0.8712 0.4884
vn 0.3482 -0.6213 0.7019
vn 0.5508 -0.4135 0.7250
vn -0.7527 0.6574 0.0362
vn -0.6576 -0.7532 0.0124
vn 0.0010 -0.0430 0.9991
vn -0.0020 0.0405 -0.9992
vn 0.7527 -0.6580 -0.0220
vn -0.0020 0.0407 -0.9992
vn -0.0023 0.0415 -0.9991
vn -0.0021 0.0406 -0.9992
vn -0.0010 0.0430 -0.9991
vn -0.7527 0.6580 0.0220
vn -0.6577 -0.7494 -0.0757
vn 0.7527 -0.6574 -0.0361
vn 0.7527 -0.6574 -0.0362
vn -0.0001 -0.0451 0.9990
vn -0.0000 -0.0455 0.9990
vn -0.0002 -0.0449 0.9990
vn -0.0003 -0.0445 0.9990
vn -0.7527 0.6577 0.0291
vn -0.6583 -0.7521 -0.0317
vn 0.0015 -0.0425 0.9991
vn 0.0110 -0.0598 0.9981
vn 0.0120 -0.0616 0.9980
vn -0.0002 0.0416 -0.9991
vn 0.7527 -0.6577 -0.0291
vn -0.0003 0.0417 -0.9991
vn 0.0026 0.0365 -0.9993
vn 0.0192 -0.9989 -0.0430
vn 0.0488 -0.1281 0.9906
vn -0.3755 0.2916 0.8798
vn -0.6524 0.5911 -0.4743
vn -0.6524 0.5911 -0.4744
vn 0.3755 -0.2916 -0.8798
vn 0.6524 -0.5911 0.4744
vn 0.6524 -0.5911 0.4743
vn 0.6524 -0.5910 0.4744
vn 0.6583 0.7521 0.0318
vn 0.6160 -0.5141 -0.5968
vn 0.6160 -0.5141 -0.5969
vn 0.4326 -0.4124 0.8017
vn -0.4326 0.4125 -0.8017
vn -0.6160 0.5141 0.5969
vn -0.6160 0.5141 0.5968
vn 0.0668 -0.9968 -0.0429
vn 0.0668 -0.9968 -0.0430
vn -0.9978 -0.0668 -0.0019
vn -0.6098 0.7918 0.0347
vn -0.9978 -0.0667 -0.0019
vn -0.2601 0.9647 0.0418
vn 0.1292 0.9907 0.0425
vn 0.4988 0.8659 0.0368
vn 0.9978 0.0667 0.0019
vn 0.9978 0.0668 0.0019
vn 0.5567 -0.8299 -0.0363
vn 0.8975 -0.4406 -0.0199
vn -0.4411 -0.8967 -0.0381
vn -0.8307 -0.5562 -0.0231
vn -0.4411 -0.8967 -0.0382
vn -0.0011 0.0430 -0.9991
vn 0.8307 0.5562 0.0231
vn 0.4411 0.8967 0.0381
vn -0.0668 0.9968 0.0430
vn 0.4411 0.8967 0.0382
vn -0.0667 0.9968 0.0430
vn -0.5567 0.8299 0.0363
vn -0.0010 0.0431 -0.9991
vn -0.8975 0.4406 0.0199
vn 0.6583 0.7521 0.0316
vn -0.5326 0.4357 0.7256
vn 0.1976 -0.2134 0.9568
vn 0.5326 -0.4357 -0.7256
vn -0.1943 0.1290 0.9724
vn -0.3755 0.2916 0.8797
vn 0.6523 -0.5910 0.4745
vn -0.6524 0.5910 -0.4744
vn 0.3755 -0.2916 -0.8797
vn -0.6525 0.5912 -0.4741
vn -0.6522 0.5908 -0.4750
vn 0.6524 -0.5911 0.4742
vn 0.6584 0.7520 0.0316
vt 0.562160 0.317517
vt 0.537595 0.317517
vt 0.537595 0.244308
vt 0.805912 0.317517
vt 0.785932 0.244308
vt 0.805912 0.244308
vt 0.785932 0.317517
vt 0.582489 0.317517
vt 0.562160 0.244308
vt 0.582489 0.244308
vt 0.607098 0.317517
vt 0.627253 0.317517
vt 0.607098 0.244308
vt 0.738268 0.960362
vt 0.725955 0.981536
vt 0.716210 0.953515
vt 0.627253 0.244308
vt 0.708907 0.966075
vt 0.700055 0.996489
vt 0.695049 0.974075
vt 0.533454 0.352316
vt 0.521001 0.416633
vt 0.521001 0.352316
vt 0.547170 0.352316
vt 0.547170 0.416633
vt 0.533454 0.416633
vt 0.559724 0.352316
vt 0.559724 0.416633
vt 0.783531 0.848750
vt 0.799412 0.862455
vt 0.780580 0.862513
vt 0.817229 0.852168
vt 0.806700 0.842815
vt 0.796489 0.848710
vt 0.680403 0.974121
vt 0.675350 0.996566
vt 0.666545 0.966177
vt 0.573415 0.416633
vt 0.573415 0.352316
vt 0.762763 0.852300
vt 0.773320 0.842897
vt 0.766902 0.831859
vt 0.753450 0.836284
vt 0.585766 0.352316
vt 0.585766 0.416633
vt 0.649450 0.981720
vt 0.659301 0.953721
vt 0.637244 0.960729
vt 0.637244 0.930930
vt 0.659301 0.937777
vt 0.599433 0.352316
vt 0.599433 0.416633
vt 0.611886 0.352316
vt 0.611886 0.416633
vt 0.753450 0.815785
vt 0.762840 0.799637
vt 0.766902 0.820111
vt 0.773368 0.808991
vt 0.962003 0.844954
vt 0.994395 0.844954
vt 0.994395 0.858007
vt 0.962003 0.858007
vt 0.994395 0.872300
vt 0.780657 0.789351
vt 0.783579 0.803096
vt 0.962003 0.872300
vt 0.994395 0.885401
vt 0.895523 0.477370
vt 0.902746 0.465036
vt 0.914112 0.458521
vt 0.962003 0.885401
vt 0.939836 0.465060
vt 0.928510 0.458521
vt 0.994395 0.899799
vt 0.962003 0.899799
vt 0.994395 0.912876
vt 0.962003 0.912876
vt 0.796537 0.803056
vt 0.799488 0.789292
vt 0.806748 0.808909
vt 0.638155 0.352316
vt 0.638155 0.416633
vt 0.625601 0.416633
vt 0.651846 0.416633
vt 0.817305 0.799505
vt 0.651846 0.352316
vt 0.664198 0.352316
vt 0.664198 0.416633
vt 0.826619 0.815521
vt 0.813167 0.819946
vt 0.826619 0.836021
vt 0.813167 0.831695
vt 0.962003 0.775898
vt 0.994395 0.762844
vt 0.994395 0.775898
vt 0.962003 0.762844
vt 0.994395 0.927063
vt 0.962003 0.927063
vt 0.946889 0.490400
vt 0.928300 0.509248
vt 0.946929 0.477346
vt 0.939666 0.502733
vt 0.994395 0.790191
vt 0.962003 0.790191
vt 0.962003 0.803291
vt 0.994395 0.817689
vt 0.962003 0.817689
vt 0.913902 0.509248
vt 0.902576 0.502709
vt 0.994395 0.803291
vt 0.962003 0.830767
vt 0.895483 0.490423
vt 0.994395 0.830767
vt 0.716210 0.937571
vt 0.738268 0.930563
vt 0.726062 0.909572
vt 0.708967 0.925115
vt 0.507335 0.352316
vt 0.507335 0.416633
vt 0.671754 0.244308
vt 0.696319 0.317517
vt 0.671754 0.317517
vt 0.651774 0.244308
vt 0.696319 0.244308
vt 0.700162 0.894726
vt 0.716648 0.317517
vt 0.716648 0.244308
vt 0.695109 0.917171
vt 0.675457 0.894803
vt 0.741257 0.317517
vt 0.741257 0.244308
vt 0.666605 0.925217
vt 0.649557 0.909756
vt 0.680462 0.917217
vt 0.625601 0.352316
vt 0.761412 0.317517
vt 0.761411 0.244308
vt 0.651774 0.317517
vt 0.759513 0.131398
vt 0.808442 0.131398
vt 0.825680 0.148636
vt 0.126907 0.155025
vt 0.117058 0.135216
vt 0.126907 0.135216
vt 0.126907 0.125347
vt 0.083291 0.454278
vt 0.073442 0.454278
vt 0.073442 0.164895
vt 0.083291 0.164895
vt 0.117058 0.125347
vt 0.825680 0.863413
vt 0.820631 0.875602
vt 0.759513 0.880651
vt 0.083291 0.459620
vt 0.073442 0.459620
vt 0.808442 0.880651
vt 0.083291 0.464961
vt 0.073442 0.464961
vt 0.083291 0.484771
vt 0.115013 0.459213
vt 0.110079 0.461257
vt 0.090269 0.461257
vt 0.117058 0.164895
vt 0.085335 0.459213
vt 0.126907 0.164895
vt 0.126907 0.454278
vt 0.117058 0.155025
vt 0.090270 0.157916
vt 0.110079 0.157916
vt 0.117058 0.454278
vt 0.742275 0.863413
vt 0.742275 0.148636
vt 0.747324 0.875602
vt 0.083291 0.495454
vt 0.073442 0.495454
vt 0.073442 0.490112
vt 0.083291 0.490112
vt 0.073442 0.484771
vt 0.862039 0.863413
vt 0.862040 0.148636
vt 0.879278 0.131398
vt 0.083465 0.454030
vt 0.073616 0.164646
vt 0.083465 0.164646
vt 0.127081 0.125097
vt 0.117232 0.134967
vt 0.117232 0.125097
vt 0.127081 0.154776
vt 0.117232 0.154777
vt 0.127081 0.134967
vt 0.928207 0.131398
vt 0.945445 0.148636
vt 0.127081 0.164646
vt 0.117232 0.164646
vt 0.945444 0.863413
vt 0.940395 0.875602
vt 0.117232 0.454030
vt 0.879277 0.880651
vt 0.073616 0.495205
vt 0.083465 0.489863
vt 0.083465 0.495205
vt 0.928206 0.880651
vt 0.073616 0.489864
vt 0.083465 0.484522
vt 0.046828 0.461009
vt 0.041893 0.458965
vt 0.039849 0.454030
vt 0.073616 0.484522
vt 0.046828 0.157667
vt 0.073616 0.464713
vt 0.071572 0.458965
vt 0.066637 0.461009
vt 0.073616 0.459371
vt 0.083465 0.459371
vt 0.083465 0.464713
vt 0.073616 0.454030
vt 0.867088 0.875602
vt 0.039849 0.164646
vt 0.127081 0.454030
vt 0.066637 0.157667
vt 0.091931 0.038640
vt 0.103801 0.038640
vt 0.103801 0.044417
vt 0.115671 0.044417
vt 0.115671 0.038640
vt 0.110652 0.103612
vt 0.110652 0.119043
vt 0.099740 0.129955
vt 0.084309 0.092701
vt 0.099740 0.092701
vt 0.080061 0.044417
vt 0.080061 0.038640
vt 0.068191 0.044417
vt 0.084309 0.129955
vt 0.073398 0.119043
vt 0.068191 0.038640
vt 0.056321 0.038640
vt 0.056321 0.044417
vt 0.044451 0.044417
vt 0.073398 0.103612
vt 0.044451 0.038640
vt 0.032581 0.044417
vt 0.032581 0.038640
vt 0.127541 0.038640
vt 0.127541 0.044417
vt 0.091931 0.044417
vt 0.045191 0.038700
vt 0.057061 0.038700
vt 0.057061 0.044477
vt 0.068931 0.044477
vt 0.068931 0.038700
vt 0.084172 0.130312
vt 0.073261 0.119401
vt 0.073261 0.103970
vt 0.099603 0.093058
vt 0.084172 0.093058
vt 0.033321 0.038700
vt 0.045191 0.044477
vt 0.033321 0.044477
vt 0.116411 0.038700
vt 0.128281 0.038700
vt 0.128281 0.044477
vt 0.116411 0.044477
vt 0.104541 0.044477
vt 0.104541 0.038700
vt 0.092671 0.044477
vt 0.080801 0.038700
vt 0.080801 0.044477
vt 0.092671 0.038700
vt 0.110514 0.119401
vt 0.099603 0.130312
vt 0.110514 0.103970
vt 0.036480 0.146832
vt 0.036361 0.159427
vt -0.002620 0.159059
vt -0.002501 0.146465
vt 0.089189 0.070066
vt 0.072594 0.086322
vt 0.067351 0.070066
vt 0.083158 0.079933
vt 0.095363 0.078072
vt 0.107348 0.081034
vt 0.108102 0.080985
vt 0.036242 0.172021
vt -0.002739 0.171653
vt 0.109182 0.142560
vt 0.110004 0.142616
vt 0.090087 0.153675
vt 0.096666 0.145432
vt 0.083968 0.143279
vt 0.067309 0.153294
vt 0.073061 0.136430
vt 0.065606 0.125928
vt 0.047773 0.141575
vt 0.036725 0.120895
vt 0.062737 0.113373
vt 0.036718 0.121644
vt -0.002264 0.121276
vt 0.036599 0.134238
vt -0.002358 0.108680
vt 0.036632 0.108389
vt 0.037519 0.099898
vt 0.064188 0.120461
vt 0.037519 0.121736
vt 0.036720 0.120310
vt 0.062328 0.108256
vt 0.048438 0.080985
vt -0.002382 0.133870
vt 0.065280 0.096268
vt 0.070578 0.131025
vt 0.080524 0.138340
vt 0.048438 0.140649
vt 0.092512 0.141291
vt 0.067351 0.151569
vt 0.089189 0.151569
vt 0.104717 0.139431
vt 0.108102 0.140649
vt -0.002734 0.058292
vt 0.036350 0.070598
vt -0.002640 0.070889
vt -0.002546 0.083486
vt 0.036256 0.058001
vt 0.107611 0.081826
vt 0.091698 0.068830
vt 0.111166 0.080631
vt 0.036444 0.083195
vt 0.068937 0.068343
vt 0.082372 0.082424
vt 0.094932 0.079615
vt -0.002750 0.056217
vt 0.036240 0.055926
vt 0.071843 0.089826
vt 0.048982 0.079302
vt 0.064948 0.100694
vt 0.037181 0.098770
vt 0.036538 0.095792
vt -0.002452 0.096083
vt 0.036232 0.172701
vt -0.002750 0.172333
vt 0.387584 0.084166
vt 0.365137 0.094766
vt 0.365137 0.077745
vt 0.379460 0.072008
vt 0.365137 0.057667
vt 0.312776 0.318896
vt 0.326973 0.304699
vt 0.353472 0.331198
vt 0.365508 0.319162
vt 0.339009 0.292663
vt 0.379460 0.043325
vt 0.376608 0.057667
vt 0.365137 0.037589
vt 0.298579 0.333093
vt 0.339275 0.345396
vt 0.325078 0.359593
vt 0.365137 0.079234
vt 0.365137 0.059156
vt 0.434161 0.010684
vt 0.365137 0.039078
vt 0.463030 0.079234
vt 0.434161 0.107629
vt 0.389900 0.241772
vt 0.416399 0.268271
vt 0.401924 0.282747
vt 0.411840 0.219831
vt 0.438340 0.246331
vt 0.463030 0.059156
vt 0.463030 0.039078
vt 0.463030 0.022057
vt 0.394006 0.010684
vt 0.414084 0.006690
vt 0.360949 0.270723
vt 0.387449 0.297222
vt 0.375425 0.256247
vt 0.399742 0.092290
vt 0.394006 0.106139
vt 0.414084 0.095142
vt 0.414084 0.110133
vt 0.434161 0.106139
vt 0.428425 0.092290
vt 0.440583 0.084166
vt 0.463030 0.094766
vt 0.463030 0.077745
vt 0.448707 0.072008
vt 0.463030 0.057667
vt 0.451559 0.057667
vt 0.448707 0.043325
vt 0.440583 0.031167
vt 0.463030 0.037589
vt 0.463030 0.020567
vt 0.452271 0.179401
vt 0.464573 0.220098
vt 0.438073 0.193598
vt 0.478770 0.205901
vt 0.464307 0.167365
vt 0.434161 0.009194
vt 0.486247 0.145425
vt 0.512746 0.171924
vt 0.490806 0.193865
vt 0.463030 0.096255
vt 0.428425 0.023043
vt 0.414083 0.020191
vt 0.414083 0.005200
vt 0.500722 0.130949
vt 0.515198 0.116474
vt 0.541697 0.142974
vt 0.394006 0.009194
vt 0.527222 0.157449
vt 0.537138 0.094534
vt 0.563638 0.121033
vt 0.394006 0.107629
vt 0.365137 0.096255
vt 0.414083 0.111622
vt 0.286543 0.345129
vt 0.313042 0.371629
vt 0.387584 0.031167
vt 0.365137 0.020567
vt 0.399742 0.023043
vt 0.450376 0.234295
vt 0.423876 0.207796
vt 0.365137 0.022057
vt 0.522034 0.071463
vt 0.536874 0.086302
vt 0.461435 0.161741
vt 0.583119 0.018173
vt 0.697427 0.018173
vt 0.697427 0.118109
vt 0.696705 0.115478
vt 0.557227 0.105052
vt 0.546801 0.051138
vt 0.582397 0.015542
vt 0.696705 0.015542
vt 0.582397 0.115478
vt 0.446595 0.146902
vt 0.355705 0.237792
vt 0.295105 0.328071
vt 0.280266 0.313231
vt 0.428615 0.164882
vt 0.546801 0.079883
vt 0.443455 0.179721
vt 0.410635 0.182862
vt 0.425475 0.197701
vt 0.547523 0.053769
vt 0.557949 0.028599
vt 0.557949 0.107683
vt 0.547523 0.082513
vt 0.391665 0.201832
vt 0.406504 0.216672
vt 0.388525 0.234652
vt 0.370545 0.252632
vt 0.373685 0.219812
vt 0.583119 0.118109
vt 0.557227 0.025968
vt 0.291933 0.327512
vt 0.277093 0.312672
vt 0.352532 0.237233
vt 0.583119 0.017152
vt 0.697427 0.017152
vt 0.697427 0.117087
vt 0.458262 0.161182
vt 0.443422 0.146343
vt 0.518862 0.070903
vt 0.533701 0.085743
vt 0.583119 0.117087
vt 0.557949 0.106662
vt 0.425442 0.164322
vt 0.407462 0.182302
vt 0.440282 0.179162
vt 0.547523 0.081492
vt 0.547523 0.052747
vt 0.370512 0.219253
vt 0.388492 0.201273
vt 0.403332 0.216113
vt 0.422302 0.197142
vt 0.557949 0.027577
vt 0.385352 0.234092
vt 0.696705 0.119718
vt 0.582397 0.119718
vt 0.557227 0.109292
vt 0.367372 0.252072
vt 0.546801 0.084122
vt 0.546801 0.055378
vt 0.582397 0.019782
vt 0.557227 0.030208
vt 0.696705 0.019782
vt 0.580852 0.146243
vt 0.691746 0.147570
vt 0.688723 0.858776
vt 0.557124 0.053931
vt 0.679770 0.048875
vt 0.679746 0.054452
vt 0.676532 0.848430
vt 0.654403 0.833258
vt 0.628151 0.827709
vt 0.601776 0.832628
vt 0.579290 0.847266
vt 0.566549 0.865538
vt 0.556784 0.078691
vt 0.556896 0.073051
vt 0.680912 0.075517
vt 0.680800 0.081157
vt 0.556250 0.098026
vt 0.678963 0.083255
vt 0.676256 0.087072
vt 0.675217 0.091635
vt 0.676003 0.096248
vt 0.678494 0.100209
vt 0.681646 0.102481
vt 0.557148 0.048354
vt 0.551144 0.078535
vt 0.550610 0.097870
vt 0.557105 0.078806
vt 0.557193 0.073165
vt 0.681243 0.075104
vt 0.681154 0.080745
vt 0.678082 0.072920
vt 0.678212 0.056150
vt 0.675612 0.059977
vt 0.674674 0.064508
vt 0.557340 0.054040
vt 0.679987 0.054040
vt 0.551762 0.053997
vt 0.551615 0.073122
vt 0.675542 0.069053
vt 0.679987 0.048462
vt 0.557340 0.048462
vt 0.397997 0.866867
vt 0.420752 0.139323
vt 0.532927 0.141943
vt 0.411098 0.848528
vt 0.434016 0.833977
vt 0.460758 0.829304
vt 0.487253 0.835220
vt 0.509466 0.850825
vt 0.521681 0.861431
vt 0.611682 0.036614
vt 0.607413 0.036614
vt 0.607413 0.014733
vt 0.603145 0.014733
vt 0.653929 0.117044
vt 0.652114 0.121425
vt 0.648760 0.124779
vt 0.611682 0.014733
vt 0.639635 0.126594
vt 0.644378 0.102750
vt 0.652114 0.107919
vt 0.653929 0.112301
vt 0.615951 0.036614
vt 0.615951 0.014733
vt 0.630084 0.112301
vt 0.644378 0.126594
vt 0.598876 0.036614
vt 0.594607 0.014733
vt 0.598876 0.014733
vt 0.594607 0.036614
vt 0.590339 0.014733
vt 0.635253 0.124779
vt 0.631899 0.121425
vt 0.590339 0.036614
vt 0.586070 0.014733
vt 0.586070 0.036614
vt 0.581802 0.014733
vt 0.630084 0.117044
vt 0.581802 0.036614
vt 0.577533 0.014733
vt 0.643987 0.102551
vt 0.651723 0.107720
vt 0.653538 0.116845
vt 0.648369 0.104366
vt 0.577533 0.036614
vt 0.634862 0.104366
vt 0.639244 0.102551
vt 0.629694 0.112102
vt 0.573264 0.036614
vt 0.573264 0.014733
vt 0.568996 0.014733
vt 0.568996 0.036614
vt 0.631509 0.107720
vt 0.637294 0.036614
vt 0.633025 0.014733
vt 0.637294 0.014733
vt 0.633025 0.036614
vt 0.635253 0.104565
vt 0.639635 0.102750
vt 0.628757 0.014733
vt 0.631899 0.107919
vt 0.628757 0.036614
vt 0.631509 0.121227
vt 0.629694 0.116845
vt 0.639244 0.126396
vt 0.624488 0.036614
vt 0.624488 0.014733
vt 0.620219 0.014733
vt 0.620219 0.036614
vt 0.634862 0.124581
vt 0.648760 0.104565
vt 0.653538 0.112102
vt 0.648369 0.124581
vt 0.651723 0.121227
vt 0.603145 0.036614
vt 0.643987 0.126396
vt 0.649919 0.016570
vt 0.647358 0.035606
vt 0.647358 0.016570
vt 0.644797 0.016570
vt 0.642236 0.035606
vt 0.642236 0.016570
vt 0.644797 0.035606
vt 0.670009 0.105863
vt 0.673857 0.105126
vt 0.672638 0.106952
vt 0.676475 0.107745
vt 0.674649 0.108965
vt 0.673194 0.045317
vt 0.676893 0.037595
vt 0.676893 0.045317
vt 0.677892 0.111165
vt 0.680593 0.037595
vt 0.680593 0.045317
vt 0.621401 0.037595
vt 0.625101 0.045317
vt 0.621401 0.045317
vt 0.625101 0.037595
vt 0.628800 0.037595
vt 0.628800 0.045317
vt 0.632500 0.045317
vt 0.632500 0.037595
vt 0.636199 0.045317
vt 0.636199 0.037595
vt 0.639899 0.045317
vt 0.639899 0.037595
vt 0.643598 0.045317
vt 0.643598 0.037595
vt 0.647298 0.045317
vt 0.647298 0.037595
vt 0.650997 0.045317
vt 0.650997 0.037595
vt 0.654696 0.037595
vt 0.654696 0.045317
vt 0.658396 0.045317
vt 0.658396 0.037595
vt 0.662095 0.037595
vt 0.662095 0.045317
vt 0.665795 0.045317
vt 0.665795 0.037595
vt 0.669494 0.045317
vt 0.669494 0.037595
vt 0.673194 0.037595
vt 0.670437 0.103710
vt 0.667164 0.105863
vt 0.666735 0.103710
vt 0.649919 0.035606
vt 0.652480 0.016570
vt 0.652480 0.035606
vt 0.664535 0.106952
vt 0.663315 0.105126
vt 0.662523 0.108963
vt 0.660698 0.107744
vt 0.655042 0.035606
vt 0.657603 0.016570
vt 0.657603 0.035606
vt 0.655042 0.016570
vt 0.661435 0.111592
vt 0.661435 0.114437
vt 0.659281 0.114865
vt 0.660164 0.035606
vt 0.659282 0.111164
vt 0.662725 0.016570
vt 0.662725 0.035606
vt 0.660164 0.016570
vt 0.662524 0.117066
vt 0.664535 0.119078
vt 0.663316 0.120904
vt 0.665286 0.035606
vt 0.660698 0.118286
vt 0.667848 0.035606
vt 0.665286 0.016570
vt 0.667164 0.120168
vt 0.667848 0.016570
vt 0.670409 0.016570
vt 0.672970 0.035606
vt 0.672970 0.016570
vt 0.670409 0.035606
vt 0.672638 0.119079
vt 0.670438 0.122321
vt 0.670009 0.120168
vt 0.675531 0.016570
vt 0.675531 0.035606
vt 0.674650 0.117068
vt 0.673858 0.120904
vt 0.678092 0.035606
vt 0.678092 0.016570
vt 0.680653 0.016570
vt 0.680653 0.035606
vt 0.675738 0.114439
vt 0.675738 0.111594
vt 0.677891 0.114867
vt 0.676475 0.118287
vt 0.639675 0.035606
vt 0.639675 0.016570
vt 0.666736 0.122321
vt 0.536160 0.056720
vt 0.548517 0.058057
vt 0.549855 0.070414
vt 0.532932 0.073642
vt 0.545290 0.074979
vt 0.560810 0.028576
vt 0.560810 0.032070
vt 0.549855 0.032070
vt 0.560810 0.041199
vt 0.549855 0.061285
vt 0.548517 0.073642
vt 0.549855 0.025082
vt 0.560810 0.025082
vt 0.560810 0.015953
vt 0.536160 0.074979
vt 0.549855 0.015953
vt 0.531595 0.025082
vt 0.520640 0.028576
vt 0.520640 0.025082
vt 0.531595 0.028576
vt 0.531595 0.032070
vt 0.536160 0.027505
vt 0.548517 0.028842
vt 0.532932 0.028842
vt 0.545290 0.027505
vt 0.549855 0.028576
vt 0.549855 0.041199
vt 0.545290 0.045764
vt 0.549855 0.044693
vt 0.548517 0.044427
vt 0.548783 0.045764
vt 0.548783 0.056720
vt 0.560810 0.044693
vt 0.536160 0.045764
vt 0.532932 0.044427
vt 0.545290 0.056720
vt 0.531595 0.041199
vt 0.532666 0.056720
vt 0.529173 0.045764
vt 0.532666 0.045764
vt 0.529173 0.056720
vt 0.520640 0.032070
vt 0.520640 0.041199
vt 0.531595 0.070414
vt 0.531595 0.061285
vt 0.532932 0.058057
vt 0.702733 0.627455
vt 0.680476 0.776565
vt 0.681162 0.626459
vt 0.915119 0.626737
vt 0.819713 0.605144
vt 0.914965 0.605144
vt 0.797985 0.627646
vt 0.702434 0.776609
vt 0.819558 0.776844
vt 0.915121 0.776844
vt 0.797685 0.776800
vt 0.819560 0.626737
vt 0.818999 0.778579
vt 0.818864 0.629424
vt 0.914116 0.629338
vt 0.914250 0.778493
vt 0.701562 0.778493
vt 0.679605 0.778412
vt 0.680153 0.629259
vt 0.701730 0.628386
vt 0.914250 0.607743
vt 0.818692 0.607829
vt 0.797126 0.778598
vt 0.797289 0.628491
vt 0.890586 0.328813
vt 0.890991 0.418491
vt 0.812040 0.418794
vt 0.949127 0.418229
vt 0.891213 0.476628
vt 0.811636 0.329170
vt 0.724791 0.329561
vt 0.725195 0.419186
vt 0.812319 0.505639
vt 0.811243 0.242324
vt 0.672336 0.417680
vt 0.890323 0.270676
vt 0.671940 0.329934
vt 0.864095 0.242086
vt 0.948723 0.328551
vt 0.987917 0.416256
vt 0.987521 0.328509
vt 0.865200 0.505469
vt 0.991114 0.544519
vt 0.908920 0.514892
vt 0.991114 0.514892
vt 0.991114 0.582047
vt 0.991114 0.589947
vt 0.908920 0.589947
vt 0.908920 0.552420
vt 0.991114 0.552420
vt 0.908920 0.582047
vt 0.901020 0.544519
vt 0.901020 0.514892
vt 0.908920 0.544519
vt 0.616587 0.822261
vt 0.652963 0.822261
vt 0.652963 0.851888
vt 0.616587 0.897316
vt 0.652963 0.889415
vt 0.652963 0.897316
vt 0.616587 0.889415
vt 0.608687 0.822261
vt 0.616587 0.851888
vt 0.608687 0.851888
vt 0.616587 0.859788
vt 0.652963 0.859788
vt 0.660863 0.822261
vt 0.660863 0.851888
vt 0.694918 0.553132
vt 0.687018 0.553132
vt 0.687018 0.523505
vt 0.694918 0.523505
vt 0.813426 0.590659
vt 0.694918 0.598560
vt 0.694918 0.590659
vt 0.694918 0.561032
vt 0.813426 0.561032
vt 0.813426 0.598560
vt 0.813426 0.553132
vt 0.813426 0.523505
vt 0.558039 0.473778
vt 0.578989 0.450373
vt 0.578989 0.473778
vt 0.558039 0.450373
vt 0.756065 0.473778
vt 0.803807 0.450373
vt 0.803807 0.473778
vt 0.578989 0.426967
vt 0.756065 0.450373
vt 0.803807 0.426967
vt 0.558039 0.426967
vt 0.903840 0.799880
vt 0.921617 0.817656
vt 0.921617 0.874948
vt 0.626731 0.426967
vt 0.882102 0.885206
vt 0.836291 0.810139
vt 0.846549 0.799880
vt 0.756065 0.426967
vt 0.743975 0.426967
vt 0.911358 0.885206
vt 0.743975 0.450373
vt 0.719595 0.426967
vt 0.743975 0.473778
vt 0.719595 0.450373
vt 0.703799 0.450373
vt 0.703799 0.426967
vt 0.719595 0.473778
vt 0.864589 0.877952
vt 0.843545 0.856907
vt 0.678997 0.426967
vt 0.663201 0.426967
vt 0.678997 0.450373
vt 0.836291 0.839395
vt 0.638821 0.450373
vt 0.663201 0.450373
vt 0.638821 0.426967
vt 0.626731 0.450373
vt 0.638821 0.473778
vt 0.626731 0.473778
vt 0.663201 0.473778
vt 0.678997 0.473778
vt 0.703799 0.473778
vt 0.745623 0.988337
vt 0.816728 0.996599
vt 0.745623 0.996599
vt 0.884296 0.564803
vt 0.900297 0.566716
vt 0.878559 0.574741
vt 0.884296 0.546791
vt 0.816728 0.869216
vt 0.745623 0.882185
vt 0.745623 0.869216
vt 0.816728 0.882185
vt 0.684260 0.929010
vt 0.692293 0.929010
vt 0.703212 0.935314
vt 0.669325 0.942270
vt 0.692293 0.968139
vt 0.707228 0.954879
vt 0.707228 0.942270
vt 0.816728 0.988337
vt 0.816728 0.975368
vt 0.745623 0.967107
vt 0.816728 0.967107
vt 0.745623 0.975369
vt 0.703212 0.961835
vt 0.869304 0.598560
vt 0.862960 0.583746
vt 0.851485 0.583746
vt 0.845142 0.598560
vt 0.888216 0.587641
vt 0.995228 0.951947
vt 0.962003 0.973785
vt 0.962003 0.951947
vt 0.995228 0.997947
vt 0.962003 0.997947
vt 0.995228 0.973785
vt 0.995228 0.927786
vt 0.928054 0.784683
vt 0.928054 0.762844
vt 0.961280 0.762844
vt 0.962003 0.927786
vt 0.961280 0.784683
vt 0.928054 0.808844
vt 0.900297 0.544878
vt 0.961280 0.808844
vt 0.888216 0.523953
vt 0.878559 0.536853
vt 0.745623 0.890447
vt 0.862960 0.527848
vt 0.816728 0.890447
vt 0.745623 0.903415
vt 0.816728 0.911677
vt 0.745623 0.911677
vt 0.851485 0.527848
vt 0.845142 0.513034
vt 0.869304 0.513034
vt 0.816728 0.903415
vt 0.673341 0.935314
vt 0.835887 0.536853
vt 0.826230 0.523953
vt 0.928054 0.876682
vt 0.961280 0.854844
vt 0.961280 0.876682
vt 0.928054 0.854844
vt 0.961280 0.830683
vt 0.928054 0.830683
vt 0.745623 0.924646
vt 0.816728 0.932908
vt 0.745623 0.932908
vt 0.830149 0.546791
vt 0.816728 0.924646
vt 0.673341 0.961835
vt 0.669325 0.954879
vt 0.745623 0.945876
vt 0.816728 0.945876
vt 0.684260 0.968139
vt 0.816728 0.954138
vt 0.745623 0.954138
vt 0.830149 0.564803
vt 0.835887 0.574741
vt 0.814149 0.566716
vt 0.814149 0.544878
vt 0.928054 0.922682
vt 0.961280 0.900844
vt 0.961280 0.922682
vt 0.928054 0.900844
vt 0.961280 0.946844
vt 0.928054 0.946844
vt 0.928054 0.968682
vt 0.826230 0.587641
vt 0.961280 0.968682
vt 0.990595 0.648760
vt 0.929181 0.663932
vt 0.929180 0.648760
vt 0.990595 0.636652
vt 0.929180 0.636652
vt 0.929180 0.621480
vt 0.929180 0.609372
vt 0.990595 0.621480
vt 0.990595 0.609372
vt 0.990595 0.594200
vt 0.929180 0.594200
vt 0.929181 0.745772
vt 0.990595 0.757879
vt 0.929181 0.757879
vt 0.990595 0.745772
vt 0.990595 0.730599
vt 0.929181 0.730599
vt 0.929181 0.718492
vt 0.990595 0.718492
vt 0.990595 0.703319
vt 0.929181 0.691212
vt 0.990595 0.691212
vt 0.929181 0.703319
vt 0.990595 0.676040
vt 0.929181 0.676040
vt 0.990595 0.663932
vt 0.912270 0.948841
vt 0.923894 0.956377
vt 0.897350 0.974683
vt 0.909606 0.981126
vt 0.494830 0.202378
vt 0.494830 0.173801
vt 0.507357 0.173801
vt 0.923894 0.927921
vt 0.494830 0.145344
vt 0.507357 0.202378
vt 0.507357 0.145344
vt 0.507357 0.116716
vt 0.494830 0.088480
vt 0.507357 0.088480
vt 0.494830 0.116716
vt 0.909657 0.903084
vt 0.885921 0.902702
vt 0.885292 0.888814
vt 0.489613 0.131072
vt 0.912270 0.918134
vt 0.897404 0.909427
vt 0.517136 0.217712
vt 0.532565 0.234161
vt 0.517136 0.234161
vt 0.517136 0.180764
vt 0.532565 0.180764
vt 0.912270 0.935361
vt 0.532565 0.217712
vt 0.532565 0.164103
vt 0.532565 0.127221
vt 0.517136 0.164103
vt 0.517136 0.127221
vt 0.517136 0.110984
vt 0.532565 0.110984
vt 0.885974 0.981251
vt 0.885343 0.995134
vt 0.517136 0.074168
vt 0.856818 0.995046
vt 0.856189 0.981159
vt 0.507357 0.230394
vt 0.494830 0.258919
vt 0.494830 0.230394
vt 0.507357 0.287155
vt 0.494830 0.287155
vt 0.507357 0.258919
vt 0.832453 0.980776
vt 0.507357 0.315784
vt 0.494830 0.315784
vt 0.844705 0.974433
vt 0.818216 0.955939
vt 0.507357 0.344240
vt 0.494830 0.344240
vt 0.829839 0.935019
vt 0.829839 0.948499
vt 0.818216 0.927483
vt 0.507357 0.003361
vt 0.494830 0.031939
vt 0.494830 0.003361
vt 0.832504 0.902734
vt 0.844759 0.909178
vt 0.532565 0.324096
vt 0.517136 0.287214
vt 0.532565 0.287214
vt 0.532565 0.270977
vt 0.517136 0.270977
vt 0.517136 0.324096
vt 0.856135 0.902609
vt 0.856766 0.888726
vt 0.507357 0.059955
vt 0.494830 0.059955
vt 0.507357 0.031939
vt 0.517136 0.004110
vt 0.532565 0.004110
vt 0.532565 0.020771
vt 0.517136 0.020771
vt 0.532565 0.057719
vt 0.517136 0.057719
vt 0.532565 0.074168
vt 0.687018 0.518358
vt 0.785346 0.501767
vt 0.785346 0.518358
vt 0.687018 0.522782
vt 0.785346 0.522782
vt 0.785346 0.497342
vt 0.687018 0.480751
vt 0.785346 0.480751
vt 0.687018 0.501767
vt 0.687018 0.497342
vt 0.579910 0.907991
vt 0.599193 0.816516
vt 0.598318 0.898963
vt 0.603200 0.901804
vt 0.603987 0.816560
vt 0.579904 0.816516
vt 0.574761 0.816516
vt 0.574767 0.907991
vt 0.555477 0.907992
vt 0.555471 0.816517
vt 0.583686 0.914547
s 1
usemtl SpacialRoverExploreralumWhite
f 37/68/7 41/69/7 42/70/7
f 37/68/7 42/70/7 43/72/7
f 42/70/7 44/73/7 43/72/7
f 43/72/7 56/99/7 57/100/7
f 43/72/7 55/101/7 56/99/7
f 56/99/7 58/102/7 57/100/7
f 37/68/7 43/72/7 57/100/7
f 57/100/7 59/108/7 60/109/7
f 57/100/7 60/109/7 37/68/7
f 60/109/7 36/112/37 37/68/7
f 74/142/40 75/143/41 73/144/42
f 76/145/43 73/144/43 75/143/43
f 77/146/44 79/147/44 76/148/45
f 77/146/44 76/148/45 78/149/45
f 76/145/43 75/143/43 78/150/43
f 79/147/44 83/154/46 81/155/46
f 81/155/47 84/157/48 82/158/49
f 81/155/47 83/154/47 84/157/48
f 85/159/50 82/158/49 84/157/48
f 86/160/51 85/161/51 84/162/51
f 87/163/51 86/160/51 84/162/51
f 84/162/51 83/164/51 77/146/51
f 87/163/51 84/162/51 77/146/51
f 87/163/52 88/165/52 91/166/53
f 87/163/54 74/142/54 88/165/54
f 87/163/54 89/167/54 74/142/54
f 77/146/51 75/168/51 87/163/51
f 75/168/51 89/169/51 87/163/51
f 87/163/51 90/170/51 86/160/51
f 87/163/52 91/166/53 90/170/53
f 90/174/53 91/175/53 92/176/55
f 86/177/56 92/176/56 80/178/50
f 90/174/53 92/176/55 86/177/55
f 74/142/40 89/167/40 75/143/41
f 86/177/56 80/178/50 85/159/50
f 85/159/50 80/178/50 82/158/49
f 79/147/44 77/146/44 83/154/46
f 77/146/51 78/149/51 75/168/51
f 94/182/44 95/183/45 93/184/45
f 95/185/43 96/186/43 93/187/43
f 97/188/40 99/189/40 96/186/42
f 97/188/40 96/186/42 98/190/42
f 95/185/43 98/190/43 96/186/43
f 102/193/54 100/194/54 99/189/54
f 101/197/53 100/194/52 102/193/52
f 106/199/53 104/200/55 101/201/53
f 107/203/56 105/204/50 104/200/56
f 106/199/53 107/203/55 104/200/55
f 108/205/39 107/206/39 106/207/39
f 107/203/56 108/208/50 105/204/50
f 108/205/39 106/207/39 97/209/39
f 108/205/39 97/209/39 95/183/39
f 105/204/50 108/208/50 109/210/49
f 95/183/39 110/211/39 108/205/39
f 110/211/39 109/212/39 108/205/39
f 110/213/47 111/214/47 103/215/48
f 112/216/44 111/214/46 110/213/46
f 95/183/39 112/216/39 110/211/39
f 110/213/47 103/215/48 109/210/49
f 112/216/44 94/182/44 111/214/46
f 94/182/44 112/216/44 95/183/45
f 105/204/50 109/210/49 103/215/48
f 106/207/39 102/218/39 97/209/39
f 101/197/53 102/193/52 106/219/53
f 102/193/54 99/189/54 97/188/54
f 97/209/39 98/220/39 95/183/39
f 116/221/55 113/222/55 114/223/55
f 113/222/57 115/224/57 114/223/57
f 113/222/57 117/225/57 115/224/57
f 113/226/51 116/227/51 119/228/51
f 118/229/51 117/230/51 113/226/51
f 118/229/51 113/226/51 119/228/51
f 116/221/56 120/231/56 119/232/56
f 119/232/47 120/231/47 122/233/47
f 119/228/51 121/234/51 123/235/51
f 119/232/47 122/233/47 121/236/47
f 119/228/51 123/235/51 118/229/51
f 123/237/58 124/238/58 126/239/58
f 121/236/46 124/238/46 123/237/46
f 123/235/51 125/240/51 118/229/51
f 123/237/58 126/239/58 125/241/58
f 125/241/59 126/239/59 127/242/59
f 125/241/59 127/242/59 118/243/59
f 118/244/60 127/245/60 115/224/60
f 121/236/46 122/233/46 124/238/46
f 116/221/56 128/246/56 120/231/56
f 116/221/55 114/223/55 128/246/55
f 118/244/60 115/224/60 117/225/60
f 133/247/57 129/248/57 130/249/57
f 129/248/55 131/250/55 130/249/55
f 129/248/55 132/251/55 131/250/55
f 132/252/39 129/253/39 133/254/39
f 132/252/39 133/254/39 134/255/39
f 133/254/39 135/256/39 134/255/39
f 135/257/60 133/247/60 136/258/60
f 133/247/57 130/249/57 136/258/57
f 135/257/60 136/258/60 137/259/60
f 134/260/59 135/261/59 137/262/59
f 134/260/59 137/262/59 138/263/59
f 134/260/58 138/263/58 139/264/58
f 140/265/46 139/264/46 141/266/46
f 134/260/58 139/264/58 140/265/58
f 143/267/47 141/266/47 142/268/47
f 140/265/46 141/266/46 144/269/46
f 143/267/47 144/269/47 141/266/47
f 134/255/39 144/270/39 132/252/39
f 144/270/39 143/271/39 132/252/39
f 134/255/39 140/272/39 144/270/39
f 132/251/56 143/267/56 142/268/56
f 132/251/56 142/268/56 131/250/56
f 146/273/61 154/274/62 145/275/62
f 146/273/61 145/275/62 147/276/61
f 145/277/51 148/278/51 147/279/51
f 148/278/51 145/277/51 149/280/51
f 149/280/51 145/277/51 150/281/51
f 145/277/51 151/282/51 150/281/51
f 145/277/51 152/283/51 151/282/51
f 145/275/62 153/284/63 152/285/63
f 145/275/62 154/274/62 153/284/63
f 155/286/39 153/287/39 154/288/39
f 155/286/39 154/288/39 156/289/39
f 156/289/39 154/288/39 157/290/39
f 157/290/39 154/288/39 146/291/39
f 158/292/39 157/290/39 146/291/39
f 160/293/39 158/292/39 159/294/39
f 146/291/39 159/294/39 158/292/39
f 162/295/39 161/296/39 160/293/39
f 163/297/39 160/293/39 159/294/39
f 163/297/39 162/295/39 160/293/39
f 164/298/64 163/297/64 159/299/65
f 162/295/66 163/297/66 164/298/66
f 164/298/66 165/300/67 166/301/67
f 164/302/51 169/303/51 165/304/51
f 164/298/66 166/301/67 167/305/66
f 167/305/66 162/295/66 164/298/66
f 170/306/51 164/302/51 168/307/51
f 164/298/64 159/299/65 168/308/65
f 169/303/51 164/302/51 170/306/51
f 171/309/51 170/306/51 168/307/51
f 168/307/51 147/279/51 171/309/51
f 147/279/51 148/278/51 171/309/51
f 172/310/51 165/304/51 169/303/51
f 174/311/51 173/312/51 172/310/51
f 165/304/51 172/310/51 173/312/51
f 176/313/51 175/314/51 174/311/51
f 173/312/51 174/311/51 175/314/51
f 175/314/51 176/313/51 178/315/51
f 177/316/51 178/315/51 176/313/51
f 178/315/51 177/316/51 179/317/51
f 179/318/68 180/319/69 178/320/69
f 180/319/69 175/321/70 178/320/69
f 179/318/68 181/322/68 180/319/69
f 185/323/39 180/324/39 181/325/39
f 180/319/69 182/326/70 175/321/70
f 182/327/39 180/324/39 183/328/39
f 183/328/39 180/324/39 184/329/39
f 184/329/39 180/324/39 185/323/39
f 179/318/71 177/330/71 185/331/71
f 179/318/71 185/331/71 181/322/71
f 183/328/39 186/332/39 182/327/39
f 186/332/39 187/333/39 182/327/39
f 188/334/39 187/333/39 186/332/39
f 187/333/39 188/334/39 166/335/39
f 161/296/39 166/335/39 188/334/39
f 182/326/70 187/336/72 173/337/72
f 187/336/73 165/300/67 173/337/73
f 187/336/73 166/301/67 165/300/67
f 182/326/70 173/337/72 175/321/70
f 159/299/65 147/276/74 168/308/65
f 162/295/39 167/305/39 161/296/39
f 166/335/39 161/296/39 167/305/39
f 159/299/65 146/273/74 147/276/74
f 155/338/75 151/339/75 152/285/75
f 155/338/75 152/285/75 153/284/75
f 240/422/90 237/423/90 238/424/90
f 238/425/85 237/426/85 239/427/85
f 240/428/78 244/429/78 241/430/78
f 241/430/78 242/431/78 240/428/78
f 242/431/78 245/432/78 240/428/78
f 240/428/78 243/433/78 244/429/78
f 240/422/90 238/424/90 243/434/90
f 242/435/91 239/436/91 245/437/91
f 238/424/92 244/438/92 243/434/92
f 244/429/78 246/439/78 241/430/78
f 247/440/93 246/441/93 244/438/93
f 238/424/92 247/440/94 244/438/92
f 247/440/93 248/442/93 246/441/93
f 248/443/85 247/444/85 238/425/85
f 250/445/85 249/446/85 248/443/85
f 241/447/80 248/442/80 249/448/79
f 250/445/85 248/443/85 238/425/85
f 241/447/80 246/441/80 248/442/80
f 250/449/95 252/450/95 242/435/95
f 250/449/95 242/435/95 251/451/95
f 249/448/96 250/449/96 251/451/96
f 238/425/85 239/427/85 250/445/85
f 239/427/85 252/452/85 250/445/85
f 242/435/91 252/450/91 239/436/91
f 241/430/78 251/453/78 242/431/78
f 249/448/96 251/451/96 241/447/96
f 254/454/90 253/455/90 255/456/90
f 255/457/85 253/458/85 256/459/85
f 257/460/91 259/461/91 256/462/91
f 257/460/91 256/462/91 258/463/91
f 256/459/85 259/464/85 260/465/85
f 255/457/85 256/459/85 260/465/85
f 260/466/95 259/461/97 257/460/95
f 261/467/96 260/466/96 262/468/96
f 260/465/85 261/469/85 263/470/85
f 260/466/95 257/460/95 262/468/95
f 260/465/85 263/470/85 255/457/85
f 266/471/93 263/472/93 264/473/93
f 265/474/79 264/473/79 263/472/79
f 265/474/79 263/472/79 261/467/80
f 263/470/85 266/475/85 255/457/85
f 266/471/93 264/473/93 267/476/93
f 255/456/94 266/471/94 267/476/94
f 254/477/78 268/478/78 267/479/78
f 255/456/94 267/476/94 268/480/94
f 267/479/78 264/481/78 265/482/78
f 254/477/78 267/479/78 265/482/78
f 254/454/90 255/456/90 268/480/90
f 265/482/78 257/483/78 254/477/78
f 261/467/96 262/468/96 265/474/96
f 265/482/78 262/484/78 257/483/78
f 257/483/78 258/485/78 254/477/78
f 425/748/207 429/749/207 426/750/207
f 426/751/208 427/752/208 425/753/208
f 427/754/209 428/755/209 425/748/209
f 425/748/207 428/755/207 429/749/207
f 430/756/210 426/751/210 429/757/210
f 430/756/211 431/758/211 427/754/211
f 430/756/211 427/754/211 432/759/211
f 430/756/212 432/759/213 426/751/214
f 426/751/208 432/759/208 427/752/208
f 427/754/209 431/758/209 428/755/209
f 434/760/215 438/761/215 433/762/215
f 434/760/215 433/762/215 435/763/215
f 436/764/216 435/765/216 433/766/216
f 436/764/216 433/766/216 437/767/216
f 437/768/217 433/762/217 438/761/217
f 437/768/217 438/761/217 439/769/217
f 440/770/218 439/771/218 438/761/218
f 440/770/219 438/761/219 434/760/219
f 440/770/220 436/764/221 437/767/222
f 440/770/220 437/767/222 439/771/223
f 442/772/224 441/773/224 444/774/224
f 442/772/225 443/775/225 441/773/225
f 444/774/226 441/773/226 443/776/227
f 442/772/224 444/774/224 445/777/224
f 444/774/7 447/778/7 445/777/7
f 444/774/7 446/779/7 447/778/7
f 443/776/227 446/780/228 444/774/226
f 442/772/215 445/777/215 447/781/229
f 447/778/230 446/779/230 448/782/230
f 447/781/229 450/783/231 442/772/215
f 447/778/230 448/782/230 449/784/230
f 447/781/229 449/785/232 450/783/231
f 442/772/225 450/786/225 443/775/225
f 448/787/233 443/775/233 450/786/233
f 448/787/233 450/786/233 449/788/233
f 443/776/227 448/789/234 446/780/228
f 475/828/249 477/829/249 476/830/249
f 475/828/250 479/831/250 477/829/250
f 478/832/225 479/833/225 475/834/225
f 478/832/225 480/836/225 479/833/225
f 478/832/253 488/849/251 480/836/251
f 478/832/253 489/851/253 488/849/251
f 489/851/224 490/852/252 488/849/224
f 492/855/252 491/853/254 490/852/252
f 489/851/224 492/855/252 490/852/252
f 500/866/257 499/865/257 498/862/257
f 500/866/7 498/862/7 497/863/256
f 500/866/257 501/867/257 499/865/257
f 500/866/7 497/863/256 502/868/256
f 497/863/256 503/869/255 502/868/256
f 497/863/256 495/860/255 503/869/255
f 495/860/255 504/870/254 503/869/255
f 495/860/255 491/853/254 504/870/254
f 492/855/252 504/870/254 491/853/254
f 499/865/230 501/867/230 476/830/230
f 499/865/230 476/830/230 477/829/230
f 523/900/249 519/901/261 520/902/250
f 519/901/261 522/903/262 521/904/262
f 519/901/261 524/905/261 522/903/262
f 523/900/249 524/905/261 519/901/261
f 520/902/250 525/906/259 523/900/249
f 520/902/250 507/910/259 525/906/259
f 580/987/7 577/988/7 578/989/273
f 577/988/7 579/990/7 578/989/273
f 579/991/2 577/992/1 582/993/1
f 581/994/7 577/988/7 580/987/7
f 582/993/1 577/992/1 581/995/4
f 579/991/2 582/993/1 583/996/2
f 582/993/1 581/995/4 584/997/4
f 585/998/5 584/997/4 581/995/4
f 585/998/5 587/999/6 586/1000/6
f 585/998/5 588/1001/5 587/999/6
f 585/998/5 581/995/4 588/1001/5
f 588/1002/7 590/1003/7 587/1004/7
f 581/995/7 589/1005/7 588/1001/7
f 588/1002/7 589/1006/7 591/1007/7
f 588/1002/7 591/1007/7 590/1003/7
f 591/1008/38 593/1009/17 590/1010/17
f 591/1008/38 592/1011/36 595/1012/36
f 589/1006/7 592/1013/7 591/1007/7
f 591/1008/38 594/1014/38 593/1009/17
f 591/1008/38 595/1012/36 594/1014/38
f 592/1011/36 596/1015/29 595/1012/36
f 597/1016/274 596/1015/29 580/1017/29
f 592/1011/36 580/1017/29 596/1015/29
f 597/1016/274 580/1017/29 578/1018/274
f 599/1019/23 597/1016/274 578/1018/274
f 599/1019/23 598/1020/23 597/1016/274
f 578/989/273 579/990/7 599/1021/7
f 599/1021/7 579/990/7 601/1022/7
f 598/1020/23 599/1019/23 600/1023/275
f 599/1021/7 602/1024/7 600/1025/7
f 599/1021/7 601/1022/7 602/1024/7
f 605/1026/3 602/1027/17 601/1028/3
f 603/1029/18 606/1030/18 602/1027/17
f 603/1029/18 602/1027/17 604/1031/17
f 605/1026/3 604/1031/17 602/1027/17
f 600/1025/7 602/1024/7 606/1032/7
f 607/1033/30 609/1034/30 606/1030/18
f 607/1033/30 606/1030/18 603/1029/18
f 608/1035/7 606/1032/7 609/1036/7
f 608/1035/7 600/1025/7 606/1032/7
f 610/1037/29 613/1038/29 609/1034/30
f 610/1037/29 609/1034/30 607/1033/30
f 612/1039/7 611/1040/7 609/1036/7
f 611/1040/7 608/1035/7 609/1036/7
f 612/1039/7 609/1036/7 613/1041/7
f 610/1042/29 614/1043/31 613/1044/29
f 613/1041/7 614/1045/7 615/1046/7
f 612/1039/7 613/1041/7 615/1046/7
f 618/1047/1 615/1048/276 616/1049/276
f 615/1048/276 617/1050/3 616/1049/276
f 615/1048/276 619/1051/3 617/1050/3
f 618/1047/1 612/1052/1 615/1048/276
f 619/1053/7 615/1046/7 614/1045/7
f 620/1054/7 619/1053/7 614/1045/7
f 587/1004/7 590/1003/7 619/1053/7
f 593/1009/17 619/1051/3 590/1010/17
f 620/1054/7 587/1004/7 619/1053/7
f 593/1009/17 617/1050/3 619/1051/3
f 621/1055/23 620/1056/277 614/1043/31
f 587/999/6 620/1056/277 621/1055/23
f 587/999/6 621/1055/23 586/1000/6
f 621/1055/23 614/1043/31 622/1057/31
f 610/1042/29 622/1057/31 614/1043/31
f 612/1058/1 618/1059/1 623/1060/8
f 611/1061/8 623/1060/8 624/1062/5
f 612/1058/1 623/1060/8 611/1061/8
f 611/1061/8 624/1062/5 608/1063/24
f 608/1063/24 624/1062/5 625/1064/6
f 608/1063/24 625/1064/6 600/1023/275
f 598/1020/23 600/1023/275 625/1064/6
f 605/1026/3 579/991/2 583/996/2
f 605/1026/3 601/1028/3 579/991/2
f 581/994/7 580/987/7 592/1013/7
f 581/994/7 592/1013/7 589/1006/7
usemtl SpacialRoverExploreralumGray
f 5/1/1 1/2/2 2/3/2
f 1/4/2 3/5/3 2/6/2
f 1/4/2 4/7/3 3/5/3
f 7/8/4 5/1/1 6/9/1
f 5/1/1 2/3/2 6/9/1
f 8/10/4 9/11/5 7/8/4
f 7/8/4 6/9/1 8/10/4
f 10/12/6 9/11/5 11/13/5
f 8/10/4 11/13/5 9/11/5
f 12/14/7 11/15/7 13/16/7
f 10/12/6 11/13/5 12/17/6
f 11/15/7 14/18/7 13/16/7
f 11/15/7 8/19/7 14/18/7
f 8/19/7 15/20/7 14/18/7
f 23/35/7 6/36/7 24/37/7
f 23/35/7 8/19/7 6/36/7
f 8/19/7 23/35/7 15/20/7
f 24/37/7 2/46/7 29/47/7
f 2/46/7 3/48/7 29/47/7
f 29/47/7 3/48/7 30/49/7
f 31/50/7 29/47/7 30/49/7
f 12/14/7 52/114/7 61/115/7
f 62/116/7 61/115/7 52/114/7
f 12/14/7 13/16/7 52/114/7
f 50/117/7 62/116/7 52/114/7
f 62/120/31 64/121/29 63/122/31
f 63/122/31 61/123/23 62/120/31
f 62/120/31 65/124/29 64/121/29
f 62/116/7 50/117/7 65/125/7
f 66/126/30 64/121/29 65/124/29
f 66/126/30 65/124/29 67/127/36
f 48/128/7 67/129/7 65/125/7
f 50/117/7 48/128/7 65/125/7
f 67/127/36 68/130/38 66/126/30
f 67/127/36 69/131/18 68/130/38
f 34/132/7 69/133/7 67/129/7
f 67/129/7 48/128/7 70/134/7
f 70/134/7 34/132/7 67/129/7
f 71/136/17 68/130/38 69/131/18
f 30/49/7 69/133/7 31/50/7
f 71/136/17 69/131/18 30/137/17
f 69/133/7 34/132/7 31/50/7
f 30/137/17 4/7/3 71/136/17
f 63/122/31 72/138/23 61/123/23
f 12/17/6 72/138/23 10/12/6
f 12/17/6 61/123/23 72/138/23
f 30/137/17 3/5/3 4/7/3
f 6/36/7 2/46/7 24/37/7
f 308/536/107 306/537/108 305/538/109
f 306/537/108 307/539/110 305/538/109
f 308/536/107 305/538/109 309/543/111
f 312/548/116 309/543/111 311/549/115
f 312/548/116 308/536/107 309/543/111
f 317/552/119 315/553/112 316/554/118
f 317/552/119 318/555/120 315/553/112
f 318/555/120 319/556/121 315/553/112
f 321/559/123 320/560/122 319/556/121
f 321/559/123 322/561/124 320/560/122
f 322/561/124 323/562/125 320/560/122
f 322/561/124 324/564/126 323/562/125
f 324/564/126 313/565/117 323/562/125
f 324/564/126 325/570/127 313/565/117
f 325/570/127 327/574/128 328/575/130
f 327/574/128 329/576/131 328/575/130
f 327/574/128 330/577/132 329/576/131
f 330/579/132 331/580/133 329/581/131
f 330/579/132 326/582/129 331/580/133
f 326/582/129 314/585/113 331/580/133
f 325/570/127 328/575/130 313/565/117
f 326/582/129 332/587/134 314/585/113
f 332/587/134 333/591/135 334/592/136
f 333/591/135 310/593/114 334/592/136
f 333/591/135 335/594/137 310/593/114
f 335/594/137 311/549/115 310/593/114
f 335/594/137 312/548/116 311/549/115
f 332/587/134 334/592/136 314/585/113
f 318/555/120 321/559/123 319/556/121
f 336/600/138 317/552/119 316/554/118
f 306/537/108 336/600/138 307/539/110
f 336/600/138 316/554/118 307/539/110
f 452/790/235 453/791/235 451/792/235
f 454/793/236 451/794/236 453/795/237
f 455/796/238 457/797/238 454/793/238
f 455/796/238 454/793/238 456/798/238
f 454/793/236 453/795/237 456/798/237
f 455/796/239 452/790/240 457/797/240
f 455/799/7 456/800/7 453/791/7
f 455/796/239 458/801/241 452/790/240
f 455/799/7 453/791/7 458/801/7
f 452/790/235 458/801/235 453/791/235
f 459/802/235 460/803/235 463/804/235
f 459/805/236 461/806/236 460/807/237
f 459/805/236 464/808/236 461/806/236
f 464/809/242 459/802/242 462/810/7
f 459/802/235 463/804/235 462/810/235
f 464/809/242 462/810/7 465/811/7
f 461/806/238 464/808/238 465/812/238
f 463/804/241 465/812/240 462/810/240
f 461/806/238 465/812/238 466/813/238
f 463/804/241 466/813/241 465/812/240
f 461/814/225 466/815/225 463/804/225
f 461/814/225 463/804/225 460/803/225
f 479/831/250 482/835/250 477/829/250
f 480/836/225 481/837/225 479/833/225
f 479/831/250 481/838/250 482/835/250
f 482/839/215 481/840/215 486/841/215
f 485/842/230 477/829/230 482/835/230
f 482/839/215 486/841/215 483/843/215
f 483/843/215 484/844/215 482/839/215
f 484/844/215 485/845/215 482/839/215
f 480/836/225 486/846/225 481/837/225
f 480/836/251 487/847/251 486/846/251
f 486/841/215 487/848/215 483/843/215
f 480/836/251 488/849/251 487/847/251
f 488/849/224 483/850/252 487/847/224
f 488/849/224 490/852/252 483/850/252
f 490/852/252 491/853/254 493/854/254
f 490/852/252 493/854/254 483/850/252
f 483/843/215 493/856/215 494/857/215
f 494/858/255 493/854/254 491/853/254
f 496/859/256 494/858/255 495/860/255
f 494/858/255 491/853/254 495/860/255
f 483/843/215 494/857/215 484/844/215
f 494/857/215 496/861/215 484/844/215
f 498/862/7 496/859/256 497/863/256
f 496/859/256 495/860/255 497/863/256
f 498/862/7 484/864/7 496/859/256
f 498/862/257 485/842/258 484/864/258
f 498/862/257 499/865/257 485/842/258
f 485/842/230 499/865/230 477/829/230
f 505/874/215 507/875/215 506/876/215
f 508/877/215 507/875/215 505/874/215
f 519/895/215 518/896/215 506/876/215
f 519/895/215 516/897/215 518/896/215
f 519/895/215 521/898/215 516/897/215
f 520/899/215 519/895/215 506/876/215
f 526/907/260 525/908/259 507/909/259
f 528/911/260 527/912/257 526/907/260
f 526/907/260 507/909/259 528/911/260
f 507/875/215 508/877/215 528/913/215
f 528/911/260 529/914/257 527/912/257
f 529/915/215 528/913/215 530/916/215
f 528/913/215 508/877/215 530/916/215
f 529/915/215 530/916/215 531/918/215
f 531/918/215 532/923/215 534/924/215
f 533/925/215 529/915/215 531/918/215
f 533/925/215 531/918/215 534/924/215
f 534/924/215 538/928/215 536/929/215
f 537/930/267 534/931/266 536/932/267
f 532/923/215 538/928/215 534/924/215
f 537/930/267 539/933/268 534/931/266
f 533/934/265 534/931/266 539/933/268
f 533/934/265 539/933/268 540/935/265
f 540/935/265 527/912/257 529/914/257
f 540/935/265 529/914/257 533/934/265
f 538/928/215 541/939/215 536/929/215
f 544/948/215 546/949/215 547/950/215
f 544/948/215 548/951/215 541/939/215
f 548/951/215 544/948/215 547/950/215
f 549/952/272 548/953/270 547/954/272
f 548/951/215 536/929/215 541/939/215
f 548/953/270 537/930/267 536/932/267
f 548/953/270 550/955/270 537/930/267
f 549/952/272 550/955/270 548/953/270
f 551/956/251 552/957/251 549/952/272
f 551/956/251 549/952/272 547/954/272
f 522/958/262 552/957/251 551/956/251
f 546/949/215 521/898/215 551/959/215
f 522/958/262 551/956/251 521/960/262
f 546/949/215 551/959/215 547/950/215
f 521/898/215 546/949/215 516/897/215
f 507/875/215 520/899/215 506/876/215
f 554/961/259 556/962/260 553/963/259
f 553/963/259 555/964/250 554/961/259
f 553/963/259 557/965/250 555/964/250
f 558/966/261 555/964/250 557/965/250
f 559/967/262 560/968/263 558/966/261
f 558/966/261 560/968/263 555/964/250
f 559/967/262 561/969/262 560/968/263
f 562/970/253 561/969/262 559/967/262
f 562/970/253 559/967/262 563/971/253
f 564/972/272 562/973/253 563/974/253
f 564/972/272 565/975/272 562/973/253
f 566/976/270 565/975/272 564/972/272
f 566/976/270 564/972/272 567/977/270
f 568/978/267 566/976/270 567/977/270
f 568/978/267 569/979/267 566/976/270
f 570/980/266 569/979/267 568/978/267
f 573/981/265 571/982/265 570/980/266
f 570/980/266 568/978/267 572/983/266
f 573/981/265 570/980/266 572/983/266
f 575/984/257 573/981/265 574/985/258
f 575/984/257 571/982/265 573/981/265
f 574/985/258 576/986/260 575/984/257
f 554/961/259 576/986/260 556/962/260
f 574/985/258 556/962/260 576/986/260
usemtl SpacialRoverExploreralumBlack
f 190/340/76 194/341/76 189/342/76
f 190/340/76 189/342/76 191/343/77
f 191/343/77 189/342/76 195/344/76
f 195/345/78 189/346/78 192/347/78
f 189/346/78 193/348/78 192/347/78
f 189/346/78 194/349/78 193/348/78
f 196/350/77 198/351/77 195/344/76
f 196/350/77 195/344/76 197/352/77
f 197/353/78 195/345/78 199/354/78
f 191/343/77 195/344/76 198/351/77
f 195/345/78 192/347/78 199/354/78
f 197/353/78 199/354/78 200/355/78
f 200/356/79 199/357/79 201/358/79
f 199/357/79 192/359/80 201/358/79
f 201/358/79 205/360/80 202/361/79
f 201/358/79 202/361/79 200/356/79
f 203/362/81 201/363/81 210/364/81
f 204/365/82 201/363/82 203/362/82
f 204/365/82 208/366/82 201/363/82
f 201/358/79 206/367/80 205/360/80
f 201/358/79 207/368/79 206/367/80
f 201/358/79 208/369/79 207/368/79
f 192/359/80 209/370/80 201/358/79
f 209/370/80 210/371/79 201/358/79
f 212/372/83 210/364/83 209/373/83
f 212/372/83 211/374/83 210/364/83
f 203/362/81 210/364/81 211/374/81
f 190/340/76 213/375/76 212/376/76
f 190/340/76 212/376/76 194/341/76
f 214/377/76 212/376/76 213/375/76
f 214/377/76 211/378/76 212/376/76
f 194/349/84 212/372/84 209/373/84
f 214/377/76 203/379/76 211/378/76
f 214/377/76 215/380/76 203/379/76
f 216/381/77 203/379/76 215/380/76
f 216/381/77 204/382/77 203/379/76
f 216/381/77 217/383/77 204/382/77
f 216/381/77 218/384/76 217/383/77
f 218/384/76 219/385/77 217/383/77
f 218/384/76 220/386/76 219/385/77
f 221/387/77 219/385/77 220/386/76
f 222/388/77 223/389/76 221/387/77
f 221/387/77 223/389/76 219/385/77
f 222/388/77 224/390/77 223/389/76
f 223/391/85 206/392/85 219/393/85
f 223/391/85 205/394/85 206/392/85
f 224/395/85 205/394/85 223/391/85
f 222/388/77 225/396/77 224/390/77
f 224/395/86 225/397/86 202/398/86
f 224/395/85 226/399/85 205/394/85
f 224/395/86 202/398/86 226/399/86
f 205/360/80 226/400/79 202/361/79
f 222/388/77 227/401/77 225/396/77
f 228/402/77 225/396/77 227/401/77
f 228/402/77 229/403/77 225/396/77
f 229/404/87 202/398/87 225/397/87
f 229/404/88 230/405/88 232/406/88
f 228/402/77 230/407/77 229/403/77
f 229/404/87 231/408/87 202/398/87
f 229/404/88 232/406/88 231/408/88
f 233/409/89 232/406/89 230/405/89
f 233/409/89 234/410/89 232/406/89
f 232/411/79 234/412/79 200/356/79
f 202/361/79 232/411/79 200/356/79
f 202/361/79 231/413/79 232/411/79
f 233/414/78 200/355/78 234/415/78
f 235/416/77 233/417/77 230/407/77
f 233/414/78 197/353/78 200/355/78
f 235/416/77 197/352/77 233/417/77
f 235/416/77 230/407/77 236/418/77
f 235/416/77 196/350/77 197/352/77
f 228/402/77 236/418/77 230/407/77
f 219/393/85 207/419/85 217/420/85
f 219/393/85 206/392/85 207/419/85
f 217/420/85 208/366/85 204/365/85
f 217/420/85 207/419/85 208/366/85
f 192/359/80 193/421/79 209/370/80
f 194/349/84 209/373/84 193/348/84
f 468/816/7 470/817/7 467/818/7
f 468/816/7 467/818/7 469/819/7
f 471/820/243 469/821/244 467/822/244
f 470/823/245 471/820/245 467/822/245
f 470/823/245 472/824/245 471/820/245
f 471/820/243 473/825/243 469/821/244
f 474/826/246 469/819/246 473/827/246
f 470/823/247 468/816/247 474/826/248
f 470/823/247 474/826/248 472/824/248
f 474/826/246 468/816/246 469/819/246
f 627/1065/278 629/1066/235 626/1067/235
f 626/1067/279 628/1068/241 627/1065/241
f 626/1067/279 630/1069/279 628/1068/241
f 631/1070/238 628/1071/238 630/1072/238
f 633/1073/237 631/1070/280 629/1066/280
f 631/1070/238 632/1074/238 628/1071/238
f 633/1073/237 632/1074/237 631/1070/280
f 627/1065/278 633/1073/278 629/1066/235
f 637/1075/281 634/1076/281 635/1077/281
f 634/1076/237 636/1078/282 635/1077/237
f 634/1076/237 638/1079/283 636/1078/282
f 637/1075/238 639/1080/238 634/1076/238
f 637/1075/284 640/1081/240 639/1080/240
f 637/1075/284 641/1082/284 640/1081/240
f 640/1081/235 641/1082/235 636/1083/235
f 640/1081/235 636/1083/235 638/1084/235
f 641/1085/7 637/1075/7 635/1077/285
f 641/1085/7 635/1077/285 636/1078/285
usemtl SpacialRoverExploreralumOrange
f 14/21/5 16/22/6 13/23/6
f 14/21/5 15/24/8 18/25/4
f 14/21/5 17/26/5 16/22/6
f 14/21/5 18/25/4 17/26/5
f 23/27/1 19/28/1 18/25/4
f 22/29/9 18/30/10 19/31/9
f 17/32/11 18/30/10 20/33/12
f 18/30/10 21/34/10 20/33/12
f 18/30/10 22/29/9 21/34/10
f 23/27/1 18/25/4 15/24/8
f 25/38/2 23/27/1 24/39/2
f 25/38/2 19/28/1 23/27/1
f 19/31/9 25/40/13 28/41/14
f 28/41/14 25/40/13 26/42/15
f 25/40/13 27/43/16 26/42/15
f 29/44/3 27/45/3 25/38/2
f 29/44/3 25/38/2 24/39/2
f 29/44/3 31/51/17 32/52/17
f 29/44/3 32/52/17 27/45/3
f 34/53/18 33/54/18 32/52/17
f 32/55/19 33/56/20 35/57/21
f 34/53/18 32/52/17 31/51/17
f 26/42/15 27/43/16 32/55/19
f 35/57/21 26/42/15 32/55/19
f 33/56/20 38/58/22 35/57/21
f 36/59/23 26/60/23 35/61/6
f 36/59/23 35/61/6 37/62/6
f 38/63/24 37/62/6 35/61/6
f 38/58/22 33/56/20 39/64/25
f 40/65/26 38/58/22 39/64/25
f 38/63/24 41/66/5 37/62/6
f 40/67/8 41/66/5 38/63/24
f 40/67/8 42/71/4 41/66/5
f 45/74/1 44/75/1 42/71/4
f 45/74/1 42/71/4 40/67/8
f 45/74/1 46/76/2 43/77/2
f 45/74/1 43/77/2 44/75/1
f 39/64/25 45/78/27 40/65/26
f 45/78/27 39/64/25 47/79/27
f 46/80/28 45/78/27 47/79/27
f 48/81/29 47/82/29 39/83/30
f 48/81/29 49/84/31 47/82/29
f 49/85/32 46/80/28 47/79/27
f 48/81/29 50/86/31 49/84/31
f 52/87/23 49/84/31 50/86/31
f 52/87/23 51/88/23 49/84/31
f 49/85/32 51/89/33 53/90/34
f 46/80/28 49/85/32 53/90/34
f 16/91/35 54/92/35 53/90/34
f 56/93/17 53/94/3 54/95/17
f 56/93/17 55/96/3 53/94/3
f 46/76/2 53/97/3 55/98/3
f 16/91/35 53/90/34 51/89/33
f 20/103/18 58/104/18 56/93/17
f 20/103/18 56/93/17 54/95/17
f 20/103/18 57/105/36 58/104/18
f 22/106/29 59/107/29 57/105/36
f 22/106/29 57/105/36 21/110/30
f 20/103/18 21/110/30 57/105/36
f 60/111/31 59/107/29 22/106/29
f 28/113/31 36/59/23 60/111/31
f 60/111/31 22/106/29 28/113/31
f 46/76/2 55/98/3 43/77/2
f 17/32/11 20/33/12 54/92/35
f 16/91/35 17/32/11 54/92/35
f 16/22/6 52/118/23 13/23/6
f 16/22/6 51/119/23 52/118/23
f 70/135/30 33/54/18 34/53/18
f 48/81/29 39/83/30 70/135/30
f 70/135/30 39/83/30 33/54/18
f 28/113/31 26/60/23 36/59/23
f 22/29/9 19/31/9 28/41/14
f 506/871/250 509/872/259 505/873/259
f 509/878/259 508/879/260 505/880/259
f 509/878/259 510/881/260 508/879/260
f 513/882/215 510/883/215 509/884/215
f 511/885/215 513/882/215 509/884/215
f 509/884/215 512/886/215 511/885/215
f 509/884/215 514/887/215 512/886/215
f 509/884/215 515/888/215 514/887/215
f 506/871/250 515/889/250 509/872/259
f 514/890/261 515/889/250 506/871/250
f 516/891/262 517/892/262 514/890/261
f 516/891/262 514/890/261 518/893/263
f 514/887/215 517/894/264 512/886/215
f 514/890/261 506/871/250 518/893/263
f 530/917/257 508/879/260 510/881/260
f 513/919/257 531/920/265 530/917/257
f 530/917/257 510/881/260 513/919/257
f 531/920/265 511/921/266 532/922/266
f 531/920/265 535/926/265 511/921/266
f 513/919/257 535/926/265 531/920/265
f 511/885/215 535/927/264 513/882/215
f 538/936/269 542/937/270 541/938/270
f 511/921/266 538/936/269 532/922/266
f 538/936/269 543/940/267 542/937/270
f 511/921/266 543/940/267 538/936/269
f 542/941/215 543/942/271 511/885/215
f 542/937/270 544/943/272 541/938/270
f 542/937/270 545/944/272 544/943/272
f 512/886/215 542/941/215 511/885/215
f 512/886/215 545/945/264 542/941/215
f 544/943/272 545/944/272 512/946/253
f 544/943/272 512/946/253 546/947/253
f 512/946/253 516/891/262 546/947/253
f 512/946/253 517/892/262 516/891/262
usemtl SpacialRoverExploreralumArm
f 74/139/39 73/140/39 76/141/39
f 76/141/39 79/151/39 81/152/39
f 76/141/39 81/152/39 80/153/39
f 80/153/39 74/139/39 76/141/39
f 81/152/39 82/156/39 80/153/39
f 91/171/39 88/172/39 74/139/39
f 80/153/39 91/171/39 74/139/39
f 80/153/39 92/173/39 91/171/39
f 94/179/51 93/180/51 96/181/51
f 96/181/51 99/191/51 100/192/51
f 94/179/51 96/181/51 100/192/51
f 100/192/51 101/195/51 104/196/51
f 100/192/51 103/198/51 94/179/51
f 100/192/51 104/196/51 103/198/51
f 104/196/51 105/202/51 103/198/51
f 103/198/51 111/217/51 94/179/51
f 272/486/98 270/487/99 269/488/100
f 270/489/99 271/490/101 269/491/100
f 272/486/98 269/488/100 273/492/78
f 272/486/98 273/492/78 274/493/78
f 272/486/98 274/493/78 275/494/78
f 275/494/78 276/495/78 272/486/98
f 276/495/78 277/496/78 272/486/98
f 277/496/78 278/497/102 272/486/98
f 279/498/103 272/499/98 278/500/102
f 279/498/103 278/500/102 280/501/104
f 281/502/105 279/498/103 280/501/104
f 281/502/105 280/501/104 282/503/85
f 281/502/105 282/503/85 283/504/85
f 281/502/105 283/504/85 284/505/85
f 284/505/85 285/506/85 281/502/105
f 285/506/85 286/507/85 281/502/105
f 286/507/85 271/508/101 281/502/105
f 270/489/99 281/509/105 271/490/101
f 272/510/98 281/502/105 270/511/99
f 272/510/98 279/498/103 281/502/105
f 288/512/103 291/513/98 287/514/102
f 288/512/103 287/514/102 289/515/104
f 290/516/78 287/514/102 291/513/98
f 291/513/98 296/517/78 292/518/78
f 291/513/98 292/518/78 297/519/78
f 291/513/98 293/520/99 295/521/106
f 291/513/98 294/522/105 293/520/99
f 291/513/98 288/523/103 294/522/105
f 298/524/78 290/516/78 291/513/98
f 291/513/98 295/521/106 296/517/78
f 297/519/78 298/524/78 291/513/98
f 293/520/99 299/525/101 295/521/106
f 293/520/99 294/526/105 299/525/101
f 299/527/101 294/528/105 288/529/103
f 300/530/85 299/527/101 288/529/103
f 301/531/85 300/530/85 288/529/103
f 288/529/103 302/532/85 301/531/85
f 288/529/103 303/533/85 302/532/85
f 288/529/103 304/534/85 303/533/85
f 288/529/103 289/535/104 304/534/85
f 309/540/111 305/541/109 307/542/110
f 309/540/111 307/542/110 315/544/112
f 314/545/113 310/546/114 309/540/111
f 310/546/114 311/547/115 309/540/111
f 309/540/111 315/544/112 313/550/117
f 313/550/117 314/545/113 309/540/111
f 307/542/110 316/551/118 315/544/112
f 315/544/112 319/557/121 320/558/122
f 315/544/112 320/558/122 313/550/117
f 320/558/122 323/563/125 313/550/117
f 324/566/126 321/567/123 317/568/119
f 324/566/126 322/569/124 321/567/123
f 327/571/128 325/572/127 324/566/126
f 326/573/129 327/571/128 324/566/126
f 326/573/129 324/566/126 317/568/119
f 326/573/129 330/578/132 327/571/128
f 329/583/131 331/584/133 314/545/113
f 313/550/117 328/586/130 329/583/131
f 313/550/117 329/583/131 314/545/113
f 333/588/135 332/589/134 326/573/129
f 317/568/119 312/590/116 326/573/129
f 312/590/116 333/588/135 326/573/129
f 312/590/116 335/595/137 333/588/135
f 314/545/113 334/596/136 310/546/114
f 321/567/123 318/597/120 317/568/119
f 317/568/119 306/598/108 312/590/116
f 317/568/119 336/599/138 306/598/108
f 306/598/108 308/601/107 312/590/116
f 338/602/139 339/603/140 337/604/78
f 339/603/140 340/605/141 337/604/78
f 340/605/141 342/606/142 341/607/143
f 340/605/141 343/608/144 342/606/142
f 339/603/140 343/608/144 340/605/141
f 339/609/140 344/610/145 343/611/144
f 343/611/144 344/610/145 345/612/146
f 343/611/144 345/612/146 342/613/142
f 344/614/145 347/615/143 345/616/146
f 342/613/142 345/612/146 346/617/147
f 345/616/146 348/618/148 346/619/147
f 345/616/146 347/615/143 348/618/148
f 348/620/148 349/621/149 346/622/147
f 348/620/148 350/623/90 349/621/149
f 349/621/149 350/623/90 351/624/150
f 349/621/149 351/624/150 352/625/151
f 351/624/150 353/626/152 352/625/151
f 351/624/150 354/627/153 353/626/152
f 354/627/153 355/628/154 353/626/152
f 354/627/153 356/629/155 355/628/154
f 356/629/155 357/630/156 355/628/154
f 356/629/155 358/631/85 357/630/156
f 358/631/85 359/632/157 357/630/156
f 358/631/85 360/633/158 359/632/157
f 360/633/158 361/634/159 359/632/157
f 360/633/158 362/635/160 361/634/159
f 362/635/160 363/636/161 361/634/159
f 362/635/160 364/637/162 363/636/161
f 363/636/161 364/637/162 365/638/91
f 363/636/161 365/638/91 366/639/163
f 365/638/91 367/640/164 366/639/163
f 365/638/91 368/641/165 367/640/164
f 367/640/164 368/641/165 369/642/166
f 367/640/164 369/642/166 370/643/167
f 369/642/166 371/644/168 370/643/167
f 369/642/166 372/645/139 371/644/168
f 372/645/139 373/646/169 371/644/168
f 372/645/139 374/647/78 373/646/169
f 374/647/78 344/614/145 373/646/169
f 374/647/78 375/648/141 344/614/145
f 344/614/145 375/648/141 347/615/143
f 339/609/140 373/649/169 344/610/145
f 376/650/170 371/651/168 373/649/169
f 376/650/170 373/649/169 339/609/140
f 338/602/139 376/652/170 339/603/140
f 377/653/166 378/654/171 376/652/170
f 377/653/166 376/652/170 338/602/139
f 376/650/170 378/655/171 370/656/167
f 376/650/170 370/656/167 371/651/168
f 378/655/171 379/657/172 367/658/164
f 379/659/172 378/654/171 377/653/166
f 378/655/171 367/658/164 370/656/167
f 380/660/91 381/661/173 379/659/172
f 380/660/91 379/659/172 382/662/165
f 381/663/173 367/658/164 379/657/172
f 379/659/172 377/653/166 382/662/165
f 381/663/173 383/664/174 363/665/161
f 383/666/174 381/661/173 380/660/91
f 381/663/173 366/667/163 367/658/164
f 381/663/173 363/665/161 366/667/163
f 384/668/160 385/669/175 383/666/174
f 384/668/160 383/666/174 386/670/162
f 385/671/175 363/665/161 383/664/174
f 383/666/174 380/660/91 386/670/162
f 385/671/175 387/672/176 359/673/157
f 387/674/176 385/669/175 384/668/160
f 385/671/175 361/675/159 363/665/161
f 385/671/175 359/673/157 361/675/159
f 388/676/177 387/674/176 389/677/158
f 388/678/177 359/673/157 387/672/176
f 387/674/176 384/668/160 389/677/158
f 388/676/177 389/677/158 390/679/85
f 391/680/155 388/676/177 390/679/85
f 393/681/178 391/680/155 392/682/153
f 391/680/155 394/683/179 388/676/177
f 393/681/178 394/683/179 391/680/155
f 393/684/178 355/685/154 394/686/179
f 388/678/177 394/686/179 355/685/154
f 396/687/150 395/688/180 393/681/178
f 395/689/180 353/690/152 393/684/178
f 396/687/150 393/681/178 392/682/153
f 393/684/178 353/690/152 355/685/154
f 398/691/181 396/687/150 397/692/90
f 398/691/181 395/688/180 396/687/150
f 399/693/148 400/694/182 398/691/181
f 399/693/148 398/691/181 397/692/90
f 398/695/181 400/696/182 346/617/147
f 398/695/181 349/697/149 352/698/151
f 398/695/181 346/617/147 349/697/149
f 398/695/181 352/698/151 395/689/180
f 342/606/142 400/699/182 399/700/148
f 342/613/142 346/617/147 400/696/182
f 342/606/142 399/700/148 341/607/143
f 395/689/180 352/698/151 353/690/152
f 388/678/177 357/701/156 359/673/157
f 388/678/177 355/685/154 357/701/156
f 402/702/183 407/703/184 401/704/185
f 401/704/185 403/705/186 402/702/183
f 401/704/185 408/706/187 403/705/186
f 406/707/188 401/708/185 404/709/189
f 404/709/189 401/708/185 405/710/190
f 407/703/184 405/711/190 401/704/185
f 401/704/185 406/712/188 408/706/187
f 409/713/191 408/714/187 406/707/188
f 409/713/191 410/715/192 408/714/187
f 408/706/187 410/716/192 403/705/186
f 409/713/191 411/717/193 410/715/192
f 411/718/193 403/719/186 410/720/192
f 411/718/193 413/721/194 403/719/186
f 412/722/195 411/723/193 414/724/196
f 412/722/195 413/725/194 411/723/193
f 411/723/193 409/726/191 414/724/196
f 406/707/188 404/709/189 414/727/196
f 409/713/191 406/707/188 414/727/196
f 414/724/196 404/709/189 416/728/197
f 412/722/195 414/724/196 415/729/198
f 414/724/196 416/728/197 415/729/198
f 417/730/199 416/728/197 405/710/190
f 404/709/189 405/710/190 416/728/197
f 416/728/197 417/731/199 415/729/198
f 415/729/198 417/732/199 407/733/184
f 417/730/199 405/710/190 407/734/184
f 415/729/198 418/735/200 419/736/201
f 420/737/202 418/735/200 415/729/198
f 415/729/198 419/736/201 412/722/195
f 415/729/198 407/733/184 420/737/202
f 420/737/202 402/702/183 418/735/200
f 402/702/183 420/737/202 407/703/184
f 419/736/201 422/738/203 412/722/195
f 421/739/204 422/740/203 419/741/201
f 418/735/200 421/739/204 419/741/201
f 421/739/204 423/742/205 422/740/203
f 424/743/206 422/738/203 423/744/205
f 424/743/206 412/722/195 422/738/203
f 403/705/186 424/745/206 423/746/205
f 413/721/194 412/722/195 424/743/206
f 413/721/194 424/743/206 403/719/186
f 403/705/186 423/746/205 402/702/183
f 423/746/205 421/747/204 402/702/183
f 418/735/200 402/702/183 421/739/204
