# Blender 5.2.2 LTS
# www.blender.org
mtllib Pala_Superior.mtl
o Pala_Superior
v 0.171387 0.365062 -0.354125
v 0.208963 0.394719 -0.360776
v 0.177280 0.353102 -0.374165
v 0.172783 0.245202 -0.282182
v 0.219150 0.245202 -0.268549
v 0.178676 0.233242 -0.302223
v 0.132792 0.137727 -0.232526
v 0.167579 0.133611 -0.229691
v 0.138684 0.125767 -0.252566
v 0.018935 0.365062 -0.398950
v -0.009061 0.394719 -0.424881
v 0.024828 0.353102 -0.418991
v -0.021179 0.245202 -0.339213
v -0.067545 0.245202 -0.352846
v -0.015286 0.233242 -0.359253
v -0.014429 0.137727 -0.275813
v -0.045214 0.133611 -0.292258
v -0.008537 0.125767 -0.295854
v 0.059770 0.136603 -0.256171
v 0.062590 0.130793 -0.265763
v 0.065662 0.124643 -0.276211
v 0.075802 0.245202 -0.310697
v 0.089121 0.218168 -0.355995
v 0.095595 0.367749 -0.378013
v 0.102369 0.409690 -0.401052
v 0.101488 0.355788 -0.398054
vn 0.2766 -0.3035 -0.9118
vn -0.2448 0.4969 0.8326
vn 0.3310 -0.0102 -0.9436
vn 0.5160 -0.4364 -0.7371
vn 0.6821 -0.3590 -0.6371
vn 0.5043 -0.5097 -0.6970
vn -0.1591 0.4263 0.8905
vn 0.6279 -0.5026 -0.5943
vn -0.2474 0.4807 0.8413
vn 0.2395 -0.6642 -0.7082
vn -0.1419 -0.8657 0.4801
vn -0.1421 -0.8654 0.4806
vn -0.1414 -0.8654 0.4808
vn -0.1413 -0.8655 0.4806
vn -0.1395 -0.8697 0.4734
vn -0.1392 -0.8697 0.4735
vn -0.2794 0.4635 0.8409
vn 0.2609 -0.3035 -0.9164
vn 0.2324 -0.0102 -0.9726
vn -0.0350 -0.4364 -0.8991
vn -0.2287 -0.3590 -0.9049
vn -0.0468 -0.5097 -0.8591
vn -0.3482 0.4263 0.8349
vn -0.2063 -0.5026 -0.8396
vn 0.1819 -0.6642 -0.7251
vn -0.1406 -0.8657 0.4805
vn -0.1407 -0.8654 0.4810
vn -0.1389 -0.8697 0.4736
vn -0.2202 0.4635 0.8583
vt 0.696035 0.245981
vt 0.680903 0.087106
vt 0.596009 0.100987
vt 0.696035 0.760746
vt 0.695751 0.706805
vt 0.607049 0.703809
vt 0.569104 0.742163
vt 0.672510 0.027543
vt 0.551159 0.062751
vt 0.694952 0.549219
vt 0.578992 0.250655
vt 0.582041 0.549636
vt 0.528073 0.550026
vt 0.519092 0.252339
vt 0.609758 0.385839
vt 0.608999 0.412685
vt 0.569807 0.412313
vt 0.567758 0.387463
vt 0.695405 0.385615
vt 0.571144 0.402461
vt 0.694646 0.412461
vt 0.695011 0.399565
s 1
f 23/1/1 26/2/1 3/3/1
f 25/4/2 24/5/2 1/6/2 2/7/2
f 26/2/3 25/8/3 2/9/3 3/3/3
f 24/5/2 22/10/2 1/6/2
f 23/1/4 3/3/4 6/11/4
f 2/7/2 1/6/2 4/12/2 5/13/2
f 3/3/5 2/9/5 5/14/5 6/11/5
f 1/6/2 22/10/2 4/12/2
f 23/1/6 6/11/6 9/15/6
f 5/13/7 4/12/7 7/16/7 8/17/7
f 6/11/8 5/14/8 8/18/8 9/15/8
f 4/12/9 22/10/9 7/16/9
f 23/1/10 9/15/10 21/19/10
f 8/20/11 7/16/12 19/21/13 20/22/14
f 9/15/15 8/20/11 20/22/14 21/19/16
f 7/16/17 22/10/17 19/21/17
f 23/1/18 12/3/18 26/2/18
f 25/4/2 11/7/2 10/6/2 24/5/2
f 26/2/19 12/3/19 11/9/19 25/8/19
f 24/5/2 10/6/2 22/10/2
f 23/1/20 15/11/20 12/3/20
f 11/7/2 14/13/2 13/12/2 10/6/2
f 12/3/21 15/11/21 14/14/21 11/9/21
f 10/6/2 13/12/2 22/10/2
f 23/1/22 18/15/22 15/11/22
f 14/13/23 17/17/23 16/16/23 13/12/23
f 15/11/24 18/15/24 17/18/24 14/14/24
f 13/12/9 16/16/9 22/10/9
f 23/1/25 21/19/25 18/15/25
f 17/20/26 20/22/14 19/21/13 16/16/27
f 18/15/28 21/19/16 20/22/14 17/20/26
f 16/16/29 19/21/29 22/10/29
