# Blender 5.2.2 LTS
# www.blender.org
mtllib Panel_Izquierdo.mtl
o Panel_Izquierdo
v -0.247295 -0.122119 -0.183973
v -0.254718 -0.123082 -0.156669
v -0.222297 0.116370 -0.168766
v -0.229720 0.115407 -0.141463
v -1.228690 -0.003155 -0.436405
v -1.230958 -0.003450 -0.428061
v -1.203692 0.235333 -0.421198
v -1.205960 0.235039 -0.412855
v -1.195121 0.234615 -0.424027
v -1.199986 0.233984 -0.406134
v -1.220119 -0.003873 -0.439233
v -1.224983 -0.004504 -0.421340
v -1.129082 0.226888 -0.411404
v -1.161503 -0.012563 -0.399307
v -1.136505 0.225926 -0.384101
v -1.154080 -0.011600 -0.426610
vn 0.9594 -0.1169 0.2567
vn 0.1040 0.9926 0.0633
vn -0.9594 0.1169 -0.2567
vn -0.1040 -0.9926 -0.0633
vn -0.3051 0.0924 -0.9478
vn -0.2622 -0.0340 0.9644
vn -0.7441 0.0355 0.6671
vn 0.1924 0.0423 -0.9804
vn 0.2622 0.0340 -0.9644
vn -0.3307 -0.0255 0.9434
vt 0.737438 0.967842
vt 0.737438 0.802311
vt 0.039789 0.802311
vt 0.034567 0.802311
vt 0.034567 0.967842
vt 0.086292 0.967842
vt 0.039789 0.967842
vt 0.086292 0.802117
vt 0.086292 0.967648
vt 0.737438 0.967648
vt 0.737438 0.802117
vt 0.034567 0.802117
vt 0.034567 0.967648
vt 0.039789 0.967648
vt 0.039789 0.802117
vt 0.086292 0.802311
s 1
f 1/1/1 3/2/1 4/2/1 2/1/1
f 9/3/2 7/4/2 8/4/2 10/3/2
f 7/4/3 5/5/3 6/5/3 8/4/3
f 16/6/4 1/1/4 2/1/4 14/6/4
f 9/3/5 11/7/5 5/5/5 7/4/5
f 15/8/6 14/9/6 2/10/6 4/11/6
f 8/12/7 6/13/7 12/14/7 10/15/7
f 13/16/8 16/6/8 11/7/8 9/3/8
f 5/5/4 11/7/4 12/7/4 6/5/4
f 13/16/2 9/3/2 10/3/2 15/16/2
f 3/2/2 13/16/2 15/16/2 4/2/2
f 3/2/9 1/1/9 16/6/9 13/16/9
f 10/15/10 12/14/10 14/9/10 15/8/10
f 11/7/4 16/6/4 14/6/4 12/7/4
