# Blender 5.2.2 LTS
# www.blender.org
mtllib Panel_Derecho.mtl
o Panel_Derecho
v 0.255641 -0.125948 0.016075
v 0.248218 -0.115506 0.041321
v 0.280639 0.097391 -0.068944
v 0.273216 0.107832 -0.043697
v 1.231882 -0.122322 0.312642
v 1.229613 -0.119132 0.320357
v 1.256880 0.101016 0.227624
v 1.254611 0.104207 0.235339
v 1.250904 0.099190 0.221070
v 1.246040 0.106033 0.237615
v 1.225906 -0.124148 0.306088
v 1.221042 -0.117306 0.322634
v 1.187424 0.097391 0.197679
v 1.155003 -0.115506 0.307943
v 1.180001 0.107832 0.222925
v 1.162427 -0.125948 0.282697
vn -0.9594 -0.0000 -0.2821
vn 0.1040 0.9295 -0.3538
vn 0.9594 -0.0000 0.2821
vn -0.1040 -0.9295 0.3538
vn 0.7441 -0.3088 -0.5924
vn -0.2622 0.3688 0.8918
vn 0.3051 0.3088 0.9009
vn 0.3307 -0.3679 -0.8691
vn 0.2622 -0.3688 -0.8918
vn -0.1924 0.3679 0.9098
vt 0.737438 0.967903
vt 0.737438 0.802372
vt 0.039789 0.802372
vt 0.034567 0.802372
vt 0.034567 0.967903
vt 0.086292 0.967903
vt 0.039789 0.967903
vt 0.086292 0.802372
s 1
f 1/1/1 2/1/1 4/2/1 3/2/1
f 9/3/2 10/3/2 8/4/2 7/4/2
f 7/4/3 8/4/3 6/5/3 5/5/3
f 16/6/4 14/6/4 2/1/4 1/1/4
f 9/3/5 7/4/5 5/5/5 11/7/5
f 15/8/6 4/2/6 2/1/6 14/6/6
f 8/4/7 10/3/7 12/7/7 6/5/7
f 13/8/8 9/3/8 11/7/8 16/6/8
f 5/5/4 6/5/4 12/7/4 11/7/4
f 13/8/2 15/8/2 10/3/2 9/3/2
f 3/2/2 4/2/2 15/8/2 13/8/2
f 3/2/9 13/8/9 16/6/9 1/1/9
f 10/3/10 15/8/10 14/6/10 12/7/10
f 11/7/4 12/7/4 14/6/4 16/6/4
