# Blender 5.2.2 LTS
# www.blender.org
mtllib Satelite_Cuerpo.mtl
o Satelite_Cuerpo
v 0.051458 0.286592 0.019728
v 0.041093 0.289351 0.012359
v 0.061841 0.196085 -0.058208
v 0.043339 0.294650 0.004720
v 0.078037 0.191774 -0.046694
v 0.059534 0.290339 0.016235
v 0.081090 0.181367 -0.029495
v 0.062587 0.279931 0.033434
v 0.069213 0.170959 -0.016686
v 0.050711 0.269524 0.046243
v 0.049363 0.166648 -0.015770
v 0.030860 0.265213 0.047158
v 0.033168 0.170959 -0.027284
v 0.014665 0.269524 0.035644
v 0.030114 0.181367 -0.044483
v 0.011611 0.279931 0.018445
v 0.041991 0.191774 -0.057292
v 0.023488 0.290339 0.005636
v 0.053412 0.279931 0.030736
v 0.045811 0.273270 0.038934
v 0.033106 0.270511 0.039520
v 0.022741 0.273270 0.032151
v 0.020787 0.279931 0.021143
v 0.028388 0.286592 0.012945
v 0.042807 0.332677 0.049151
v 0.032441 0.335436 0.041782
v 0.044761 0.326016 0.060159
v 0.037160 0.319355 0.068357
v 0.024455 0.316596 0.068943
v 0.014090 0.319355 0.061573
v 0.012136 0.326016 0.050566
v 0.019737 0.332677 0.042368
v 0.036505 0.329754 0.051877
v 0.030689 0.331302 0.047742
v 0.037602 0.326016 0.058054
v 0.033337 0.322279 0.062654
v 0.026208 0.320730 0.062983
v 0.020391 0.322279 0.058848
v 0.019295 0.326016 0.052671
v 0.023560 0.329754 0.048070
v 0.029402 0.367596 0.076037
v 0.023585 0.369144 0.071902
v 0.030498 0.363859 0.082214
v 0.026233 0.360121 0.086814
v 0.019104 0.358573 0.087143
v 0.013287 0.360121 0.083008
v 0.012191 0.363859 0.076831
v 0.016456 0.367596 0.072231
v 0.108340 0.203572 -0.051874
v 0.150051 -0.018624 -0.193734
v 0.054487 0.076528 0.131280
v 0.096198 -0.145667 -0.010579
v 0.111158 0.009225 -0.061458
v 0.114874 -0.010572 -0.074097
v 0.103970 -0.007732 -0.037011
v 0.107686 -0.027529 -0.049651
v 0.267256 0.007323 -0.019339
v 0.270738 -0.011227 -0.031182
v 0.259146 -0.011810 0.008245
v 0.262628 -0.030360 -0.003598
v 0.012276 0.119726 0.139696
v 0.027985 0.120462 0.177980
v 0.046905 0.156623 0.101023
v 0.044025 0.160853 0.104617
v 0.072885 0.178624 0.128371
v 0.030865 0.116233 0.174385
v 0.015156 0.115497 0.136102
v 0.029058 0.200781 0.058664
v 0.051719 0.235091 0.063383
v -0.003037 -0.122377 -0.007303
v -0.006749 -0.101366 0.005321
v -0.033858 -0.134903 0.097521
v -0.034527 -0.110232 0.099798
v -0.024314 -0.152278 0.097635
v -0.026441 -0.092857 0.104868
v -0.030651 -0.152997 0.115462
v -0.032659 -0.096878 0.122293
v -0.030442 -0.122567 0.099762
v -0.001210 -0.111872 0.000092
v -0.013737 -0.122567 0.104674
v -0.022572 -0.124938 0.121548
v -0.045644 -0.146932 0.384000
v -0.022424 -0.151144 0.426177
v -0.044807 -0.170819 0.381154
v 0.013776 -0.129911 0.258605
v 0.060142 -0.129911 0.272238
v 0.014612 -0.153798 0.255760
v 0.024789 -0.117061 0.134793
v 0.057873 -0.125193 0.143419
v 0.025626 -0.140948 0.131947
v 0.075765 0.174394 0.124776
v 0.031938 0.196552 0.055070
v 0.054599 0.230861 0.059789
v 0.056113 0.017163 -0.208473
v 0.052079 0.037414 -0.194753
v 0.071274 0.113112 -0.260035
v 0.065113 0.124829 -0.239081
v 0.084329 0.104021 -0.271862
v 0.069689 0.133920 -0.222070
v 0.085566 0.121168 -0.279793
v 0.071739 0.149406 -0.232767
v 0.071945 0.118971 -0.248455
v 0.057779 0.027288 -0.200530
v 0.088650 0.118971 -0.243543
v 0.087736 0.135287 -0.253610
v -0.091649 0.203572 -0.110677
v -0.049938 -0.018624 -0.252537
v -0.145502 0.076528 0.072477
v -0.103791 -0.145667 -0.069382
v -0.088831 0.009225 -0.120261
v -0.085115 -0.010572 -0.132900
v -0.096019 -0.007732 -0.095814
v -0.092303 -0.027529 -0.108453
v -0.242884 0.007323 -0.169335
v -0.239402 -0.011227 -0.181178
v -0.250995 -0.011810 -0.141752
v -0.247512 -0.030360 -0.153595
v -0.114564 0.119726 0.102401
v -0.148494 0.120462 0.126089
v -0.122749 0.156623 0.051139
v -0.122273 0.160853 0.055721
v -0.159397 0.178624 0.060072
v -0.148970 0.116233 0.121508
v -0.115040 0.115497 0.097820
v -0.084816 0.200781 0.025182
v -0.106424 0.235091 0.016885
v -0.022123 -0.122377 -0.012915
v -0.025834 -0.101366 -0.000291
v -0.052944 -0.134903 0.091909
v -0.053614 -0.110232 0.094186
v -0.061031 -0.152278 0.086839
v -0.063158 -0.092857 0.094072
v -0.065352 -0.152997 0.105259
v -0.067360 -0.096878 0.112090
v -0.057030 -0.122567 0.091945
v -0.027661 -0.111872 -0.007685
v -0.073735 -0.122567 0.087033
v -0.075439 -0.124938 0.106003
v -0.198095 -0.146932 0.339175
v -0.240448 -0.151144 0.362071
v -0.197259 -0.170819 0.336329
v -0.180186 -0.129911 0.201575
v -0.226553 -0.129911 0.187942
v -0.179349 -0.153798 0.198729
v -0.122432 -0.117061 0.091506
v -0.154920 -0.125193 0.080851
v -0.121595 -0.140948 0.088660
v -0.159873 0.174394 0.055491
v -0.085292 0.196552 0.020601
v -0.106900 0.230861 0.012304
v -0.053761 0.093936 0.129948
v 0.056896 -0.028501 -0.246397
v 0.007003 0.237282 -0.076709
v -0.003867 -0.171847 -0.039740
v -0.023767 0.216475 0.027938
v -0.021632 0.257139 0.020678
v -0.034929 0.140153 0.065903
v -0.036131 0.144382 0.069991
v -0.020430 0.252910 0.016590
v -0.056669 0.101846 0.139839
v -0.068163 0.095030 0.178929
v -0.022565 0.212246 0.023850
v -0.043437 -0.133588 0.094836
v -0.044035 -0.111547 0.096871
v -0.012774 -0.121278 -0.009449
v -0.016097 -0.102465 0.001855
v -0.042739 -0.154766 0.092464
v -0.044912 -0.089306 0.099854
v -0.048042 -0.155250 0.110500
v -0.050112 -0.094451 0.117540
v -0.048587 -0.132791 0.112352
v -0.048756 -0.119419 0.112928
v -0.048333 -0.130885 0.111490
v -0.047919 -0.143306 0.110082
v -0.083205 -0.129911 0.230090
v -0.081314 -0.183903 0.223657
v -0.122736 -0.147314 0.364535
v -0.136265 -0.153270 0.410548
v -0.121899 -0.171201 0.361689
v -0.055467 0.097617 0.135751
v -0.066961 0.090800 0.174841
v 0.037028 0.017163 -0.214085
v 0.032993 0.037414 -0.200365
v 0.052188 0.113112 -0.265647
v 0.046027 0.124829 -0.244693
v 0.047612 0.104021 -0.282658
v 0.032972 0.133920 -0.232866
v 0.050865 0.121168 -0.289997
v 0.037038 0.149406 -0.242970
v 0.045357 0.118971 -0.256273
v 0.031328 0.027288 -0.208308
v 0.028652 0.118971 -0.261185
v 0.034868 0.135287 -0.269154
v 0.061403 0.113737 -0.261724
v 0.055898 0.124205 -0.243004
v 0.046359 0.018222 -0.210562
v 0.042747 0.036355 -0.198276
v 0.066644 0.103279 -0.279550
v 0.050450 0.135661 -0.224473
v 0.068818 0.120433 -0.286943
v 0.053797 0.150679 -0.235856
v 0.063184 0.130886 -0.267782
vn -0.5841 -0.5118 0.6300
vn -0.1563 0.8325 0.5315
vn 0.5841 0.5118 -0.6300
vn 0.9762 0.2120 -0.0450
vn 0.7965 -0.2120 0.5663
vn -0.9762 -0.2120 0.0450
vn 0.1502 -0.5118 0.8459
vn -0.1502 0.5118 -0.8459
vn -0.7965 0.2120 -0.5663
vn 0.1212 0.7986 0.5896
vn -0.0984 -0.5486 0.8303
vn 0.3666 0.5486 -0.7514
vn 0.3482 -0.8151 -0.4630
vn 0.9594 -0.0000 0.2821
vn -0.1349 0.8323 0.5376
vn 0.1438 -0.8324 -0.5351
vn -0.2465 -0.5540 0.7952
vn 0.2232 0.5540 -0.8021
vn -0.2522 0.9635 0.0895
vn 0.4119 -0.6172 -0.6704
vn -0.2222 0.8604 0.4586
vn -0.6496 0.7171 0.2528
vn 0.7165 -0.3940 -0.5757
vn 0.4505 -0.1786 -0.8747
vn -0.3853 0.7527 0.5338
vn 0.3078 -0.5182 -0.7979
vn 0.2480 -0.9646 -0.0893
vn -0.7165 0.3940 0.5757
vn -0.4158 0.6151 0.6699
vn 0.2202 -0.8606 -0.4593
vn 0.6496 -0.7171 -0.2528
vn -0.4541 0.1798 0.8726
vn -0.3098 0.5182 0.7972
vn 0.3818 -0.7525 -0.5367
vn 0.2792 0.1419 -0.9497
vn 0.2808 0.1419 -0.9492
vn 0.9026 0.3120 0.2965
vn -0.0875 -0.9859 -0.1428
vn -0.1439 0.9883 0.0513
vn 0.8666 -0.3587 0.3470
vn 0.2646 0.1231 -0.9565
vn 0.2644 0.1234 -0.9565
vn 0.2639 0.1244 -0.9565
vn 0.2630 0.1259 -0.9565
vn -0.2874 -0.1350 0.9482
vn 0.1288 -0.9916 0.0085
vn 0.0839 0.9571 0.2772
vn -0.2805 -0.1070 0.9539
vn -0.2857 -0.1070 0.9523
vn 0.2952 0.1231 -0.9475
vn 0.8421 0.3252 0.4302
vn 0.9210 -0.3106 0.2352
vn -0.0170 -0.9961 0.0867
vn -0.0348 0.9924 0.1182
vn -0.0569 -0.9251 0.3754
vn 0.2962 -0.9551 0.0107
vn 0.4612 -0.8799 0.1139
vn 0.3198 -0.9449 -0.0696
vn 0.0816 0.9941 0.0720
vn 0.4665 -0.8834 -0.0453
vn -0.0296 0.9945 0.1006
vn 0.1203 -0.9455 -0.3026
vn 0.2791 0.1275 -0.9517
vn 0.2798 0.1280 -0.9515
vn 0.2798 0.1281 -0.9515
vn 0.2791 0.1281 -0.9517
vn 0.2797 0.1194 -0.9526
vn 0.2801 0.1194 -0.9525
vn -0.0537 0.9959 0.0734
vn 0.5015 0.7017 -0.5061
vn 0.7603 -0.0336 0.6487
vn 0.8681 0.4783 0.1328
vn 0.1675 -0.6173 0.7687
vn -0.1447 -0.8583 0.4923
vn -0.1432 -0.8583 0.4927
vn 0.8331 0.1480 0.5329
vn 0.1251 -0.4843 -0.8659
vn -0.3659 0.4644 0.8065
vn 0.9945 -0.0570 -0.0880
vn -0.1554 -0.8678 0.4720
vn -0.1564 -0.8671 0.4729
vn -0.1556 -0.8677 0.4722
vn -0.1576 -0.8663 0.4739
vn 0.1351 0.8618 -0.4889
vn 0.3759 -0.4089 -0.8316
vn -0.0704 0.5931 0.8021
vn 0.1361 0.8758 -0.4630
vn 0.1309 0.8758 -0.4646
vn -0.1248 -0.8678 0.4810
vn 0.8260 0.2872 0.4851
vn 0.9884 -0.1514 0.0057
vn -0.4210 0.7986 0.4301
vn -0.3666 -0.5486 0.7514
vn 0.0984 0.5486 -0.8303
vn -0.0422 -0.8151 -0.5778
vn -0.9594 -0.0000 -0.2821
vn -0.1776 0.8323 0.5251
vn 0.1687 -0.8324 -0.5278
vn -0.2232 -0.5540 0.8021
vn 0.2465 0.5540 -0.7952
vn 0.1636 0.9635 0.2117
vn 0.0165 -0.6172 -0.7867
vn -0.0614 0.8604 0.5059
vn 0.4094 0.7171 0.5641
vn -0.2908 -0.3940 -0.8719
vn 0.0947 -0.1786 -0.9794
vn 0.0350 0.7527 0.6574
vn 0.1731 -0.5182 -0.8375
vn -0.1602 -0.9646 -0.2093
vn 0.2908 0.3940 0.8719
vn -0.0130 0.6151 0.7883
vn 0.0635 -0.8606 -0.5054
vn -0.4094 -0.7171 -0.5641
vn -0.0905 0.1798 0.9795
vn -0.1710 0.5182 0.8380
vn -0.0305 -0.7525 -0.6579
vn 0.2777 0.1419 -0.9501
vn -0.9195 0.3120 -0.2393
vn 0.1509 -0.9859 -0.0727
vn 0.0932 0.9883 0.1210
vn -0.9165 -0.3587 -0.1773
vn 0.2959 0.1244 -0.9471
vn 0.2954 0.1235 -0.9473
vn 0.2966 0.1259 -0.9467
vn -0.2716 -0.1350 0.9529
vn -0.1130 -0.9916 -0.0626
vn -0.2206 0.9571 0.1876
vn -0.2752 -0.1070 0.9554
vn -0.9409 0.3252 -0.0941
vn -0.9017 -0.3106 -0.3007
vn -0.0327 -0.9961 0.0821
vn -0.1554 -0.9251 0.3465
vn -0.2548 -0.9551 -0.1513
vn -0.4495 -0.8799 -0.1538
vn -0.2313 -0.9449 -0.2317
vn -0.1076 0.9941 0.0163
vn -0.3678 -0.8834 -0.2906
vn 0.0626 -0.9455 -0.3195
vn 0.2805 0.1275 -0.9514
vn 0.2805 0.1281 -0.9513
vn 0.2804 0.1194 -0.9524
vn 0.0055 0.9959 0.0908
vn -0.1478 0.7017 -0.6970
vn -0.9904 -0.0336 0.1339
vn -0.8018 0.4783 -0.3582
vn -0.5569 -0.6173 0.5557
vn -0.1463 -0.8583 0.4918
vn -0.9890 0.1480 -0.0028
vn 0.3635 -0.4843 -0.7958
vn -0.1288 0.4644 0.8762
vn -0.7886 -0.0570 -0.6123
vn -0.1248 -0.8677 0.4812
vn -0.1244 -0.8671 0.4823
vn -0.1240 -0.8663 0.4838
vn 0.1510 0.8618 -0.4842
vn 0.1341 -0.4089 -0.9027
vn -0.3749 0.5931 0.7125
vn 0.1414 0.8758 -0.4615
vn -0.9571 0.2872 -0.0392
vn -0.8342 -0.1514 -0.5302
vt 0.788525 0.195791
vt 0.773896 0.195031
vt 0.777900 0.140834
vt 0.788049 0.141496
vt 0.868209 0.190477
vt 0.851411 0.196374
vt 0.849189 0.186740
vt 0.864099 0.180852
vt 0.848483 0.302172
vt 0.835193 0.200322
vt 0.869434 0.299566
vt 0.833965 0.190832
vt 0.819490 0.136920
vt 0.830057 0.133523
vt 0.787537 0.204671
vt 0.771747 0.203135
vt 0.890561 0.296034
vt 0.840838 0.128697
vt 0.819214 0.202964
vt 0.818727 0.193615
vt 0.886150 0.179799
vt 0.911851 0.291611
vt 0.803553 0.195260
vt 0.798430 0.140906
vt 0.754788 0.197966
vt 0.760344 0.191423
vt 0.748639 0.302699
vt 0.766626 0.303755
vt 0.808943 0.139354
vt 0.803347 0.204443
vt 0.786810 0.304565
vt 0.817956 0.128438
vt 0.827544 0.125109
vt 0.876785 0.172684
vt 0.807167 0.304632
vt 0.852272 0.120255
vt 0.827724 0.303852
vt 0.766802 0.137776
vt 0.779504 0.133984
vt 0.770966 0.132532
vt 0.764551 0.079077
vt 0.773139 0.078046
vt 0.836592 0.120691
vt 0.844235 0.115135
vt 0.788682 0.133729
vt 0.798325 0.132682
vt 0.808151 0.130928
vt 0.811735 0.064508
vt 0.809173 0.057225
vt 0.812511 0.050264
vt 0.819793 0.047701
vt 0.826755 0.051039
vt 0.829317 0.058322
vt 0.825980 0.065283
vt 0.818697 0.067846
vt 0.780848 0.076999
vt 0.788530 0.075709
vt 0.796176 0.074149
vt 0.803769 0.072311
vt 0.811284 0.070203
vt 0.376430 0.689690
vt 0.387628 0.772384
vt 0.190708 0.772383
vt 0.201906 0.689690
vt 0.201906 0.486562
vt 0.121795 0.713055
vt 0.121795 0.470081
vt 0.456541 0.470081
vt 0.456541 0.713055
vt 0.376430 0.486562
vt 0.387628 0.405544
vt 0.190708 0.405544
vt 0.277521 0.562341
vt 0.300815 0.562341
vt 0.977746 0.114127
vt 0.977788 0.130218
vt 0.892792 0.131471
vt 0.892745 0.113315
vt 0.300815 0.544243
vt 0.277521 0.544243
vt 0.977788 0.085536
vt 0.977588 0.101626
vt 0.892596 0.101602
vt 0.892822 0.083447
vt 0.977694 0.142719
vt 0.892704 0.143185
vt 0.897557 0.772984
vt 0.845454 0.636241
vt 0.802971 0.683094
vt 0.766196 0.669032
vt 0.831545 0.600298
vt 0.857036 0.454856
vt 0.886448 0.520807
vt 0.833911 0.525259
vt 0.870720 0.709000
vt 0.901420 0.638203
vt 0.916413 0.602144
vt 0.902495 0.554289
vt 0.821937 0.560032
vt 0.921472 0.479130
vt 0.956802 0.492440
vt 0.793252 0.491676
vt 0.760993 0.508316
vt 0.758305 0.417661
vt 0.793014 0.430737
vt 0.940008 0.678765
vt 0.976349 0.663495
vt 0.938916 0.735077
vt 0.976357 0.749394
vt 0.833710 0.965732
vt 0.798502 0.976718
vt 0.800586 0.951761
vt 0.829137 0.947873
vt 0.826279 0.923913
vt 0.963852 0.922179
vt 0.963852 0.941266
vt 0.832908 0.882230
vt 0.963852 0.890575
vt 0.963852 0.905119
vt 0.828302 0.900204
vt 0.963852 0.958832
vt 0.805099 0.924183
vt 0.787656 0.924299
vt 0.784132 0.899453
vt 0.800248 0.897078
vt 0.798808 0.872246
vt 0.763089 0.924482
vt 0.784345 0.948939
vt 0.771213 0.965720
vt 0.771005 0.881993
vt 0.696011 0.245981
vt 0.595986 0.100987
vt 0.680880 0.087106
vt 0.696011 0.760746
vt 0.569081 0.742163
vt 0.607026 0.703809
vt 0.695728 0.706805
vt 0.551136 0.062751
vt 0.672487 0.027543
vt 0.694929 0.549219
vt 0.578969 0.250655
vt 0.528049 0.550026
vt 0.582018 0.549636
vt 0.519068 0.252339
vt 0.609735 0.385839
vt 0.569784 0.412313
vt 0.608976 0.412685
vt 0.567735 0.387463
vt 0.695382 0.385615
vt 0.571121 0.402461
vt 0.694988 0.399565
vt 0.694623 0.412461
vt 0.982237 0.661805
vt 0.982237 0.749317
vt 0.832340 0.594364
vt 0.917208 0.596210
vt 0.920205 0.597430
vt 0.980141 0.658781
vt 0.762127 0.665005
vt 0.828537 0.595150
vt 0.833744 0.965801
vt 0.829171 0.947942
vt 0.800620 0.951830
vt 0.798536 0.976787
vt 0.826312 0.923982
vt 0.963886 0.941335
vt 0.963886 0.922248
vt 0.832942 0.882298
vt 0.828335 0.900273
vt 0.963886 0.905188
vt 0.963886 0.890644
vt 0.963886 0.958900
vt 0.805133 0.924251
vt 0.800282 0.897146
vt 0.784165 0.899522
vt 0.787689 0.924368
vt 0.798841 0.872315
vt 0.763122 0.924550
vt 0.771246 0.965789
vt 0.784379 0.949008
vt 0.771038 0.882062
vt 0.376430 0.121398
vt 0.201906 0.121398
vt 0.190708 0.038705
vt 0.387628 0.038705
vt 0.201906 0.324526
vt 0.121795 0.341007
vt 0.121795 0.098033
vt 0.456541 0.341007
vt 0.376430 0.324526
vt 0.456541 0.098033
vt 0.300815 0.248747
vt 0.277521 0.248747
vt 0.977746 0.053869
vt 0.892745 0.053057
vt 0.892792 0.071213
vt 0.977788 0.069960
vt 0.300815 0.266845
vt 0.277521 0.266845
vt 0.977788 0.025278
vt 0.892822 0.023189
vt 0.892596 0.041344
vt 0.977588 0.041369
vt 0.892704 0.082927
vt 0.977694 0.082462
vt 0.897557 0.772464
vt 0.803355 0.746338
vt 0.769013 0.763830
vt 0.886112 0.386694
vt 0.922653 0.424704
vt 0.846351 0.782218
vt 0.833460 0.819080
vt 0.900059 0.352663
vt 0.956802 0.410132
vt 0.833401 0.385102
vt 0.820140 0.351314
vt 0.902157 0.777750
vt 0.919038 0.813373
vt 0.980685 0.753374
vt 0.922297 0.818559
vt 0.830093 0.824031
vt 0.765646 0.768781
vt 0.918717 0.819413
vt 0.833139 0.825121
vt 0.763337 0.765658
vt 0.760478 0.669316
s 1
f 22/1/1 21/2/1 29/3/1 30/4/1
f 8/5/2 6/6/2 1/7/2 19/8/2
f 3/9/3 4/10/3 6/6/3 5/11/3
f 1/7/3 2/12/3 26/13/3 25/14/3
f 14/15/2 12/16/2 21/2/2 22/1/2
f 5/11/4 6/6/4 8/5/4 7/17/4
f 19/8/4 1/7/4 25/14/4 27/18/4
f 4/10/2 18/19/2 24/20/2 2/12/2
f 7/17/5 8/5/5 10/21/5 9/22/5
f 23/23/6 22/1/6 30/4/6 31/24/6
f 12/16/2 10/25/2 20/26/2 21/2/2
f 9/27/7 10/25/7 12/16/7 11/28/7
f 2/12/8 24/20/8 32/29/8 26/13/8
f 18/19/2 16/30/2 23/23/2 24/20/2
f 11/28/1 12/16/1 14/15/1 13/31/1
f 25/14/2 26/13/2 34/32/2 33/33/2
f 10/21/2 8/5/2 19/8/2 20/34/2
f 13/31/6 14/15/6 16/30/6 15/35/6
f 6/6/2 4/10/2 2/12/2 1/7/2
f 20/34/5 19/8/5 27/18/5 28/36/5
f 15/35/9 16/30/9 18/19/9 17/37/9
f 24/20/9 23/23/9 31/24/9 32/29/9
f 16/30/2 14/15/2 22/1/2 23/23/2
f 17/37/8 18/19/8 4/10/8 3/9/8
f 21/2/7 20/26/7 28/38/7 29/3/7
f 37/39/7 36/40/7 44/41/7 45/42/7
f 28/36/2 27/18/2 35/43/2 36/44/2
f 30/4/2 29/3/2 37/39/2 38/45/2
f 32/29/2 31/24/2 39/46/2 40/47/2
f 27/18/2 25/14/2 33/33/2 35/43/2
f 29/3/2 28/38/2 36/40/2 37/39/2
f 31/24/2 30/4/2 38/45/2 39/46/2
f 26/13/2 32/29/2 40/47/2 34/32/2
f 41/48/2 42/49/2 48/50/2 47/51/2 46/52/2 45/53/2 44/54/2 43/55/2
f 39/46/6 38/45/6 46/56/6 47/57/6
f 34/32/8 40/47/8 48/58/8 42/59/8
f 33/33/3 34/32/3 42/59/3 41/60/3
f 36/44/5 35/43/5 43/55/5 44/54/5
f 38/45/1 37/39/1 45/42/1 46/56/1
f 40/47/9 39/46/9 47/57/9 48/58/9
f 35/43/4 33/33/4 41/60/4 43/55/4
f 49/61/10 153/62/10 151/63/10 51/64/10
f 52/65/11 51/64/11 151/66/11 154/67/11
f 152/68/12 153/69/12 49/61/12 50/70/12
f 152/71/13 50/70/13 52/65/13 154/72/13
f 49/61/14 51/64/14 55/73/14 53/74/14
f 53/75/15 55/76/15 59/77/15 57/78/15
f 50/70/14 49/61/14 53/74/14 54/79/14
f 52/65/14 50/70/14 54/79/14 56/80/14
f 51/64/14 52/65/14 56/80/14 55/73/14
f 56/81/16 54/82/16 58/83/16 60/84/16
f 55/76/17 56/85/17 60/86/17 59/77/17
f 54/82/18 53/75/18 57/78/18 58/83/18
f 60/87/14 58/87/14 57/87/14 59/87/14
f 61/88/19 160/89/19 161/90/19 62/91/19
f 157/92/20 92/93/20 63/94/20
f 158/95/21 160/89/21 61/88/21
f 64/96/22 61/88/22 62/91/22 65/97/22
f 92/93/23 93/98/23 91/99/23 63/94/23
f 162/100/24 159/101/24 93/98/24 92/93/24
f 158/95/25 61/88/25 64/96/25
f 157/92/26 162/100/26 92/93/26
f 67/102/27 66/103/27 181/104/27 180/105/27
f 68/106/28 64/96/28 65/97/28 69/107/28
f 158/95/29 64/96/29 68/106/29
f 157/92/30 67/102/30 180/105/30
f 63/94/31 91/99/31 66/103/31 67/102/31
f 155/108/32 68/106/32 69/107/32 156/109/32
f 158/95/33 68/106/33 155/108/33
f 157/92/34 63/94/34 67/102/34
f 164/110/35 168/111/35 75/112/36 73/113/36
f 78/114/37 79/115/37 71/116/37 73/113/37
f 163/117/38 165/118/38 70/119/38 72/120/38
f 73/113/39 71/116/39 166/121/39 164/110/39
f 80/122/40 81/123/40 76/124/40 74/125/40
f 78/114/41 80/122/41 74/125/42 72/120/43
f 72/120/43 74/125/42 167/126/44 163/117/44
f 171/127/45 81/123/45 77/128/45 170/129/45
f 74/125/46 76/124/46 169/130/46 167/126/46
f 168/111/47 170/129/47 77/128/47 75/112/47
f 169/130/48 76/124/49 81/123/49 171/127/48
f 73/113/50 75/112/50 80/122/50 78/114/50
f 75/112/51 77/128/51 81/123/51 80/122/51
f 72/120/52 70/119/52 79/115/52 78/114/52
f 176/131/53 84/132/53 179/133/53
f 178/134/54 83/135/54 82/136/54 177/137/54
f 179/133/55 84/132/55 83/138/55 178/139/55
f 177/137/54 82/136/54 175/140/54
f 176/131/56 87/141/56 84/132/56
f 83/135/54 86/142/54 85/143/54 82/136/54
f 84/132/57 87/141/57 86/144/57 83/138/57
f 82/136/54 85/143/54 175/140/54
f 176/131/58 90/145/58 87/141/58
f 86/142/59 89/146/59 88/147/59 85/143/59
f 87/141/60 90/145/60 89/148/60 86/144/60
f 85/143/61 88/147/61 175/140/61
f 176/131/62 174/149/62 90/145/62
f 89/150/63 173/151/64 172/152/65 88/147/66
f 90/145/67 174/149/68 173/151/64 89/150/63
f 88/147/69 172/152/69 175/140/69
f 156/109/70 69/107/70 93/153/70 159/154/70
f 65/97/71 62/91/71 66/155/71 91/156/71
f 69/107/72 65/97/72 91/157/72 93/158/72
f 62/91/73 161/90/73 181/159/73 66/160/73
f 195/161/74 97/162/75 99/163/75 199/164/74
f 102/165/76 97/162/76 95/166/76 103/167/76
f 194/168/77 96/169/77 94/170/77 196/171/77
f 97/162/78 195/161/78 197/172/78 95/166/78
f 104/173/79 98/174/79 100/175/79 105/176/79
f 102/165/80 96/169/81 98/174/82 104/173/80
f 96/169/81 194/168/83 198/177/83 98/174/82
f 202/178/84 201/179/84 101/180/84 105/176/84
f 98/174/85 198/177/85 200/181/85 100/175/85
f 199/164/86 99/163/86 101/180/86 201/179/86
f 200/181/87 202/178/87 105/176/88 100/175/88
f 97/162/89 102/165/89 104/173/89 99/163/89
f 99/163/90 104/173/90 105/176/90 101/180/90
f 96/169/91 102/165/91 103/167/91 94/170/91
f 106/182/92 108/183/92 151/184/92 153/185/92
f 109/186/93 154/187/93 151/188/93 108/183/93
f 152/189/94 107/190/94 106/182/94 153/191/94
f 152/71/95 154/72/95 109/186/95 107/190/95
f 106/182/96 110/192/96 112/193/96 108/183/96
f 110/194/97 114/195/97 116/196/97 112/197/97
f 107/190/96 111/198/96 110/192/96 106/182/96
f 109/186/96 113/199/96 111/198/96 107/190/96
f 108/183/96 112/193/96 113/199/96 109/186/96
f 113/200/98 117/201/98 115/202/98 111/203/98
f 112/197/99 116/196/99 117/204/99 113/205/99
f 111/203/100 115/202/100 114/195/100 110/194/100
f 117/206/96 116/206/96 114/206/96 115/206/96
f 118/207/101 119/208/101 161/90/101 160/89/101
f 157/92/102 120/209/102 149/210/102
f 158/95/103 118/207/103 160/89/103
f 121/211/104 122/212/104 119/208/104 118/207/104
f 149/210/105 120/209/105 148/213/105 150/214/105
f 162/100/106 149/210/106 150/214/106 159/101/106
f 158/95/107 121/211/107 118/207/107
f 157/92/108 149/210/108 162/100/108
f 124/215/109 180/105/109 181/104/109 123/216/109
f 125/217/110 126/218/110 122/212/110 121/211/110
f 158/95/111 125/217/111 121/211/111
f 157/92/112 180/105/112 124/215/112
f 120/209/113 124/215/113 123/216/113 148/213/113
f 155/108/114 156/109/114 126/218/114 125/217/114
f 158/95/115 155/108/115 125/217/115
f 157/92/116 124/215/116 120/209/116
f 164/110/35 130/113/117 132/112/117 168/111/35
f 135/114/118 130/113/118 128/116/118 136/115/118
f 163/117/119 129/120/119 127/119/119 165/118/119
f 130/113/120 164/110/120 166/121/120 128/116/120
f 137/122/121 131/125/121 133/124/121 138/123/121
f 135/114/50 129/120/122 131/125/123 137/122/50
f 129/120/122 163/117/124 167/126/124 131/125/123
f 171/127/125 170/129/125 134/128/125 138/123/125
f 131/125/126 167/126/126 169/130/126 133/124/126
f 168/111/127 132/112/127 134/128/127 170/129/127
f 169/130/48 171/127/48 138/123/128 133/124/128
f 130/113/41 135/114/41 137/122/41 132/112/41
f 132/112/129 137/122/129 138/123/129 134/128/129
f 129/120/130 135/114/130 136/115/130 127/119/130
f 176/131/131 179/133/131 141/132/131
f 178/134/54 177/137/54 139/136/54 140/135/54
f 179/133/132 178/139/132 140/138/132 141/132/132
f 177/137/54 175/140/54 139/136/54
f 176/131/133 141/132/133 144/141/133
f 140/135/54 139/136/54 142/143/54 143/142/54
f 141/132/134 140/138/134 143/144/134 144/141/134
f 139/136/54 175/140/54 142/143/54
f 176/131/135 144/141/135 147/145/135
f 143/142/136 142/143/136 145/147/136 146/146/136
f 144/141/137 143/144/137 146/148/137 147/145/137
f 142/143/61 175/140/61 145/147/61
f 176/131/138 147/145/138 174/149/138
f 146/150/139 145/147/140 172/152/65 173/151/64
f 147/145/141 146/150/139 173/151/64 174/149/68
f 145/147/142 175/140/142 172/152/142
f 156/109/143 159/219/143 150/220/143 126/218/143
f 122/212/144 148/221/144 123/222/144 119/208/144
f 126/218/145 150/223/145 148/224/145 122/212/145
f 119/208/146 123/225/146 181/226/146 161/90/146
f 195/161/74 199/164/74 187/163/147 185/162/147
f 190/165/148 191/167/148 183/166/148 185/162/148
f 194/168/149 196/171/149 182/170/149 184/169/149
f 185/162/150 183/166/150 197/172/150 195/161/150
f 192/173/151 193/176/151 188/175/151 186/174/151
f 190/165/89 192/173/89 186/174/152 184/169/153
f 184/169/153 186/174/152 198/177/154 194/168/154
f 202/178/155 193/176/155 189/180/155 201/179/155
f 186/174/156 188/175/156 200/181/156 198/177/156
f 199/164/157 201/179/157 189/180/157 187/163/157
f 200/181/87 188/175/158 193/176/158 202/178/87
f 185/162/80 187/163/80 192/173/80 190/165/80
f 187/163/159 189/180/159 193/176/159 192/173/159
f 184/169/160 182/170/160 191/167/160 190/165/160
